SplineFontDB: 3.0
FontName: AlmendraDisplay-Regular
FullName: Almendra Display
FamilyName: Almendra Display
Weight: Book
Copyright: Copyright (c) 2011-2012, Ana Sanfelippo (anasanfe@gmail.com), with Reserved Font Name 'Almendra'
Version: 1.003
ItalicAngle: 0
UnderlinePosition: -50
UnderlineWidth: 50
Ascent: 800
Descent: 200
sfntRevision: 0x000100c5
LayerCount: 2
Layer: 0 1 "Back"  1
Layer: 1 1 "Fore"  0
XUID: [1021 426 1124161815 917179]
FSType: 0
OS2Version: 3
OS2_WeightWidthSlopeOnly: 0
OS2_UseTypoMetrics: 1
CreationTime: 1273876560
ModificationTime: 1352834497
PfmFamily: 17
TTFWeight: 400
TTFWidth: 5
LineGap: 0
VLineGap: 0
Panose: 2 0 0 0 0 0 0 0 0 0
OS2TypoAscent: 951
OS2TypoAOffset: 0
OS2TypoDescent: -345
OS2TypoDOffset: 0
OS2TypoLinegap: 0
OS2WinAscent: 951
OS2WinAOffset: 0
OS2WinDescent: 345
OS2WinDOffset: 0
HheadAscent: 951
HheadAOffset: 0
HheadDescent: -345
HheadDOffset: 0
OS2SubXSize: 650
OS2SubYSize: 600
OS2SubXOff: 0
OS2SubYOff: 75
OS2SupXSize: 650
OS2SupYSize: 600
OS2SupXOff: 0
OS2SupYOff: 350
OS2StrikeYSize: 50
OS2StrikeYPos: 288
OS2Vendor: 'pyrs'
OS2CodePages: 20000001.00000000
OS2UnicodeRanges: 8000006f.00000002.00000000.00000000
DEI: 91125
TtTable: prep
PUSHW_1
 511
SCANCTRL
PUSHB_1
 4
SCANTYPE
EndTTInstrs
ShortTable: maxp 16
  1
  0
  242
  136
  6
  0
  0
  2
  0
  1
  1
  0
  64
  0
  0
  0
EndShort
LangName: 1033 "" "" "" "AnaSanfelippo: Almendra Display: 2011" "" "Version 1.003" "" "Almendra is a trademark of Ana Sanfelippo." "Ana Sanfelippo" "Ana Sanfelippo" "" "" "www.anasanfelippo.com.ar" "This Font Software is licensed under the SIL Open Font License, Version 1.1. This license is available with a FAQ at: http://scripts.sil.org/OFL" "http://scripts.sil.org/OFL" 
GaspTable: 1 65535 15 1
Encoding: UnicodeBmp
UnicodeInterp: none
NameList: AGL For New Fonts
DisplaySize: -24
AntiAlias: 1
FitToEm: 1
BeginChars: 65547 242

StartChar: exclam
Encoding: 33 33 4
Width: 212
GlyphClass: 2
Flags: W
LayerCount: 2
Fore
SplineSet
128 13 m 0,0,1
 128 4 128 4 122 -3 c 128,-1,2
 116 -10 116 -10 106 -10 c 128,-1,3
 96 -10 96 -10 90 -3 c 128,-1,4
 84 4 84 4 84 13 c 0,5,6
 84 35 84 35 106 35 c 128,-1,7
 128 35 128 35 128 13 c 0,0,1
100 180 m 1,8,-1
 119 697 l 1,9,-1
 134 695 l 1,10,-1
 113 180 l 1,11,-1
 100 180 l 1,8,-1
EndSplineSet
EndChar

StartChar: quotedbl
Encoding: 34 34 5
Width: 315
GlyphClass: 2
Flags: W
LayerCount: 2
Fore
SplineSet
84 432 m 1,0,-1
 92 667 l 1,1,-1
 107 665 l 1,2,-1
 97 432 l 1,3,-1
 84 432 l 1,0,-1
183 432 m 1,4,-1
 191 667 l 1,5,-1
 206 665 l 1,6,-1
 196 432 l 1,7,-1
 183 432 l 1,4,-1
EndSplineSet
EndChar

StartChar: numbersign
Encoding: 35 35 6
Width: 555
GlyphClass: 2
Flags: W
LayerCount: 2
Fore
SplineSet
297 -83 m 1,0,-1
 327 156 l 1,1,-1
 192 160 l 1,2,-1
 160 -88 l 1,3,-1
 148 -83 l 1,4,-1
 179 160 l 1,5,-1
 46 164 l 1,6,-1
 48 176 l 1,7,-1
 180 173 l 1,8,-1
 202 343 l 1,9,-1
 73 347 l 1,10,-1
 75 359 l 1,11,-1
 204 356 l 1,12,-1
 234 588 l 1,13,-1
 248 590 l 1,14,-1
 217 355 l 1,15,-1
 352 352 l 1,16,-1
 383 588 l 1,17,-1
 397 590 l 1,18,-1
 366 351 l 1,19,-1
 509 348 l 1,20,-1
 507 336 l 1,21,-1
 364 339 l 1,22,-1
 342 168 l 1,23,-1
 482 165 l 1,24,-1
 480 153 l 1,25,-1
 341 156 l 1,26,-1
 309 -88 l 1,27,-1
 297 -83 l 1,0,-1
216 343 m 1,28,-1
 194 172 l 1,29,-1
 329 169 l 1,30,-1
 351 340 l 1,31,-1
 216 343 l 1,28,-1
EndSplineSet
EndChar

StartChar: dollar
Encoding: 36 36 7
Width: 450
GlyphClass: 2
Flags: W
LayerCount: 2
Fore
SplineSet
95 376 m 0,0,1
 95 418 95 418 136 462 c 128,-1,2
 177 506 177 506 223 524 c 1,3,-1
 225 587 l 1,4,-1
 238 589 l 1,5,-1
 236 524 l 1,6,7
 297 521 297 521 356 487 c 1,8,-1
 350 478 l 1,9,10
 293 510 293 510 236 513 c 1,11,-1
 230 277 l 1,12,13
 272 257 272 257 293.5 244.5 c 128,-1,14
 315 232 315 232 336 211 c 128,-1,15
 357 190 357 190 357 169 c 0,16,17
 357 121 357 121 317 76 c 128,-1,18
 277 31 277 31 224 2 c 1,19,-1
 222 -90 l 1,20,-1
 209 -87 l 1,21,-1
 211 0 l 1,22,23
 136 1 136 1 68 44 c 1,24,-1
 74 52 l 1,25,26
 147 12 147 12 211 11 c 1,27,-1
 217 269 l 1,28,29
 176 290 176 290 156 301.5 c 128,-1,30
 136 313 136 313 115.5 334 c 128,-1,31
 95 355 95 355 95 376 c 0,0,1
344 169 m 0,32,33
 344 196 344 196 308 220 c 0,34,35
 277 240 277 240 230 263 c 1,36,-1
 224 14 l 1,37,38
 272 41 272 41 308 83 c 128,-1,39
 344 125 344 125 344 169 c 0,32,33
144 453.5 m 128,-1,41
 108 413 108 413 108 382 c 128,-1,42
 108 351 108 351 136 330.5 c 128,-1,43
 164 310 164 310 218 283 c 1,44,-1
 223 512 l 1,45,40
 180 494 180 494 144 453.5 c 128,-1,41
EndSplineSet
EndChar

StartChar: percent
Encoding: 37 37 8
Width: 740
GlyphClass: 2
Flags: W
LayerCount: 2
Fore
SplineSet
531 542 m 1,0,1
 504 520 504 520 437 520 c 128,-1,2
 370 520 370 520 261 545 c 1,3,-1
 216 557 l 1,4,5
 251 538 251 538 273 497.5 c 128,-1,6
 295 457 295 457 295 398.5 c 128,-1,7
 295 340 295 340 260.5 289.5 c 128,-1,8
 226 239 226 239 176 228 c 1,9,10
 125 233 125 233 90 279.5 c 128,-1,11
 55 326 55 326 55 392.5 c 128,-1,12
 55 459 55 459 90 509 c 128,-1,13
 125 559 125 559 176 570 c 1,14,15
 208 569 208 569 290 549.5 c 128,-1,16
 372 530 372 530 446.5 530 c 128,-1,17
 521 530 521 530 553 576 c 1,18,-1
 562 590 l 1,19,-1
 577 592 l 1,20,-1
 140 -91 l 1,21,-1
 130 -82 l 1,22,-1
 531 542 l 1,0,1
567 -12 m 1,23,24
 516 -7 516 -7 481 39.5 c 128,-1,25
 446 86 446 86 446 152.5 c 128,-1,26
 446 219 446 219 481 269 c 128,-1,27
 516 319 516 319 567 330 c 1,28,29
 616 325 616 325 651 278.5 c 128,-1,30
 686 232 686 232 686 166 c 128,-1,31
 686 100 686 100 651.5 49.5 c 128,-1,32
 617 -1 617 -1 567 -12 c 1,23,24
642.5 58 m 128,-1,34
 674 106 674 106 674 165.5 c 128,-1,35
 674 225 674 225 642.5 269 c 128,-1,36
 611 313 611 313 567 319 c 1,37,38
 522 307 522 307 490 259.5 c 128,-1,39
 458 212 458 212 458 153 c 128,-1,40
 458 94 458 94 490 49.5 c 128,-1,41
 522 5 522 5 567 -1 c 1,42,33
 611 10 611 10 642.5 58 c 128,-1,34
251.5 298 m 128,-1,44
 283 346 283 346 283 405.5 c 128,-1,45
 283 465 283 465 251.5 509 c 128,-1,46
 220 553 220 553 176 559 c 1,47,48
 131 547 131 547 99 499.5 c 128,-1,49
 67 452 67 452 67 393 c 128,-1,50
 67 334 67 334 99 289.5 c 128,-1,51
 131 245 131 245 176 239 c 1,52,43
 220 250 220 250 251.5 298 c 128,-1,44
EndSplineSet
EndChar

StartChar: ampersand
Encoding: 38 38 9
Width: 613
GlyphClass: 2
Flags: W
LayerCount: 2
Fore
SplineSet
498 272 m 0,0,1
 498 170 498 170 421 83 c 1,2,3
 431 70 431 70 455 44 c 0,4,5
 497 -4 497 -4 546 -4 c 0,6,7
 572 -4 572 -4 585 4 c 1,8,-1
 591 -3 l 1,9,10
 576 -15 576 -15 543 -15 c 128,-1,11
 510 -15 510 -15 490 -3 c 128,-1,12
 470 9 470 9 446 36 c 1,13,14
 431 51 431 51 413 74 c 1,15,16
 358 16 358 16 284 -15 c 1,17,18
 191 -15 191 -15 126.5 45 c 128,-1,19
 62 105 62 105 62 196 c 0,20,21
 62 262 62 262 98 316 c 128,-1,22
 134 370 134 370 196 399 c 1,23,24
 162 477 162 477 162 538 c 0,25,26
 162 644 162 644 279 666 c 1,27,28
 394 655 394 655 394 564 c 0,29,30
 394 526 394 526 376.5 489 c 128,-1,31
 359 452 359 452 330 431 c 1,32,33
 434 438 434 438 503 477 c 128,-1,34
 572 516 572 516 573 597 c 1,35,-1
 585 597 l 1,36,37
 584 517 584 517 521.5 476 c 128,-1,38
 459 435 459 435 360 424 c 1,39,40
 423 416 423 416 460.5 376 c 128,-1,41
 498 336 498 336 498 272 c 0,0,1
382 564 m 0,42,43
 382 644 382 644 281 656 c 1,44,45
 175 638 175 638 175 538 c 0,46,47
 175 379 175 379 413 92 c 1,48,49
 485 174 485 174 485 272 c 0,50,51
 485 343 485 343 437 381.5 c 128,-1,52
 389 420 389 420 313 420 c 1,53,-1
 308 429 l 1,54,55
 341 446 341 446 361.5 483.5 c 128,-1,56
 382 521 382 521 382 564 c 0,42,43
75 196 m 0,57,58
 75 112 75 112 135.5 55 c 128,-1,59
 196 -2 196 -2 282 -4 c 1,60,61
 354 27 354 27 405 83 c 1,62,63
 260 257 260 257 201 389 c 1,64,65
 144 363 144 363 109.5 310.5 c 128,-1,66
 75 258 75 258 75 196 c 0,57,58
EndSplineSet
EndChar

StartChar: quotesingle
Encoding: 39 39 10
Width: 185
GlyphClass: 2
Flags: W
LayerCount: 2
Fore
SplineSet
84 432 m 1,0,-1
 92 667 l 1,1,-1
 107 665 l 1,2,-1
 97 432 l 1,3,-1
 84 432 l 1,0,-1
EndSplineSet
EndChar

StartChar: parenleft
Encoding: 40 40 11
Width: 272
GlyphClass: 2
Flags: W
LayerCount: 2
Fore
SplineSet
134 504 m 128,-1,1
 88 384 88 384 88 259.5 c 128,-1,2
 88 135 88 135 134.5 3 c 128,-1,3
 181 -129 181 -129 258 -207 c 1,4,-1
 249 -215 l 1,5,6
 171 -136 171 -136 122.5 -1 c 128,-1,7
 74 134 74 134 74 259.5 c 128,-1,8
 74 385 74 385 121.5 507.5 c 128,-1,9
 169 630 169 630 249 711 c 1,10,-1
 258 703 l 1,11,0
 180 624 180 624 134 504 c 128,-1,1
EndSplineSet
EndChar

StartChar: parenright
Encoding: 41 41 12
Width: 272
GlyphClass: 2
Flags: W
LayerCount: 2
Fore
SplineSet
150.5 507.5 m 128,-1,1
 198 385 198 385 198 259.5 c 128,-1,2
 198 134 198 134 149.5 -1 c 128,-1,3
 101 -136 101 -136 23 -215 c 1,4,-1
 14 -207 l 1,5,6
 91 -129 91 -129 137.5 3 c 128,-1,7
 184 135 184 135 184 259.5 c 128,-1,8
 184 384 184 384 138 504 c 128,-1,9
 92 624 92 624 14 703 c 1,10,-1
 23 711 l 1,11,0
 103 630 103 630 150.5 507.5 c 128,-1,1
EndSplineSet
EndChar

StartChar: asterisk
Encoding: 42 42 13
Width: 357
GlyphClass: 2
Flags: W
LayerCount: 2
Fore
SplineSet
177 411 m 0,0,1
 173 411 173 411 170 414 c 1,2,-1
 175 546 l 1,3,-1
 67 481 l 2,4,5
 63 479 63 479 61 479 c 0,6,7
 54 479 54 479 54 491 c 1,8,-1
 171 552 l 1,9,-1
 61 613 l 2,10,11
 56 616 56 616 56 621 c 128,-1,12
 56 626 56 626 63 629 c 1,13,-1
 175 559 l 1,14,-1
 172 684 l 2,15,16
 172 694 172 694 180 694 c 0,17,18
 184 694 184 694 187 691 c 1,19,-1
 182 558 l 1,20,-1
 290 624 l 2,21,22
 294 626 294 626 296 626 c 0,23,24
 303 626 303 626 303 614 c 1,25,-1
 185 552 l 1,26,-1
 296 492 l 2,27,28
 301 489 301 489 301 484 c 128,-1,29
 301 479 301 479 294 476 c 1,30,-1
 182 546 l 1,31,-1
 185 421 l 2,32,33
 185 411 185 411 177 411 c 0,0,1
EndSplineSet
EndChar

StartChar: plus
Encoding: 43 43 14
Width: 520
GlyphClass: 2
Flags: W
LayerCount: 2
Fore
SplineSet
68 255 m 1,0,-1
 254 255 l 1,1,-1
 254 456 l 1,2,-1
 267 456 l 1,3,-1
 267 255 l 1,4,-1
 453 255 l 1,5,-1
 453 244 l 1,6,-1
 267 244 l 1,7,-1
 267 20 l 1,8,-1
 254 20 l 1,9,-1
 254 244 l 1,10,-1
 68 244 l 1,11,-1
 68 255 l 1,0,-1
EndSplineSet
EndChar

StartChar: comma
Encoding: 44 44 15
Width: 210
GlyphClass: 2
Flags: W
LayerCount: 2
Fore
SplineSet
103 -10 m 0,0,1
 83 -10 83 -10 83 12.5 c 128,-1,2
 83 35 83 35 105 35 c 128,-1,3
 127 35 127 35 127 6 c 0,4,5
 127 -71 127 -71 55 -139 c 1,6,-1
 47 -131 l 1,7,8
 105 -71 105 -71 113 -8 c 1,9,10
 109 -10 109 -10 103 -10 c 0,0,1
EndSplineSet
EndChar

StartChar: hyphen
Encoding: 45 45 16
Width: 358
GlyphClass: 2
Flags: W
LayerCount: 2
Fore
SplineSet
70 273 m 1,0,-1
 288 273 l 1,1,-1
 288 262 l 1,2,-1
 70 262 l 1,3,-1
 70 273 l 1,0,-1
EndSplineSet
EndChar

StartChar: period
Encoding: 46 46 17
Width: 212
GlyphClass: 2
Flags: W
LayerCount: 2
Fore
SplineSet
128 13 m 0,0,1
 128 4 128 4 122 -3 c 128,-1,2
 116 -10 116 -10 106 -10 c 128,-1,3
 96 -10 96 -10 90 -3 c 128,-1,4
 84 4 84 4 84 13 c 0,5,6
 84 35 84 35 106 35 c 128,-1,7
 128 35 128 35 128 13 c 0,0,1
EndSplineSet
EndChar

StartChar: slash
Encoding: 47 47 18
Width: 307
GlyphClass: 2
Flags: W
LayerCount: 2
Fore
SplineSet
10 -26 m 1,0,-1
 282 694 l 1,1,-1
 297 696 l 1,2,-1
 22 -31 l 1,3,-1
 10 -26 l 1,0,-1
EndSplineSet
EndChar

StartChar: zero
Encoding: 48 48 19
Width: 462
GlyphClass: 2
Flags: W
LayerCount: 2
Fore
SplineSet
106 396.5 m 128,-1,1
 157 469 157 469 232 485 c 1,2,3
 305 477 305 477 356.5 409 c 128,-1,4
 408 341 408 341 408 244.5 c 128,-1,5
 408 148 408 148 357 74.5 c 128,-1,6
 306 1 306 1 232 -15 c 1,7,8
 158 -7 158 -7 108 60 c 0,9,10
 55 130 55 130 55 227 c 128,-1,0
 55 324 55 324 106 396.5 c 128,-1,1
395 245 m 128,-1,12
 395 336 395 336 347.5 401 c 128,-1,13
 300 466 300 466 232 475 c 1,14,15
 164 457 164 457 116 387.5 c 128,-1,16
 68 318 68 318 68 232 c 0,17,18
 68 136 68 136 116 70 c 128,-1,19
 164 4 164 4 232 -5 c 1,20,21
 300 13 300 13 347.5 83.5 c 128,-1,11
 395 154 395 154 395 245 c 128,-1,12
EndSplineSet
EndChar

StartChar: one
Encoding: 49 49 20
Width: 322
GlyphClass: 2
Flags: W
LayerCount: 2
Fore
SplineSet
193 67 m 2,0,1
 193 -1 193 -1 279 -1 c 0,2,3
 297 -1 297 -1 319 4 c 1,4,-1
 321 -5 l 1,5,6
 303 -12 303 -12 273 -12 c 128,-1,7
 243 -12 243 -12 217 1 c 128,-1,8
 191 14 191 14 186 40 c 1,9,10
 181 14 181 14 155.5 1 c 128,-1,11
 130 -12 130 -12 100 -12 c 128,-1,12
 70 -12 70 -12 52 -5 c 1,13,-1
 54 4 l 1,14,15
 76 -1 76 -1 94 -1 c 0,16,17
 180 -1 180 -1 180 67 c 2,18,-1
 180 463 l 1,19,20
 133 414 133 414 63 391 c 1,21,-1
 60 401 l 1,22,23
 133 425 133 425 184 485 c 1,24,-1
 193 483 l 1,25,-1
 193 67 l 2,0,1
EndSplineSet
EndChar

StartChar: two
Encoding: 50 50 21
Width: 420
GlyphClass: 2
Flags: W
LayerCount: 2
Fore
SplineSet
297 281 m 128,-1,1
 320 321 320 321 320 367.5 c 128,-1,2
 320 414 320 414 288 444.5 c 128,-1,3
 256 475 256 475 201 475 c 1,4,5
 133 457 133 457 80 397 c 1,6,-1
 72 403 l 1,7,8
 123 461 123 461 197 485 c 1,9,10
 260 485 260 485 296.5 452 c 128,-1,11
 333 419 333 419 333 367 c 128,-1,12
 333 315 333 315 303 267 c 128,-1,13
 273 219 273 219 235 183.5 c 128,-1,14
 197 148 197 148 147.5 100.5 c 128,-1,15
 98 53 98 53 74 20 c 1,16,17
 110 24 110 24 162 24 c 0,18,19
 261 24 261 24 347 -3 c 1,20,21
 332 33 332 33 332 81 c 0,22,23
 332 87 332 87 332 93 c 1,24,-1
 345 93 l 1,25,26
 345 86 345 86 345 80 c 0,27,28
 345 21 345 21 362 -11 c 1,29,-1
 355 -18 l 1,30,31
 272 13 272 13 162 13 c 0,32,33
 102 13 102 13 66 8 c 1,34,35
 53 -12 53 -12 52 -15 c 1,36,-1
 42 -11 l 1,37,38
 71 48 71 48 166 134 c 0,39,40
 203 168 203 168 238.5 204.5 c 128,-1,0
 274 241 274 241 297 281 c 128,-1,1
EndSplineSet
EndChar

StartChar: three
Encoding: 51 51 22
Width: 385
GlyphClass: 2
Flags: W
LayerCount: 2
Fore
SplineSet
326 91 m 0,0,1
 326 241 326 241 155 241 c 2,2,-1
 142 241 l 1,3,-1
 142 244 l 1,4,5
 256 360 256 360 307 451 c 1,6,7
 284 449 284 449 239 449 c 0,8,9
 130 449 130 449 54 473 c 1,10,11
 69 437 69 437 69 389 c 0,12,13
 69 383 69 383 69 377 c 1,14,-1
 56 377 l 1,15,16
 56 384 56 384 56 390 c 0,17,18
 56 449 56 449 39 481 c 1,19,-1
 46 488 l 1,20,21
 121 460 121 460 239 460 c 0,22,23
 289 460 289 460 314 462 c 1,24,-1
 326 485 l 1,25,-1
 336 481 l 1,26,27
 288 377 288 377 165 252 c 1,28,29
 248 250 248 250 293.5 210.5 c 128,-1,30
 339 171 339 171 339 97 c 128,-1,31
 339 23 339 23 289.5 -37 c 128,-1,32
 240 -97 240 -97 172 -115 c 1,33,34
 88 -99 88 -99 24 -58 c 1,35,-1
 31 -49 l 1,36,37
 101 -91 101 -91 174 -104 c 1,38,39
 235 -85 235 -85 280.5 -28 c 128,-1,40
 326 29 326 29 326 91 c 0,0,1
EndSplineSet
EndChar

StartChar: four
Encoding: 52 52 23
Width: 435
GlyphClass: 2
Flags: W
LayerCount: 2
Fore
SplineSet
306 -36 m 2,0,1
 306 -104 306 -104 392 -104 c 0,2,3
 410 -104 410 -104 432 -99 c 1,4,-1
 434 -108 l 1,5,6
 416 -115 416 -115 386 -115 c 128,-1,7
 356 -115 356 -115 330 -102 c 128,-1,8
 304 -89 304 -89 299 -63 c 1,9,10
 294 -89 294 -89 268.5 -102 c 128,-1,11
 243 -115 243 -115 213 -115 c 128,-1,12
 183 -115 183 -115 165 -108 c 1,13,-1
 167 -99 l 1,14,15
 189 -104 189 -104 207 -104 c 0,16,17
 293 -104 293 -104 293 -36 c 2,18,-1
 293 71 l 1,19,-1
 42 76 l 1,20,-1
 38 76 l 1,21,-1
 32 83 l 1,22,23
 94 164 94 164 178 288.5 c 128,-1,24
 262 413 262 413 294 481 c 1,25,-1
 306 482 l 1,26,-1
 306 82 l 1,27,-1
 410 80 l 1,28,-1
 410 69 l 1,29,-1
 306 71 l 1,30,-1
 306 -36 l 2,0,1
293 453 m 1,31,32
 267 398 267 398 185 277 c 128,-1,33
 103 156 103 156 50 87 c 1,34,-1
 293 82 l 1,35,-1
 293 453 l 1,31,32
EndSplineSet
EndChar

StartChar: five
Encoding: 53 53 24
Width: 393
GlyphClass: 2
Flags: W
LayerCount: 2
Fore
SplineSet
74 428 m 2,0,1
 75 453 75 453 75 465.5 c 128,-1,2
 75 478 75 478 75 484 c 1,3,-1
 88 485 l 1,4,-1
 89 461 l 1,5,6
 108 459 108 459 152 459 c 0,7,8
 255 459 255 459 320 485 c 1,9,-1
 327 478 l 1,10,11
 310 446 310 446 310 387 c 0,12,13
 310 381 310 381 310 374 c 1,14,-1
 297 374 l 1,15,16
 297 380 297 380 297 386 c 0,17,18
 297 434 297 434 312 470 c 1,19,20
 249 448 249 448 152 448 c 0,21,22
 122 448 122 448 88 450 c 1,23,-1
 77 248 l 1,24,25
 119 262 119 262 169 262 c 0,26,27
 347 262 347 262 347 91 c 0,28,29
 347 23 347 23 297.5 -37 c 128,-1,30
 248 -97 248 -97 180 -115 c 1,31,32
 96 -99 96 -99 32 -58 c 1,33,-1
 39 -49 l 1,34,35
 109 -91 109 -91 182 -104 c 1,36,37
 243 -85 243 -85 288.5 -28 c 128,-1,38
 334 29 334 29 334 91 c 0,39,40
 334 174 334 174 291 212.5 c 128,-1,41
 248 251 248 251 163 251 c 0,42,43
 115 251 115 251 73 236 c 1,44,-1
 64 240 l 1,45,-1
 74 428 l 2,0,1
EndSplineSet
EndChar

StartChar: six
Encoding: 54 54 25
Width: 426
GlyphClass: 2
Flags: W
LayerCount: 2
Fore
SplineSet
67 192 m 0,0,1
 67 106 67 106 105 54.5 c 128,-1,2
 143 3 143 3 218 -4 c 1,3,4
 281 7 281 7 326 61 c 128,-1,5
 371 115 371 115 371 183.5 c 128,-1,6
 371 252 371 252 330 286.5 c 128,-1,7
 289 321 289 321 220 321 c 0,8,9
 195 321 195 321 163 316 c 1,10,-1
 162 325 l 1,11,12
 192 331 192 331 223 331 c 0,13,14
 297 331 297 331 340.5 293.5 c 128,-1,15
 384 256 384 256 384 183.5 c 128,-1,16
 384 111 384 111 335 53 c 128,-1,17
 286 -5 286 -5 217 -15 c 1,18,19
 137 -8 137 -8 95.5 46.5 c 128,-1,20
 54 101 54 101 54 192 c 0,21,22
 54 308 54 308 127 410.5 c 128,-1,23
 200 513 200 513 313 585 c 1,24,-1
 320 577 l 1,25,26
 208 505 208 505 137.5 405.5 c 128,-1,27
 67 306 67 306 67 192 c 0,0,1
EndSplineSet
EndChar

StartChar: seven
Encoding: 55 55 26
Width: 390
GlyphClass: 2
Flags: W
LayerCount: 2
Fore
SplineSet
155 -100 m 1,0,-1
 142 -100 l 1,1,2
 142 -3 142 -3 206.5 151.5 c 128,-1,3
 271 306 271 306 348 447 c 1,4,5
 312 443 312 443 260 443 c 0,6,7
 161 443 161 443 75 470 c 1,8,9
 90 434 90 434 90 386 c 0,10,11
 90 380 90 380 90 374 c 1,12,-1
 77 374 l 1,13,14
 77 381 77 381 77 387 c 0,15,16
 77 446 77 446 60 478 c 1,17,-1
 67 485 l 1,18,19
 150 454 150 454 260 454 c 0,20,21
 320 454 320 454 356 459 c 1,22,-1
 370 482 l 1,23,-1
 380 478 l 1,24,25
 301 344 301 344 228 172.5 c 128,-1,26
 155 1 155 1 155 -100 c 1,0,-1
EndSplineSet
EndChar

StartChar: eight
Encoding: 56 56 27
Width: 431
GlyphClass: 2
Flags: W
LayerCount: 2
Fore
SplineSet
347 485 m 0,0,1
 347 388 347 388 245 307 c 1,2,3
 377 228 377 228 377 156 c 0,4,5
 377 103 377 103 332 54 c 128,-1,6
 287 5 287 5 230 -15 c 1,7,8
 153 -9 153 -9 103.5 27 c 128,-1,9
 54 63 54 63 54 125 c 128,-1,10
 54 187 54 187 93.5 236.5 c 128,-1,11
 133 286 133 286 195 322 c 1,12,13
 139 355 139 355 112 387 c 128,-1,14
 85 419 85 419 85 461.5 c 128,-1,15
 85 504 85 504 120.5 537.5 c 128,-1,16
 156 571 156 571 200 585 c 1,17,18
 262 585 262 585 304.5 560.5 c 128,-1,19
 347 536 347 536 347 485 c 0,0,1
105.5 233.5 m 128,-1,21
 67 184 67 184 67 126.5 c 128,-1,22
 67 69 67 69 113 34.5 c 128,-1,23
 159 0 159 0 229 -5 c 1,24,25
 282 14 282 14 323 60 c 128,-1,26
 364 106 364 106 364 156 c 0,27,28
 364 188 364 188 338 219.5 c 128,-1,29
 312 251 312 251 285 269 c 0,30,31
 240 299 240 299 204 317 c 1,32,20
 144 283 144 283 105.5 233.5 c 128,-1,21
309 391.5 m 128,-1,34
 334 432 334 432 334 481 c 128,-1,35
 334 530 334 530 296 552.5 c 128,-1,36
 258 575 258 575 204 575 c 1,37,38
 162 562 162 562 130 532 c 128,-1,39
 98 502 98 502 98 460.5 c 128,-1,40
 98 419 98 419 127.5 388 c 128,-1,41
 157 357 157 357 219 322 c 0,42,43
 233 314 233 314 235 312 c 1,44,33
 284 351 284 351 309 391.5 c 128,-1,34
EndSplineSet
EndChar

StartChar: nine
Encoding: 57 57 28
Width: 426
GlyphClass: 2
Flags: W
LayerCount: 2
Fore
SplineSet
359 278 m 0,0,1
 359 364 359 364 321 415.5 c 128,-1,2
 283 467 283 467 208 474 c 1,3,4
 145 463 145 463 100 409 c 128,-1,5
 55 355 55 355 55 286.5 c 128,-1,6
 55 218 55 218 96 183.5 c 128,-1,7
 137 149 137 149 206 149 c 0,8,9
 231 149 231 149 263 154 c 1,10,-1
 264 145 l 1,11,12
 234 139 234 139 203 139 c 0,13,14
 129 139 129 139 85.5 176.5 c 128,-1,15
 42 214 42 214 42 286.5 c 128,-1,16
 42 359 42 359 91 417 c 128,-1,17
 140 475 140 475 209 485 c 1,18,19
 289 478 289 478 330.5 423.5 c 128,-1,20
 372 369 372 369 372 278 c 0,21,22
 372 162 372 162 299 59.5 c 128,-1,23
 226 -43 226 -43 113 -115 c 1,24,-1
 106 -107 l 1,25,26
 218 -35 218 -35 288.5 64.5 c 128,-1,27
 359 164 359 164 359 278 c 0,0,1
EndSplineSet
EndChar

StartChar: colon
Encoding: 58 58 29
Width: 212
GlyphClass: 2
Flags: W
LayerCount: 2
Fore
SplineSet
128 13 m 0,0,1
 128 4 128 4 122 -3 c 128,-1,2
 116 -10 116 -10 106 -10 c 128,-1,3
 96 -10 96 -10 90 -3 c 128,-1,4
 84 4 84 4 84 13 c 0,5,6
 84 35 84 35 106 35 c 128,-1,7
 128 35 128 35 128 13 c 0,0,1
128 448 m 0,8,9
 128 439 128 439 122 432 c 128,-1,10
 116 425 116 425 106 425 c 128,-1,11
 96 425 96 425 90 432 c 128,-1,12
 84 439 84 439 84 448 c 0,13,14
 84 470 84 470 106 470 c 128,-1,15
 128 470 128 470 128 448 c 0,8,9
EndSplineSet
EndChar

StartChar: semicolon
Encoding: 59 59 30
Width: 210
GlyphClass: 2
Flags: W
LayerCount: 2
Fore
SplineSet
103 -10 m 0,0,1
 83 -10 83 -10 83 12.5 c 128,-1,2
 83 35 83 35 105 35 c 128,-1,3
 127 35 127 35 127 6 c 0,4,5
 127 -71 127 -71 55 -139 c 1,6,-1
 47 -131 l 1,7,8
 105 -71 105 -71 113 -8 c 1,9,10
 109 -10 109 -10 103 -10 c 0,0,1
127 448 m 0,11,12
 127 439 127 439 121 432 c 128,-1,13
 115 425 115 425 105 425 c 128,-1,14
 95 425 95 425 89 432 c 128,-1,15
 83 439 83 439 83 448 c 0,16,17
 83 470 83 470 105 470 c 128,-1,18
 127 470 127 470 127 448 c 0,11,12
EndSplineSet
EndChar

StartChar: less
Encoding: 60 60 31
Width: 520
GlyphClass: 2
Flags: W
LayerCount: 2
Fore
SplineSet
87 249 m 1,0,-1
 87 255 l 1,1,-1
 442 413 l 1,2,-1
 447 403 l 1,3,-1
 105 252 l 1,4,-1
 447 102 l 1,5,-1
 441 92 l 1,6,-1
 87 249 l 1,0,-1
EndSplineSet
EndChar

StartChar: equal
Encoding: 61 61 32
Width: 520
GlyphClass: 2
Flags: W
LayerCount: 2
Fore
SplineSet
68 317 m 1,0,-1
 68 329 l 1,1,-1
 453 329 l 1,2,-1
 453 317 l 1,3,-1
 68 317 l 1,0,-1
68 163 m 1,4,-1
 68 175 l 1,5,-1
 453 175 l 1,6,-1
 453 163 l 1,7,-1
 68 163 l 1,4,-1
EndSplineSet
EndChar

StartChar: greater
Encoding: 62 62 33
Width: 520
GlyphClass: 2
Flags: W
LayerCount: 2
Fore
SplineSet
433 255 m 1,0,-1
 433 249 l 1,1,-1
 79 92 l 1,2,-1
 73 102 l 1,3,-1
 415 252 l 1,4,-1
 73 403 l 1,5,-1
 78 413 l 1,6,-1
 433 255 l 1,0,-1
EndSplineSet
EndChar

StartChar: question
Encoding: 63 63 34
Width: 335
GlyphClass: 2
Flags: W
LayerCount: 2
Fore
SplineSet
157 13 m 0,0,1
 157 4 157 4 151 -3 c 128,-1,2
 145 -10 145 -10 135 -10 c 128,-1,3
 125 -10 125 -10 119 -3 c 128,-1,4
 113 4 113 4 113 13 c 0,5,6
 113 35 113 35 135 35 c 128,-1,7
 157 35 157 35 157 13 c 0,0,1
272 570 m 0,8,9
 272 625 272 625 240 655.5 c 128,-1,10
 208 686 208 686 153 686 c 1,11,12
 85 668 85 668 32 608 c 1,13,-1
 24 614 l 1,14,15
 75 672 75 672 149 696 c 1,16,17
 212 696 212 696 248.5 663 c 128,-1,18
 285 630 285 630 285 570 c 0,19,20
 285 453 285 453 141 341 c 1,21,-1
 141 188 l 1,22,-1
 128 187 l 1,23,-1
 128 345 l 1,24,25
 272 451 272 451 272 570 c 0,8,9
EndSplineSet
EndChar

StartChar: at
Encoding: 64 64 35
Width: 918
GlyphClass: 2
Flags: W
LayerCount: 2
Fore
SplineSet
589 132 m 2,0,-1
 589 154 l 1,1,2
 555 97 555 97 499.5 51 c 128,-1,3
 444 5 444 5 395 -15 c 1,4,5
 342 13 342 13 316 71 c 128,-1,6
 290 129 290 129 290 206 c 128,-1,7
 290 283 290 283 325.5 360 c 128,-1,8
 361 437 361 437 427 485 c 1,9,10
 516 485 516 485 590 443 c 1,11,12
 595 493 595 493 623 528 c 1,13,-1
 632 523 l 1,14,15
 602 475 602 475 602 418 c 2,16,-1
 602 132 l 2,17,18
 602 23 602 23 629 -3 c 1,19,20
 736 33 736 33 791.5 133 c 128,-1,21
 847 233 847 233 847 363 c 0,22,23
 847 516 847 516 758.5 585 c 128,-1,24
 670 654 670 654 504 656 c 1,25,26
 315 630 315 630 203 490.5 c 128,-1,27
 91 351 91 351 91 155 c 0,28,29
 91 -18 91 -18 175 -100 c 128,-1,30
 259 -182 259 -182 431 -184 c 1,31,32
 508 -164 508 -164 562 -127 c 1,33,-1
 568 -135 l 1,34,35
 507 -178 507 -178 432 -195 c 1,36,37
 252 -195 252 -195 165 -109 c 128,-1,38
 78 -23 78 -23 78 155 c 0,39,40
 78 357 78 357 193 498 c 128,-1,41
 308 639 308 639 503 666 c 1,42,43
 860 666 860 666 860 363 c 0,44,45
 860 229 860 229 800.5 125.5 c 128,-1,46
 741 22 741 22 625 -15 c 1,47,48
 589 9 589 9 589 132 c 2,0,-1
336.5 353 m 128,-1,50
 304 280 304 280 304 207.5 c 128,-1,51
 304 135 304 135 327 79.5 c 128,-1,52
 350 24 350 24 397 -1 c 1,53,54
 443 17 443 17 501.5 67.5 c 128,-1,55
 560 118 560 118 589 174 c 1,56,-1
 589 431 l 1,57,58
 515 474 515 474 430 474 c 1,59,49
 369 426 369 426 336.5 353 c 128,-1,50
EndSplineSet
EndChar

StartChar: A
Encoding: 65 65 36
Width: 718
GlyphClass: 2
Flags: W
LayerCount: 2
Fore
SplineSet
525 253 m 1,0,-1
 315 254 l 1,1,-1
 270 85 l 2,2,3
 255 28 255 28 241 -9 c 128,-1,4
 227 -46 227 -46 204 -84 c 0,5,6
 156 -160 156 -160 62 -160 c 1,7,-1
 62 -148 l 1,8,9
 137 -148 137 -148 179 -97.5 c 128,-1,10
 221 -47 221 -47 246 41 c 1,11,-1
 256 62 l 1,12,-1
 254 63 l 1,13,14
 220 -13 220 -13 146 -13 c 0,15,16
 97 -13 97 -13 65 20 c 128,-1,17
 33 53 33 53 33 103 c 0,18,19
 33 266 33 266 305 266 c 1,20,-1
 405 644 l 1,21,-1
 374 645 l 2,22,23
 370 645 370 645 366 645 c 0,24,25
 311 645 311 645 277 619.5 c 128,-1,26
 243 594 243 594 243 552 c 0,27,28
 243 532 243 532 249 519 c 1,29,-1
 241 513 l 1,30,31
 230 525 230 525 230 554.5 c 128,-1,32
 230 584 230 584 251 610.5 c 128,-1,33
 272 637 272 637 305 646 c 0,34,35
 314 648 314 648 328 650 c 1,36,-1
 328 652 l 1,37,-1
 305 651 l 1,38,39
 209 663 209 663 149 705.5 c 128,-1,40
 89 748 89 748 89 828 c 1,41,-1
 101 829 l 1,42,43
 101 783 101 783 124 749.5 c 128,-1,44
 147 716 147 716 187 697 c 0,45,46
 263 661 263 661 367 657 c 2,47,-1
 539 649 l 1,48,-1
 539 107 l 2,49,50
 539 47 539 47 517 17.5 c 128,-1,51
 495 -12 495 -12 442 -12 c 0,52,53
 415 -12 415 -12 397 -6 c 1,54,-1
 399 4 l 1,55,56
 421 -1 421 -1 439 -1 c 0,57,58
 489 -1 489 -1 507 25 c 128,-1,59
 525 51 525 51 525 107 c 2,60,-1
 525 253 l 1,0,-1
366 266 m 1,61,-1
 525 265 l 1,62,-1
 525 638 l 1,63,-1
 418 643 l 1,64,-1
 318 266 l 1,65,-1
 366 266 l 1,61,-1
47 103 m 0,66,67
 47 59 47 59 75 29 c 128,-1,68
 103 -1 103 -1 146 -1 c 0,69,70
 215 -1 215 -1 248 72 c 0,71,72
 266 113 266 113 279 168 c 1,73,-1
 302 254 l 1,74,75
 47 252 47 252 47 103 c 0,66,67
565 107 m 2,76,-1
 565 605 l 2,77,78
 565 665 565 665 587 694.5 c 128,-1,79
 609 724 609 724 662 724 c 0,80,81
 689 724 689 724 707 718 c 1,82,-1
 705 708 l 1,83,84
 683 713 683 713 665 713 c 0,85,86
 615 713 615 713 597 687 c 128,-1,87
 579 661 579 661 579 605 c 2,88,-1
 579 107 l 2,89,90
 579 51 579 51 597 25 c 128,-1,91
 615 -1 615 -1 665 -1 c 0,92,93
 683 -1 683 -1 705 4 c 1,94,-1
 707 -6 l 1,95,96
 689 -12 689 -12 662 -12 c 0,97,98
 609 -12 609 -12 587 17.5 c 128,-1,99
 565 47 565 47 565 107 c 2,76,-1
EndSplineSet
EndChar

StartChar: B
Encoding: 66 66 37
Width: 694
GlyphClass: 2
Flags: W
LayerCount: 2
Fore
SplineSet
414 663 m 0,0,1
 501 663 501 663 542.5 634 c 128,-1,2
 584 605 584 605 584 528 c 0,3,4
 584 479 584 479 557 438.5 c 128,-1,5
 530 398 530 398 486 379 c 1,6,-1
 463 374 l 1,7,-1
 464 372 l 1,8,9
 478 374 478 374 491 374 c 0,10,11
 558 369 558 369 596 330.5 c 128,-1,12
 634 292 634 292 634 216.5 c 128,-1,13
 634 141 634 141 575.5 74.5 c 128,-1,14
 517 8 517 8 431 -15 c 1,15,16
 394 -15 394 -15 345 -0.5 c 128,-1,17
 296 14 296 14 262 33 c 1,18,-1
 262 655 l 1,19,20
 376 663 376 663 414 663 c 0,0,1
236 107 m 2,21,22
 236 47 236 47 214 17.5 c 128,-1,23
 192 -12 192 -12 139 -12 c 0,24,25
 112 -12 112 -12 94 -6 c 1,26,-1
 96 4 l 1,27,28
 118 -1 118 -1 136 -1 c 0,29,30
 186 -1 186 -1 204 25 c 128,-1,31
 222 51 222 51 222 107 c 2,32,-1
 222 640 l 1,33,34
 166 636 166 636 140 625 c 0,35,36
 81 600 81 600 81 544 c 0,37,38
 81 520 81 520 91 501 c 1,39,-1
 83 495 l 1,40,41
 68 512 68 512 68 543 c 0,42,43
 68 609 68 609 134 633 c 0,44,45
 146 637 146 637 156 640 c 1,46,-1
 156 642 l 1,47,-1
 133 638 l 1,48,49
 37 640 37 640 -27.5 676.5 c 128,-1,50
 -92 713 -92 713 -100 792 c 1,51,-1
 -88 794 l 1,52,53
 -72 650 -72 650 160 650 c 0,54,55
 192 650 192 650 236 653 c 1,56,-1
 236 107 l 2,21,22
532.5 624.5 m 128,-1,58
 495 651 495 651 428.5 651 c 128,-1,59
 362 651 362 651 276 644 c 1,60,-1
 276 40 l 1,61,62
 364 -3 364 -3 428 -3 c 1,63,64
 509 20 509 20 564.5 83 c 128,-1,65
 620 146 620 146 620 220.5 c 128,-1,66
 620 295 620 295 576.5 330.5 c 128,-1,67
 533 366 533 366 457 366 c 0,68,69
 385 366 385 366 371 346 c 0,70,71
 364 336 364 336 364 318 c 128,-1,72
 364 300 364 300 376.5 288.5 c 128,-1,73
 389 277 389 277 409 275 c 1,74,-1
 407 265 l 1,75,76
 383 267 383 267 366.5 281.5 c 128,-1,77
 350 296 350 296 350 317 c 0,78,79
 350 360 350 360 393 369 c 1,80,81
 368 371 368 371 352 384.5 c 128,-1,82
 336 398 336 398 336 421 c 128,-1,83
 336 444 336 444 352.5 458.5 c 128,-1,84
 369 473 369 473 393 475 c 1,85,-1
 395 465 l 1,86,87
 375 463 375 463 362.5 451.5 c 128,-1,88
 350 440 350 440 350 419 c 128,-1,89
 350 398 350 398 368.5 387 c 128,-1,90
 387 376 387 376 415 376 c 0,91,92
 483 376 483 376 526.5 421 c 128,-1,93
 570 466 570 466 570 532 c 128,-1,57
 570 598 570 598 532.5 624.5 c 128,-1,58
EndSplineSet
EndChar

StartChar: C
Encoding: 67 67 38
Width: 490
GlyphClass: 2
Flags: W
LayerCount: 2
Fore
SplineSet
30 290 m 0,0,1
 30 401 30 401 89.5 511 c 128,-1,2
 149 621 149 621 248 666 c 1,3,-1
 250 666 l 1,4,-1
 250 326 l 1,5,6
 267 314 267 314 274 296 c 1,7,-1
 280 274 l 1,8,-1
 282 275 l 1,9,-1
 277 297 l 1,10,-1
 276 666 l 1,11,-1
 287 666 l 2,12,13
 400 666 400 666 432 641 c 0,14,15
 467 615 467 615 467 568.5 c 128,-1,16
 467 522 467 522 445.5 496.5 c 128,-1,17
 424 471 424 471 389.5 471 c 128,-1,18
 355 471 355 471 335 491.5 c 128,-1,19
 315 512 315 512 315 545 c 0,20,21
 315 557 315 557 320 569 c 1,22,-1
 331 565 l 1,23,24
 328 554 328 554 328 545 c 0,25,26
 328 517 328 517 344.5 500 c 128,-1,27
 361 483 361 483 390 483 c 128,-1,28
 419 483 419 483 436 505 c 128,-1,29
 453 527 453 527 453 556.5 c 128,-1,30
 453 586 453 586 444 604.5 c 128,-1,31
 435 623 435 623 422.5 632.5 c 128,-1,32
 410 642 410 642 386 647 c 0,33,34
 352 654 352 654 290 654 c 1,35,-1
 290 0 l 1,36,37
 390 18 390 18 455 74 c 1,38,-1
 465 64 l 1,39,40
 389 2 389 2 280 -14 c 1,41,42
 149 -4 149 -4 89.5 73 c 128,-1,43
 30 150 30 150 30 290 c 0,0,1
276 237 m 2,44,45
 276 329 276 329 197 329 c 0,46,47
 174 329 174 329 157 320 c 1,48,-1
 152 328 l 1,49,50
 172 340 172 340 196.5 340 c 128,-1,51
 221 340 221 340 236 333 c 1,52,-1
 236 646 l 1,53,54
 148 599 148 599 96 496.5 c 128,-1,55
 44 394 44 394 44 290 c 0,56,57
 44 20 44 20 276 -1 c 1,58,-1
 276 237 l 2,44,45
EndSplineSet
EndChar

StartChar: D
Encoding: 68 68 39
Width: 734
GlyphClass: 2
Flags: W
LayerCount: 2
Fore
SplineSet
290 655 m 1,0,1
 404 663 404 663 449 663 c 128,-1,2
 494 663 494 663 533 646 c 128,-1,3
 572 629 572 629 596.5 601 c 128,-1,4
 621 573 621 573 636 530 c 0,5,6
 663 454 663 454 663 338 c 128,-1,7
 663 222 663 222 614.5 123 c 128,-1,8
 566 24 566 24 469 -13 c 1,9,10
 376 -13 376 -13 290 34 c 1,11,-1
 290 655 l 1,0,1
264 107 m 2,12,13
 264 47 264 47 242 17.5 c 128,-1,14
 220 -12 220 -12 167 -12 c 0,15,16
 140 -12 140 -12 122 -6 c 1,17,-1
 124 4 l 1,18,19
 146 -1 146 -1 164 -1 c 0,20,21
 214 -1 214 -1 232 25 c 128,-1,22
 250 51 250 51 250 107 c 2,23,-1
 250 408 l 1,24,25
 243 407 243 407 230 407 c 0,26,27
 170 407 170 407 133 445 c 128,-1,28
 96 483 96 483 96 546 c 128,-1,29
 96 609 96 609 162 633 c 0,30,31
 174 637 174 637 184 640 c 1,32,-1
 184 642 l 1,33,-1
 161 638 l 1,34,35
 65 640 65 640 0.5 676.5 c 128,-1,36
 -64 713 -64 713 -72 792 c 1,37,-1
 -60 794 l 1,38,39
 -44 650 -44 650 188 650 c 0,40,41
 221 650 221 650 264 653 c 1,42,-1
 264 107 l 2,12,13
443 651 m 0,43,44
 418 651 418 651 304 644 c 1,45,-1
 304 42 l 1,46,47
 388 -1 388 -1 466 -1 c 1,48,49
 528 23 528 23 571 80 c 0,50,51
 649 183 649 183 649 341 c 0,52,53
 649 568 649 568 545 627 c 0,54,55
 503 651 503 651 443 651 c 0,43,44
230 419 m 0,56,57
 244 419 244 419 250 420 c 1,58,-1
 250 640 l 1,59,60
 194 636 194 636 168 625 c 0,61,62
 110 602 110 602 110 545.5 c 128,-1,63
 110 489 110 489 143 454 c 128,-1,64
 176 419 176 419 230 419 c 0,56,57
EndSplineSet
EndChar

StartChar: E
Encoding: 69 69 40
Width: 549
GlyphClass: 2
Flags: W
LayerCount: 2
Fore
SplineSet
438 609.5 m 128,-1,1
 459 583 459 583 459 553.5 c 128,-1,2
 459 524 459 524 448 512 c 1,3,-1
 440 518 l 1,4,5
 446 532 446 532 446 551 c 0,6,7
 446 593 446 593 412.5 618.5 c 128,-1,8
 379 644 379 644 327 644 c 0,9,10
 321 644 321 644 315 644 c 2,11,-1
 189 637 l 1,12,-1
 189 340 l 1,13,-1
 313 340 l 2,14,15
 385 340 385 340 385 381 c 0,16,17
 385 392 385 392 380 402 c 1,18,-1
 390 407 l 1,19,20
 398 397 398 397 398 379.5 c 128,-1,21
 398 362 398 362 384.5 349 c 128,-1,22
 371 336 371 336 352 333 c 1,23,24
 391 320 391 320 399 259 c 1,25,-1
 387 256 l 1,26,27
 380 295 380 295 364 311.5 c 128,-1,28
 348 328 348 328 312 328 c 2,29,-1
 189 328 l 1,30,-1
 189 42 l 1,31,32
 273 -1 273 -1 342.5 -1 c 128,-1,33
 412 -1 412 -1 439.5 21 c 128,-1,34
 467 43 467 43 467 99 c 0,35,36
 467 117 467 117 462 132 c 1,37,-1
 473 137 l 1,38,39
 480 120 480 120 480 99 c 0,40,41
 480 39 480 39 449 13 c 128,-1,42
 418 -13 418 -13 354 -13 c 0,43,44
 261 -13 261 -13 175 34 c 1,45,-1
 175 648 l 1,46,-1
 322 656 l 1,47,48
 426 660 426 660 502 696 c 0,49,50
 542 715 542 715 565 748.5 c 128,-1,51
 588 782 588 782 588 828 c 1,52,-1
 600 827 l 1,53,54
 600 747 600 747 540 704.5 c 128,-1,55
 480 662 480 662 384 650 c 0,56,57
 377 650 377 650 361 651 c 1,58,-1
 361 649 l 1,59,60
 375 647 375 647 384 645 c 0,61,0
 417 636 417 636 438 609.5 c 128,-1,1
149 605 m 2,62,-1
 149 107 l 2,63,64
 149 47 149 47 127 17.5 c 128,-1,65
 105 -12 105 -12 52 -12 c 0,66,67
 25 -12 25 -12 7 -6 c 1,68,-1
 9 4 l 1,69,70
 31 -1 31 -1 49 -1 c 0,71,72
 99 -1 99 -1 117 25 c 128,-1,73
 135 51 135 51 135 107 c 2,74,-1
 135 605 l 2,75,76
 135 661 135 661 117 687 c 128,-1,77
 99 713 99 713 49 713 c 0,78,79
 31 713 31 713 9 708 c 1,80,-1
 7 718 l 1,81,82
 25 724 25 724 52 724 c 0,83,84
 105 724 105 724 127 694.5 c 128,-1,85
 149 665 149 665 149 605 c 2,62,-1
EndSplineSet
EndChar

StartChar: F
Encoding: 70 70 41
Width: 468
GlyphClass: 2
Flags: W
LayerCount: 2
Fore
SplineSet
175 107 m 2,0,-1
 175 648 l 1,1,-1
 322 656 l 1,2,3
 426 660 426 660 502 696 c 0,4,5
 542 715 542 715 565 748.5 c 128,-1,6
 588 782 588 782 588 828 c 1,7,-1
 600 827 l 1,8,9
 600 747 600 747 540 704.5 c 128,-1,10
 480 662 480 662 384 650 c 0,11,12
 377 650 377 650 361 651 c 1,13,-1
 361 649 l 1,14,15
 375 647 375 647 384 645 c 0,16,17
 417 636 417 636 438 609.5 c 128,-1,18
 459 583 459 583 459 553.5 c 128,-1,19
 459 524 459 524 448 512 c 1,20,-1
 440 518 l 1,21,22
 446 532 446 532 446 551 c 0,23,24
 446 593 446 593 412.5 618.5 c 128,-1,25
 379 644 379 644 327 644 c 0,26,27
 321 644 321 644 315 644 c 2,28,-1
 189 637 l 1,29,-1
 189 340 l 1,30,-1
 313 340 l 2,31,32
 385 340 385 340 385 381 c 0,33,34
 385 392 385 392 380 402 c 1,35,-1
 390 407 l 1,36,37
 398 397 398 397 398 379.5 c 128,-1,38
 398 362 398 362 384.5 349 c 128,-1,39
 371 336 371 336 352 333 c 1,40,41
 391 320 391 320 399 259 c 1,42,-1
 387 256 l 1,43,44
 380 295 380 295 364 311.5 c 128,-1,45
 348 328 348 328 312 328 c 2,46,-1
 189 328 l 1,47,-1
 189 107 l 2,48,49
 189 51 189 51 207 25 c 128,-1,50
 225 -1 225 -1 275 -1 c 0,51,52
 293 -1 293 -1 315 4 c 1,53,-1
 317 -6 l 1,54,55
 299 -12 299 -12 272 -12 c 0,56,57
 219 -12 219 -12 197 17.5 c 128,-1,58
 175 47 175 47 175 107 c 2,0,-1
149 605 m 2,59,-1
 149 107 l 2,60,61
 149 47 149 47 127 17.5 c 128,-1,62
 105 -12 105 -12 52 -12 c 0,63,64
 25 -12 25 -12 7 -6 c 1,65,-1
 9 4 l 1,66,67
 31 -1 31 -1 49 -1 c 0,68,69
 99 -1 99 -1 117 25 c 128,-1,70
 135 51 135 51 135 107 c 2,71,-1
 135 605 l 2,72,73
 135 661 135 661 117 687 c 128,-1,74
 99 713 99 713 49 713 c 0,75,76
 31 713 31 713 9 708 c 1,77,-1
 7 718 l 1,78,79
 25 724 25 724 52 724 c 0,80,81
 105 724 105 724 127 694.5 c 128,-1,82
 149 665 149 665 149 605 c 2,59,-1
EndSplineSet
EndChar

StartChar: G
Encoding: 71 71 42
Width: 531
GlyphClass: 2
Flags: W
LayerCount: 2
Fore
SplineSet
30 290 m 0,0,1
 30 402 30 402 90 512 c 128,-1,2
 150 622 150 622 248 666 c 1,3,-1
 253 666 l 2,4,5
 366 666 366 666 398 641 c 0,6,7
 433 615 433 615 433 568.5 c 128,-1,8
 433 522 433 522 411.5 496.5 c 128,-1,9
 390 471 390 471 355.5 471 c 128,-1,10
 321 471 321 471 301 491.5 c 128,-1,11
 281 512 281 512 281 545 c 0,12,13
 281 557 281 557 286 569 c 1,14,-1
 297 565 l 1,15,16
 294 554 294 554 294 545 c 0,17,18
 294 517 294 517 310.5 500 c 128,-1,19
 327 483 327 483 356 483 c 128,-1,20
 385 483 385 483 402 505 c 128,-1,21
 419 527 419 527 419 556.5 c 128,-1,22
 419 586 419 586 410 604.5 c 128,-1,23
 401 623 401 623 388.5 632.5 c 128,-1,24
 376 642 376 642 352 647 c 0,25,26
 318 654 318 654 256 654 c 2,27,-1
 251 654 l 1,28,29
 158 610 158 610 101 505 c 128,-1,30
 44 400 44 400 44 290 c 0,31,32
 44 17 44 17 280 -1 c 1,33,34
 318 4 318 4 348 18 c 1,35,-1
 348 211 l 2,36,37
 348 267 348 267 330 293 c 128,-1,38
 312 319 312 319 262 319 c 0,39,40
 244 319 244 319 222 314 c 1,41,-1
 220 324 l 1,42,43
 238 330 238 330 265 330 c 0,44,45
 318 330 318 330 340 300.5 c 128,-1,46
 362 271 362 271 362 211 c 2,47,-1
 362 11 l 1,48,49
 320 -9 320 -9 280 -14 c 1,50,51
 30 6 30 6 30 290 c 0,0,1
402 211 m 2,52,-1
 402 35 l 2,53,54
 402 -48 402 -48 366 -109.5 c 128,-1,55
 330 -171 330 -171 258 -200 c 1,56,57
 184 -200 184 -200 121 -179 c 1,58,-1
 124 -167 l 1,59,60
 184 -188 184 -188 254 -188 c 1,61,62
 388 -134 388 -134 388 35 c 2,63,-1
 388 211 l 2,64,65
 388 271 388 271 410 300.5 c 128,-1,66
 432 330 432 330 485 330 c 0,67,68
 512 330 512 330 530 324 c 1,69,-1
 528 314 l 1,70,71
 506 319 506 319 488 319 c 0,72,73
 438 319 438 319 420 293 c 128,-1,74
 402 267 402 267 402 211 c 2,52,-1
EndSplineSet
EndChar

StartChar: H
Encoding: 72 72 43
Width: 701
GlyphClass: 2
Flags: W
LayerCount: 2
Fore
SplineSet
169 544 m 2,0,-1
 169 340 l 1,1,-1
 512 340 l 1,2,-1
 512 544 l 2,3,4
 512 600 512 600 494 626 c 128,-1,5
 476 652 476 652 426 652 c 0,6,7
 408 652 408 652 386 647 c 1,8,-1
 384 657 l 1,9,10
 402 663 402 663 429 663 c 0,11,12
 482 663 482 663 504 633.5 c 128,-1,13
 526 604 526 604 526 544 c 2,14,-1
 526 107 l 2,15,16
 526 47 526 47 504 17.5 c 128,-1,17
 482 -12 482 -12 429 -12 c 0,18,19
 402 -12 402 -12 384 -6 c 1,20,-1
 386 4 l 1,21,22
 408 -1 408 -1 426 -1 c 0,23,24
 476 -1 476 -1 494 25 c 128,-1,25
 512 51 512 51 512 107 c 2,26,-1
 512 328 l 1,27,-1
 169 328 l 1,28,-1
 169 107 l 2,29,30
 169 49 169 49 187.5 24 c 128,-1,31
 206 -1 206 -1 255 -1 c 0,32,33
 273 -1 273 -1 295 4 c 1,34,-1
 297 -6 l 1,35,36
 279 -12 279 -12 252 -12 c 0,37,38
 174 -12 174 -12 162 54 c 1,39,40
 149 -12 149 -12 72 -12 c 0,41,42
 45 -12 45 -12 27 -6 c 1,43,-1
 29 4 l 1,44,45
 51 -1 51 -1 69 -1 c 0,46,47
 119 -1 119 -1 137 25 c 128,-1,48
 155 51 155 51 155 107 c 2,49,-1
 155 544 l 2,50,51
 155 600 155 600 137 626 c 128,-1,52
 119 652 119 652 69 652 c 0,53,54
 51 652 51 652 29 647 c 1,55,-1
 27 657 l 1,56,57
 45 663 45 663 72 663 c 0,58,59
 149 663 149 663 162 597 c 1,60,61
 174 663 174 663 252 663 c 0,62,63
 279 663 279 663 297 657 c 1,64,-1
 295 647 l 1,65,66
 273 652 273 652 255 652 c 0,67,68
 206 652 206 652 187.5 627 c 128,-1,69
 169 602 169 602 169 544 c 2,0,-1
566 544 m 2,70,-1
 566 107 l 2,71,72
 566 51 566 51 584 25 c 128,-1,73
 602 -1 602 -1 652 -1 c 0,74,75
 670 -1 670 -1 692 4 c 1,76,-1
 694 -6 l 1,77,78
 676 -12 676 -12 649 -12 c 0,79,80
 596 -12 596 -12 574 17.5 c 128,-1,81
 552 47 552 47 552 107 c 2,82,-1
 552 544 l 2,83,84
 552 604 552 604 574 633.5 c 128,-1,85
 596 663 596 663 649 663 c 0,86,87
 676 663 676 663 694 657 c 1,88,-1
 692 647 l 1,89,90
 670 652 670 652 652 652 c 0,91,92
 602 652 602 652 584 626 c 128,-1,93
 566 600 566 600 566 544 c 2,70,-1
EndSplineSet
EndChar

StartChar: I
Encoding: 73 73 44
Width: 358
GlyphClass: 2
Flags: W
LayerCount: 2
Fore
SplineSet
169 107 m 2,0,-1
 169 638 l 1,1,-1
 138 640 l 2,2,3
 134 640 134 640 130 640 c 0,4,5
 82 640 82 640 48 617 c 128,-1,6
 14 594 14 594 14 547 c 0,7,8
 14 528 14 528 20 514 c 1,9,-1
 12 508 l 1,10,11
 1 520 1 520 1 549.5 c 128,-1,12
 1 579 1 579 22 606 c 128,-1,13
 43 633 43 633 76 642 c 0,14,15
 77 642 77 642 99 645 c 1,16,-1
 99 647 l 1,17,-1
 76 646 l 1,18,19
 -20 658 -20 658 -80 700.5 c 128,-1,20
 -140 743 -140 743 -140 823 c 1,21,-1
 -128 824 l 1,22,23
 -128 778 -128 778 -105 744.5 c 128,-1,24
 -82 711 -82 711 -42 692 c 0,25,26
 32 658 32 658 138 652 c 1,27,-1
 183 649 l 1,28,-1
 183 107 l 2,29,30
 183 47 183 47 161 17.5 c 128,-1,31
 139 -12 139 -12 86 -12 c 0,32,33
 59 -12 59 -12 41 -6 c 1,34,-1
 43 4 l 1,35,36
 65 -1 65 -1 83 -1 c 0,37,38
 133 -1 133 -1 151 25 c 128,-1,39
 169 51 169 51 169 107 c 2,0,-1
209 107 m 2,40,-1
 209 605 l 2,41,42
 209 665 209 665 231 694.5 c 128,-1,43
 253 724 253 724 306 724 c 0,44,45
 333 724 333 724 351 718 c 1,46,-1
 349 708 l 1,47,48
 327 713 327 713 309 713 c 0,49,50
 259 713 259 713 241 687 c 128,-1,51
 223 661 223 661 223 605 c 2,52,-1
 223 107 l 2,53,54
 223 51 223 51 241 25 c 128,-1,55
 259 -1 259 -1 309 -1 c 0,56,57
 327 -1 327 -1 349 4 c 1,58,-1
 351 -6 l 1,59,60
 333 -12 333 -12 306 -12 c 0,61,62
 253 -12 253 -12 231 17.5 c 128,-1,63
 209 47 209 47 209 107 c 2,40,-1
EndSplineSet
EndChar

StartChar: J
Encoding: 74 74 45
Width: 408
GlyphClass: 2
Flags: W
LayerCount: 2
Fore
SplineSet
140 480 m 0,0,1
 196 480 196 480 214 436 c 1,2,-1
 220 414 l 1,3,-1
 222 415 l 1,4,-1
 217 437 l 1,5,-1
 216 638 l 1,6,-1
 138 642 l 2,7,8
 134 642 134 642 130 642 c 0,9,10
 82 642 82 642 48 619 c 128,-1,11
 14 596 14 596 14 549 c 0,12,13
 14 530 14 530 20 516 c 1,14,-1
 12 510 l 1,15,16
 1 522 1 522 1 551.5 c 128,-1,17
 1 581 1 581 22 608 c 128,-1,18
 43 635 43 635 76 644 c 0,19,20
 77 644 77 644 99 647 c 1,21,-1
 99 649 l 1,22,-1
 76 648 l 1,23,24
 -20 660 -20 660 -80 702.5 c 128,-1,25
 -140 745 -140 745 -140 825 c 1,26,-1
 -128 826 l 1,27,28
 -128 780 -128 780 -105 746.5 c 128,-1,29
 -82 713 -82 713 -42 694 c 0,30,31
 32 660 32 660 138 654 c 2,32,-1
 230 649 l 1,33,-1
 230 185 l 2,34,35
 230 46 230 46 184 -40 c 128,-1,36
 138 -126 138 -126 22 -184 c 1,37,-1
 16 -174 l 1,38,39
 127 -119 127 -119 171.5 -34.5 c 128,-1,40
 216 50 216 50 216 185 c 2,41,-1
 216 377 l 2,42,43
 216 469 216 469 137 469 c 0,44,45
 114 469 114 469 97 460 c 1,46,-1
 92 468 l 1,47,48
 112 480 112 480 140 480 c 0,0,1
256 107 m 2,49,-1
 256 605 l 2,50,51
 256 665 256 665 278 694.5 c 128,-1,52
 300 724 300 724 353 724 c 0,53,54
 380 724 380 724 398 718 c 1,55,-1
 396 708 l 1,56,57
 374 713 374 713 356 713 c 0,58,59
 306 713 306 713 288 687 c 128,-1,60
 270 661 270 661 270 605 c 2,61,-1
 270 107 l 2,62,63
 270 51 270 51 288 25 c 128,-1,64
 306 -1 306 -1 356 -1 c 0,65,66
 374 -1 374 -1 396 4 c 1,67,-1
 398 -6 l 1,68,69
 380 -12 380 -12 353 -12 c 0,70,71
 300 -12 300 -12 278 17.5 c 128,-1,72
 256 47 256 47 256 107 c 2,49,-1
EndSplineSet
EndChar

StartChar: K
Encoding: 75 75 46
Width: 580
GlyphClass: 2
Flags: W
LayerCount: 2
Fore
SplineSet
645 649 m 1,0,1
 627 652 627 652 610.5 652 c 128,-1,2
 594 652 594 652 576.5 646.5 c 128,-1,3
 559 641 559 641 546 634.5 c 128,-1,4
 533 628 533 628 518.5 612 c 128,-1,5
 504 596 504 596 495.5 586 c 128,-1,6
 487 576 487 576 474 552.5 c 128,-1,7
 461 529 461 529 455.5 518.5 c 128,-1,8
 450 508 450 508 436 480 c 0,9,10
 365 335 365 335 335 302 c 1,11,12
 350 280 350 280 371 240 c 2,13,-1
 438 108 l 2,14,15
 479 29 479 29 504.5 -12 c 128,-1,16
 530 -53 530 -53 567.5 -90 c 128,-1,17
 605 -127 605 -127 650 -141 c 128,-1,18
 695 -155 695 -155 760 -155 c 1,19,-1
 760 -166 l 1,20,21
 694 -166 694 -166 648.5 -153 c 128,-1,22
 603 -140 603 -140 564 -104.5 c 128,-1,23
 525 -69 525 -69 496 -24 c 128,-1,24
 467 21 467 21 426 102 c 2,25,-1
 359 234 l 1,26,27
 334 280 334 280 326 293 c 1,28,29
 298 267 298 267 270 267 c 128,-1,30
 242 267 242 267 224 282 c 128,-1,31
 206 297 206 297 206 317.5 c 128,-1,32
 206 338 206 338 219.5 350 c 128,-1,33
 233 362 233 362 252 362 c 0,34,35
 293 362 293 362 329 312 c 1,36,37
 345 330 345 330 358.5 355.5 c 128,-1,38
 372 381 372 381 386 409.5 c 128,-1,39
 400 438 400 438 405.5 448 c 128,-1,40
 411 458 411 458 424.5 486 c 128,-1,41
 438 514 438 514 444.5 526 c 128,-1,42
 451 538 451 538 464.5 561.5 c 128,-1,43
 478 585 478 585 487 596 c 128,-1,44
 496 607 496 607 511.5 623 c 128,-1,45
 527 639 527 639 541 646 c 0,46,47
 577 664 577 664 604 664 c 128,-1,48
 631 664 631 664 647 660 c 1,49,-1
 645 649 l 1,0,1
234 291 m 128,-1,51
 248 279 248 279 271 279 c 128,-1,52
 294 279 294 279 320 303 c 1,53,54
 287 350 287 350 252 350 c 0,55,56
 238 350 238 350 229 341.5 c 128,-1,57
 220 333 220 333 220 318 c 128,-1,50
 220 303 220 303 234 291 c 128,-1,51
135 107 m 2,58,-1
 135 544 l 2,59,60
 135 600 135 600 117 626 c 128,-1,61
 99 652 99 652 49 652 c 0,62,63
 31 652 31 652 9 647 c 1,64,-1
 7 657 l 1,65,66
 25 663 25 663 52 663 c 0,67,68
 105 663 105 663 127 633.5 c 128,-1,69
 149 604 149 604 149 544 c 2,70,-1
 149 107 l 2,71,72
 149 47 149 47 127 17.5 c 128,-1,73
 105 -12 105 -12 52 -12 c 0,74,75
 25 -12 25 -12 7 -6 c 1,76,-1
 9 4 l 1,77,78
 31 -1 31 -1 49 -1 c 0,79,80
 99 -1 99 -1 117 25 c 128,-1,81
 135 51 135 51 135 107 c 2,58,-1
189 544 m 2,82,-1
 189 107 l 2,83,84
 189 51 189 51 207 25 c 128,-1,85
 225 -1 225 -1 275 -1 c 0,86,87
 293 -1 293 -1 315 4 c 1,88,-1
 317 -6 l 1,89,90
 299 -12 299 -12 272 -12 c 0,91,92
 219 -12 219 -12 197 17.5 c 128,-1,93
 175 47 175 47 175 107 c 2,94,-1
 175 544 l 2,95,96
 175 604 175 604 197 633.5 c 128,-1,97
 219 663 219 663 272 663 c 0,98,99
 299 663 299 663 317 657 c 1,100,-1
 315 647 l 1,101,102
 293 652 293 652 275 652 c 0,103,104
 225 652 225 652 207 626 c 128,-1,105
 189 600 189 600 189 544 c 2,82,-1
EndSplineSet
EndChar

StartChar: L
Encoding: 76 76 47
Width: 463
GlyphClass: 2
Flags: W
LayerCount: 2
Fore
SplineSet
169 107 m 2,0,-1
 169 638 l 1,1,-1
 138 640 l 2,2,3
 134 640 134 640 130 640 c 0,4,5
 82 640 82 640 48 617 c 128,-1,6
 14 594 14 594 14 547 c 0,7,8
 14 528 14 528 20 514 c 1,9,-1
 12 508 l 1,10,11
 1 520 1 520 1 549.5 c 128,-1,12
 1 579 1 579 22 606 c 128,-1,13
 43 633 43 633 76 642 c 0,14,15
 77 642 77 642 99 645 c 1,16,-1
 99 647 l 1,17,-1
 76 646 l 1,18,19
 -20 658 -20 658 -80 700.5 c 128,-1,20
 -140 743 -140 743 -140 823 c 1,21,-1
 -128 824 l 1,22,23
 -128 778 -128 778 -105 744.5 c 128,-1,24
 -82 711 -82 711 -42 692 c 0,25,26
 32 658 32 658 138 652 c 1,27,-1
 183 649 l 1,28,-1
 183 107 l 2,29,30
 183 47 183 47 161 17.5 c 128,-1,31
 139 -12 139 -12 86 -12 c 0,32,33
 59 -12 59 -12 41 -6 c 1,34,-1
 43 4 l 1,35,36
 65 -1 65 -1 83 -1 c 0,37,38
 133 -1 133 -1 151 25 c 128,-1,39
 169 51 169 51 169 107 c 2,0,-1
223 605 m 2,40,-1
 223 42 l 1,41,42
 307 -1 307 -1 376.5 -1 c 128,-1,43
 446 -1 446 -1 473.5 21 c 128,-1,44
 501 43 501 43 501 99 c 0,45,46
 501 117 501 117 496 132 c 1,47,-1
 507 137 l 1,48,49
 514 120 514 120 514 99 c 0,50,51
 514 39 514 39 483 13 c 128,-1,52
 452 -13 452 -13 388 -13 c 0,53,54
 295 -13 295 -13 209 34 c 1,55,-1
 209 605 l 2,56,57
 209 665 209 665 231 694.5 c 128,-1,58
 253 724 253 724 306 724 c 0,59,60
 333 724 333 724 351 718 c 1,61,-1
 349 708 l 1,62,63
 327 713 327 713 309 713 c 0,64,65
 259 713 259 713 241 687 c 128,-1,66
 223 661 223 661 223 605 c 2,40,-1
EndSplineSet
EndChar

StartChar: M
Encoding: 77 77 48
Width: 961
GlyphClass: 2
Flags: W
LayerCount: 2
Fore
SplineSet
66 179 m 0,0,1
 47 148 47 148 47 103.5 c 128,-1,2
 47 59 47 59 75 29 c 128,-1,3
 103 -1 103 -1 140 -1 c 128,-1,4
 177 -1 177 -1 199 12.5 c 128,-1,5
 221 26 221 26 236 53 c 0,6,7
 258 95 258 95 273 168 c 2,8,-1
 291 254 l 1,9,10
 114 254 114 254 66 179 c 0,0,1
782 107 m 2,11,12
 782 47 782 47 760 17.5 c 128,-1,13
 738 -12 738 -12 685 -12 c 0,14,15
 658 -12 658 -12 640 -6 c 1,16,-1
 642 4 l 1,17,18
 664 -1 664 -1 682 -1 c 0,19,20
 732 -1 732 -1 750 25 c 128,-1,21
 768 51 768 51 768 107 c 2,22,-1
 768 603 l 2,23,24
 768 608 768 608 771 626 c 1,25,-1
 769 626 l 1,26,27
 768 624 768 624 766 614.5 c 128,-1,28
 764 605 764 605 762 600 c 2,29,-1
 699 441 l 1,30,-1
 526 26 l 1,31,-1
 509 23 l 1,32,33
 512 36 512 36 512 56 c 0,34,35
 512 148 512 148 454 329 c 2,36,-1
 423 426 l 2,37,38
 386 543 386 543 376 592 c 1,39,-1
 270 85 l 1,40,41
 246 -22 246 -22 206 -86 c 1,42,43
 158 -160 158 -160 62 -160 c 1,44,-1
 62 -148 l 1,45,46
 137 -148 137 -148 179 -97.5 c 128,-1,47
 221 -47 221 -47 246 41 c 1,48,-1
 256 62 l 1,49,-1
 254 63 l 1,50,51
 220 -13 220 -13 146 -13 c 0,52,53
 97 -13 97 -13 65 20 c 128,-1,54
 33 53 33 53 33 103 c 0,55,56
 33 266 33 266 294 266 c 1,57,-1
 373 643 l 1,58,-1
 335 645 l 2,59,60
 329 645 329 645 323 645 c 0,61,62
 271 645 271 645 237.5 619.5 c 128,-1,63
 204 594 204 594 204 552 c 0,64,65
 204 532 204 532 210 519 c 1,66,-1
 202 513 l 1,67,68
 191 525 191 525 191 554.5 c 128,-1,69
 191 584 191 584 212 610.5 c 128,-1,70
 233 637 233 637 266 646 c 0,71,72
 275 648 275 648 289 650 c 1,73,-1
 289 652 l 1,74,-1
 266 651 l 1,75,76
 170 663 170 663 110 705.5 c 128,-1,77
 50 748 50 748 50 828 c 1,78,-1
 62 829 l 1,79,80
 62 783 62 783 85 749.5 c 128,-1,81
 108 716 108 716 148 697 c 0,82,83
 224 661 224 661 328 657 c 1,84,-1
 386 654 l 1,85,-1
 386 634 l 2,86,87
 386 592 386 592 437 430 c 2,88,-1
 468 333 l 2,89,90
 525 155 525 155 525 59 c 2,91,-1
 525 55 l 1,92,-1
 536 81 l 2,93,94
 542 95 542 95 542 126 c 0,95,96
 542 206 542 206 481 397 c 2,97,-1
 450 494 l 1,98,99
 403 634 403 634 407 653 c 1,100,-1
 420 653 l 1,101,102
 420 637 420 637 464 498 c 2,103,-1
 495 401 l 2,104,105
 554 216 554 216 554 130 c 2,106,-1
 554 126 l 1,107,-1
 687 445 l 1,108,109
 756 615 756 615 770 662 c 1,110,-1
 782 661 l 1,111,-1
 782 107 l 2,11,12
808 107 m 2,112,-1
 808 637 l 2,113,114
 808 697 808 697 830 726.5 c 128,-1,115
 852 756 852 756 905 756 c 0,116,117
 932 756 932 756 950 750 c 1,118,-1
 948 740 l 1,119,120
 926 745 926 745 908 745 c 0,121,122
 858 745 858 745 840 719 c 128,-1,123
 822 693 822 693 822 637 c 2,124,-1
 822 107 l 2,125,126
 822 51 822 51 840 25 c 128,-1,127
 858 -1 858 -1 908 -1 c 0,128,129
 926 -1 926 -1 948 4 c 1,130,-1
 950 -6 l 1,131,132
 932 -12 932 -12 905 -12 c 0,133,134
 852 -12 852 -12 830 17.5 c 128,-1,135
 808 47 808 47 808 107 c 2,112,-1
EndSplineSet
EndChar

StartChar: N
Encoding: 78 78 49
Width: 701
GlyphClass: 2
Flags: W
LayerCount: 2
Fore
SplineSet
169 601 m 2,0,1
 127 653 127 653 76 653 c 0,2,3
 51 653 51 653 29 648 c 1,4,-1
 27 658 l 1,5,6
 45 664 45 664 72 664 c 0,7,8
 133 664 133 664 178 610 c 2,9,-1
 465 257 l 2,10,11
 531 175 531 175 552 109 c 1,12,-1
 552 545 l 2,13,14
 552 603 552 603 533.5 628 c 128,-1,15
 515 653 515 653 466 653 c 0,16,17
 448 653 448 653 426 648 c 1,18,-1
 424 658 l 1,19,20
 442 664 442 664 469 664 c 0,21,22
 547 664 547 664 559 598 c 1,23,24
 572 664 572 664 649 664 c 0,25,26
 676 664 676 664 694 658 c 1,27,-1
 692 648 l 1,28,29
 670 653 670 653 652 653 c 0,30,31
 602 653 602 653 584 627 c 128,-1,32
 566 601 566 601 566 545 c 2,33,-1
 566 1 l 1,34,-1
 549 -2 l 1,35,36
 514 102 514 102 446 186 c 2,37,-1
 174 523 l 1,38,-1
 166 543 l 1,39,-1
 164 543 l 1,40,41
 169 528 169 528 169 520 c 2,42,-1
 169 108 l 2,43,44
 169 50 169 50 187.5 25 c 128,-1,45
 206 0 206 0 255 0 c 0,46,47
 273 0 273 0 295 5 c 1,48,-1
 297 -5 l 1,49,50
 279 -11 279 -11 252 -11 c 0,51,52
 174 -11 174 -11 162 55 c 1,53,54
 149 -11 149 -11 72 -11 c 0,55,56
 45 -11 45 -11 27 -5 c 1,57,-1
 29 5 l 1,58,59
 51 0 51 0 69 0 c 0,60,61
 119 0 119 0 137 26 c 128,-1,62
 155 52 155 52 155 108 c 2,63,-1
 155 564 l 1,64,-1
 158 565 l 1,65,-1
 455 196 l 2,66,67
 522 114 522 114 552 25 c 1,68,-1
 552 62 l 1,69,70
 545 137 545 137 455 248 c 2,71,-1
 169 601 l 2,0,1
EndSplineSet
EndChar

StartChar: O
Encoding: 79 79 50
Width: 615
GlyphClass: 2
Flags: W
LayerCount: 2
Fore
SplineSet
71 327 m 0,0,1
 71 505 71 505 185 644 c 1,2,-1
 195 637 l 1,3,4
 85 504 85 504 85 327 c 0,5,6
 85 82 85 82 230 18 c 1,7,-1
 230 410 l 1,8,9
 185 458 185 458 185 524 c 128,-1,10
 185 590 185 590 224.5 628 c 128,-1,11
 264 666 264 666 324.5 666 c 128,-1,12
 385 666 385 666 429 639.5 c 128,-1,13
 473 613 473 613 498 566 c 1,14,15
 544 475 544 475 544 341 c 0,16,17
 544 136 544 136 432 -5 c 1,18,19
 383 -15 383 -15 342.5 -15 c 128,-1,20
 302 -15 302 -15 270 -8 c 1,21,-1
 270 379 l 1,22,23
 257 385 257 385 244 397 c 1,24,-1
 244 -1 l 1,25,26
 71 56 71 56 71 327 c 0,0,1
338 362 m 0,27,28
 311 362 311 362 284 372 c 1,29,-1
 284 1 l 1,30,31
 320 -3 320 -3 352 -3 c 128,-1,32
 384 -3 384 -3 424 5 c 1,33,34
 474 71 474 71 502 159 c 128,-1,35
 530 247 530 247 530 325.5 c 128,-1,36
 530 404 530 404 519.5 457 c 128,-1,37
 509 510 509 510 486.5 556 c 128,-1,38
 464 602 464 602 423 628 c 128,-1,39
 382 654 382 654 325.5 654 c 128,-1,40
 269 654 269 654 234 620 c 128,-1,41
 199 586 199 586 199 526 c 128,-1,42
 199 466 199 466 238.5 420 c 128,-1,43
 278 374 278 374 338 374 c 0,44,45
 380 374 380 374 405.5 399 c 128,-1,46
 431 424 431 424 431 466 c 1,47,-1
 445 466 l 1,48,49
 445 420 445 420 415 391 c 128,-1,50
 385 362 385 362 338 362 c 0,27,28
EndSplineSet
EndChar

StartChar: P
Encoding: 80 80 51
Width: 564
GlyphClass: 2
Flags: W
LayerCount: 2
Fore
SplineSet
196 107 m 2,0,1
 196 47 196 47 174 17.5 c 128,-1,2
 152 -12 152 -12 99 -12 c 0,3,4
 72 -12 72 -12 54 -6 c 1,5,-1
 56 4 l 1,6,7
 78 -1 78 -1 96 -1 c 0,8,9
 146 -1 146 -1 164 25 c 128,-1,10
 182 51 182 51 182 107 c 2,11,-1
 182 640 l 1,12,13
 126 636 126 636 100 625 c 0,14,15
 41 600 41 600 41 544 c 0,16,17
 41 520 41 520 51 501 c 1,18,-1
 43 495 l 1,19,20
 28 512 28 512 28 543 c 0,21,22
 28 609 28 609 94 633 c 0,23,24
 106 637 106 637 116 640 c 1,25,-1
 116 642 l 1,26,-1
 93 638 l 1,27,28
 -3 640 -3 640 -67.5 676.5 c 128,-1,29
 -132 713 -132 713 -140 792 c 1,30,-1
 -128 794 l 1,31,32
 -112 650 -112 650 120 650 c 0,33,34
 152 650 152 650 196 653 c 1,35,-1
 196 107 l 2,0,1
222 107 m 2,36,-1
 222 655 l 1,37,38
 336 663 336 663 374 663 c 0,39,40
 468 663 468 663 512.5 628.5 c 128,-1,41
 557 594 557 594 557 510.5 c 128,-1,42
 557 427 557 427 506 375 c 128,-1,43
 455 323 455 323 375.5 323 c 128,-1,44
 296 323 296 323 296 379 c 0,45,46
 296 402 296 402 312.5 416.5 c 128,-1,47
 329 431 329 431 353 433 c 1,48,-1
 355 423 l 1,49,50
 335 421 335 421 322.5 409.5 c 128,-1,51
 310 398 310 398 310 379 c 0,52,53
 310 334 310 334 380 334 c 128,-1,54
 450 334 450 334 496.5 383 c 128,-1,55
 543 432 543 432 543 510 c 128,-1,56
 543 588 543 588 502 619.5 c 128,-1,57
 461 651 461 651 375 651 c 0,58,59
 350 651 350 651 236 644 c 1,60,-1
 236 107 l 2,61,62
 236 51 236 51 254 25 c 128,-1,63
 272 -1 272 -1 322 -1 c 0,64,65
 340 -1 340 -1 362 4 c 1,66,-1
 364 -6 l 1,67,68
 346 -12 346 -12 319 -12 c 0,69,70
 266 -12 266 -12 244 17.5 c 128,-1,71
 222 47 222 47 222 107 c 2,36,-1
EndSplineSet
EndChar

StartChar: Q
Encoding: 81 81 52
Width: 615
GlyphClass: 2
Flags: W
LayerCount: 2
Fore
SplineSet
244 0 m 1,0,1
 229 4 229 4 202.5 4 c 128,-1,2
 176 4 176 4 156 -12 c 1,3,-1
 147 -4 l 1,4,5
 170 14 170 14 203 14 c 0,6,7
 207 14 207 14 210 14 c 1,8,9
 71 86 71 86 71 327 c 0,10,11
 71 505 71 505 185 644 c 1,12,-1
 195 637 l 1,13,14
 85 504 85 504 85 327 c 0,15,16
 85 82 85 82 230 18 c 1,17,-1
 230 410 l 1,18,19
 185 458 185 458 185 524 c 128,-1,20
 185 590 185 590 224.5 628 c 128,-1,21
 264 666 264 666 324.5 666 c 128,-1,22
 385 666 385 666 429 639.5 c 128,-1,23
 473 613 473 613 498 566 c 1,24,25
 544 475 544 475 544 341 c 0,26,27
 544 136 544 136 432 -5 c 1,28,29
 383 -15 383 -15 341 -15 c 2,30,-1
 324 -15 l 2,31,32
 314 -15 314 -15 296 -10 c 1,33,-1
 295 -12 l 1,34,35
 317 -18 317 -18 329 -24.5 c 128,-1,36
 341 -31 341 -31 390 -60 c 128,-1,37
 439 -89 439 -89 469 -106 c 128,-1,38
 499 -123 499 -123 540.5 -138 c 128,-1,39
 582 -153 582 -153 615 -153 c 0,40,41
 698 -153 698 -153 743 -100 c 1,42,-1
 751 -107 l 1,43,44
 709 -167 709 -167 615 -167 c 0,45,46
 564 -167 564 -167 502 -137.5 c 128,-1,47
 440 -108 440 -108 372 -65.5 c 128,-1,48
 304 -23 304 -23 270 -9 c 1,49,-1
 270 378 l 1,50,51
 260 383 260 383 244 397 c 1,52,-1
 244 0 l 1,0,1
415 391 m 128,-1,54
 385 362 385 362 346 362 c 128,-1,55
 307 362 307 362 284 372 c 1,56,-1
 284 2 l 1,57,58
 312 -3 312 -3 348 -3 c 128,-1,59
 384 -3 384 -3 424 5 c 1,60,61
 474 71 474 71 502 159 c 128,-1,62
 530 247 530 247 530 325.5 c 128,-1,63
 530 404 530 404 519.5 457 c 128,-1,64
 509 510 509 510 486.5 556 c 128,-1,65
 464 602 464 602 423 628 c 128,-1,66
 382 654 382 654 325.5 654 c 128,-1,67
 269 654 269 654 234 620 c 128,-1,68
 199 586 199 586 199 526 c 128,-1,69
 199 466 199 466 238.5 420 c 128,-1,70
 278 374 278 374 338 374 c 0,71,72
 380 374 380 374 405.5 399 c 128,-1,73
 431 424 431 424 431 466 c 1,74,-1
 445 466 l 1,75,53
 445 420 445 420 415 391 c 128,-1,54
EndSplineSet
EndChar

StartChar: R
Encoding: 82 82 53
Width: 621
GlyphClass: 2
Flags: W
LayerCount: 2
Fore
SplineSet
196 107 m 2,0,1
 196 47 196 47 174 17.5 c 128,-1,2
 152 -12 152 -12 99 -12 c 0,3,4
 72 -12 72 -12 54 -6 c 1,5,-1
 56 4 l 1,6,7
 78 -1 78 -1 96 -1 c 0,8,9
 146 -1 146 -1 164 25 c 128,-1,10
 182 51 182 51 182 107 c 2,11,-1
 182 640 l 1,12,13
 126 636 126 636 100 625 c 0,14,15
 41 600 41 600 41 544 c 0,16,17
 41 520 41 520 51 501 c 1,18,-1
 43 495 l 1,19,20
 28 512 28 512 28 543 c 0,21,22
 28 609 28 609 94 633 c 0,23,24
 106 637 106 637 116 640 c 1,25,-1
 116 642 l 1,26,-1
 93 638 l 1,27,28
 -3 640 -3 640 -67.5 676.5 c 128,-1,29
 -132 713 -132 713 -140 792 c 1,30,-1
 -128 794 l 1,31,32
 -112 650 -112 650 120 650 c 0,33,34
 152 650 152 650 196 653 c 1,35,-1
 196 107 l 2,0,1
222 107 m 2,36,-1
 222 655 l 1,37,38
 336 663 336 663 374 663 c 0,39,40
 464 663 464 663 505.5 628 c 128,-1,41
 547 593 547 593 547 513.5 c 128,-1,42
 547 434 547 434 502 385 c 128,-1,43
 457 336 457 336 384 333 c 1,44,45
 417 308 417 308 459 226 c 2,46,-1
 519 108 l 2,47,48
 558 30 558 30 584.5 -12 c 128,-1,49
 611 -54 611 -54 648 -90.5 c 128,-1,50
 685 -127 685 -127 730.5 -141 c 128,-1,51
 776 -155 776 -155 841 -155 c 1,52,-1
 841 -166 l 1,53,54
 775 -166 775 -166 729.5 -153 c 128,-1,55
 684 -140 684 -140 645 -104.5 c 128,-1,56
 606 -69 606 -69 577 -24 c 128,-1,57
 548 21 548 21 507 102 c 2,58,-1
 447 220 l 2,59,60
 415 283 415 283 394 307.5 c 128,-1,61
 373 332 373 332 350 335 c 0,62,63
 296 344 296 344 296 389 c 0,64,65
 296 412 296 412 312.5 426.5 c 128,-1,66
 329 441 329 441 353 443 c 1,67,-1
 355 433 l 1,68,69
 335 431 335 431 322.5 419.5 c 128,-1,70
 310 408 310 408 310 389 c 0,71,72
 310 344 310 344 378 344 c 128,-1,73
 446 344 446 344 489.5 389.5 c 128,-1,74
 533 435 533 435 533 510.5 c 128,-1,75
 533 586 533 586 495 618.5 c 128,-1,76
 457 651 457 651 375 651 c 0,77,78
 350 651 350 651 236 644 c 1,79,-1
 236 107 l 2,80,81
 236 51 236 51 254 25 c 128,-1,82
 272 -1 272 -1 322 -1 c 0,83,84
 340 -1 340 -1 362 4 c 1,85,-1
 364 -6 l 1,86,87
 346 -12 346 -12 319 -12 c 0,88,89
 266 -12 266 -12 244 17.5 c 128,-1,90
 222 47 222 47 222 107 c 2,36,-1
EndSplineSet
EndChar

StartChar: S
Encoding: 83 83 54
Width: 495
GlyphClass: 2
Flags: W
LayerCount: 2
Fore
SplineSet
410 259 m 0,0,1
 410 287 410 287 382 307 c 128,-1,2
 354 327 354 327 276 356 c 128,-1,3
 198 385 198 385 149 416 c 128,-1,4
 100 447 100 447 100 490.5 c 128,-1,5
 100 534 100 534 149 588.5 c 128,-1,6
 198 643 198 643 244 666 c 1,7,8
 338 666 338 666 422 619 c 1,9,-1
 416 609 l 1,10,11
 332 654 332 654 248 654 c 1,12,-1
 234 646 l 1,13,14
 190 618 190 618 152 572.5 c 128,-1,15
 114 527 114 527 114 489.5 c 128,-1,16
 114 452 114 452 163.5 422 c 128,-1,17
 213 392 213 392 287.5 364 c 128,-1,18
 362 336 362 336 393 314 c 128,-1,19
 424 292 424 292 424 259 c 0,20,21
 424 240 424 240 413 221 c 1,22,23
 416 210 416 210 416 201 c 0,24,25
 416 148 416 148 368.5 78.5 c 128,-1,26
 321 9 321 9 272 -14 c 1,27,28
 58 -14 58 -14 58 106 c 0,29,30
 58 145 58 145 79.5 170.5 c 128,-1,31
 101 196 101 196 135.5 196 c 128,-1,32
 170 196 170 196 190 175.5 c 128,-1,33
 210 155 210 155 210 122 c 0,34,35
 210 110 210 110 205 98 c 1,36,-1
 194 102 l 1,37,38
 197 112 197 112 197 122 c 0,39,40
 197 150 197 150 180.5 167 c 128,-1,41
 164 184 164 184 135 184 c 128,-1,42
 106 184 106 184 89 162 c 128,-1,43
 72 140 72 140 72 107 c 128,-1,44
 72 74 72 74 88.5 51.5 c 128,-1,45
 105 29 105 29 136 18 c 0,46,47
 192 -2 192 -2 268 -2 c 1,48,49
 317 22 317 22 359.5 86.5 c 128,-1,50
 402 151 402 151 402 196 c 128,-1,51
 402 241 402 241 353 270 c 128,-1,52
 304 299 304 299 229 327 c 128,-1,53
 154 355 154 355 125 377 c 128,-1,54
 96 399 96 399 86 421 c 1,55,-1
 96 428 l 1,56,57
 111 401 111 401 135 384 c 128,-1,58
 159 367 159 367 222 343 c 128,-1,59
 285 319 285 319 336.5 293 c 128,-1,60
 388 267 388 267 406 236 c 1,61,62
 410 247 410 247 410 259 c 0,0,1
EndSplineSet
EndChar

StartChar: T
Encoding: 84 84 55
Width: 519
GlyphClass: 2
Flags: W
LayerCount: 2
Fore
SplineSet
283 108 m 2,0,-1
 283 650 l 1,1,2
 293 651 293 651 319 652 c 128,-1,3
 345 653 345 653 393.5 655 c 128,-1,4
 442 657 442 657 486 666.5 c 128,-1,5
 530 676 530 676 570 695 c 128,-1,6
 610 714 610 714 633 747.5 c 128,-1,7
 656 781 656 781 656 827 c 1,8,-1
 668 826 l 1,9,10
 668 746 668 746 608 703.5 c 128,-1,11
 548 661 548 661 452 649 c 0,12,13
 445 649 445 649 429 650 c 1,14,-1
 429 648 l 1,15,16
 443 646 443 646 452 644 c 0,17,18
 485 635 485 635 506 608.5 c 128,-1,19
 527 582 527 582 527 552.5 c 128,-1,20
 527 523 527 523 516 511 c 1,21,-1
 508 517 l 1,22,23
 514 530 514 530 514 550 c 0,24,25
 514 592 514 592 480.5 617.5 c 128,-1,26
 447 643 447 643 395 643 c 0,27,28
 389 643 389 643 383 643 c 2,29,-1
 297 639 l 1,30,-1
 297 108 l 2,31,32
 297 52 297 52 315 26 c 128,-1,33
 333 0 333 0 383 0 c 0,34,35
 401 0 401 0 423 5 c 1,36,-1
 425 -5 l 1,37,38
 407 -11 407 -11 380 -11 c 0,39,40
 327 -11 327 -11 305 18.5 c 128,-1,41
 283 48 283 48 283 108 c 2,0,-1
243 639 m 1,42,-1
 122 645 l 1,43,44
 6 645 6 645 6 555 c 0,45,46
 6 522 6 522 23 500 c 128,-1,47
 40 478 40 478 69 478 c 128,-1,48
 98 478 98 478 114.5 495 c 128,-1,49
 131 512 131 512 131 540 c 0,50,51
 131 550 131 550 128 560 c 1,52,-1
 139 564 l 1,53,54
 144 552 144 552 144 540 c 0,55,56
 144 507 144 507 124 486.5 c 128,-1,57
 104 466 104 466 69.5 466 c 128,-1,58
 35 466 35 466 13.5 491.5 c 128,-1,59
 -8 517 -8 517 -8 556 c 0,60,61
 -8 657 -8 657 126 657 c 0,62,63
 180 657 180 657 257 650 c 1,64,-1
 257 108 l 2,65,66
 257 48 257 48 235 18.5 c 128,-1,67
 213 -11 213 -11 160 -11 c 0,68,69
 133 -11 133 -11 115 -5 c 1,70,-1
 117 5 l 1,71,72
 139 0 139 0 157 0 c 0,73,74
 207 0 207 0 225 26 c 128,-1,75
 243 52 243 52 243 108 c 2,76,-1
 243 639 l 1,42,-1
EndSplineSet
EndChar

StartChar: U
Encoding: 85 85 56
Width: 693
GlyphClass: 2
Flags: W
LayerCount: 2
Fore
SplineSet
502 544 m 2,0,1
 502 600 502 600 484 626 c 128,-1,2
 466 652 466 652 416 652 c 0,3,4
 398 652 398 652 376 647 c 1,5,-1
 374 657 l 1,6,7
 392 663 392 663 419 663 c 0,8,9
 472 663 472 663 494 633.5 c 128,-1,10
 516 604 516 604 516 544 c 2,11,-1
 516 58 l 1,12,13
 445 2 445 2 367 -15 c 1,14,15
 234 -14 234 -14 187.5 46 c 128,-1,16
 141 106 141 106 141 250 c 0,17,18
 141 331 141 331 147 441.5 c 128,-1,19
 153 552 153 552 153 557 c 0,20,21
 153 603 153 603 135.5 627.5 c 128,-1,22
 118 652 118 652 69 652 c 0,23,24
 51 652 51 652 29 647 c 1,25,-1
 27 657 l 1,26,27
 45 663 45 663 72 663 c 0,28,29
 149 663 149 663 162 597 c 1,30,31
 174 663 174 663 252 663 c 0,32,33
 279 663 279 663 297 657 c 1,34,-1
 295 647 l 1,35,36
 273 652 273 652 255 652 c 0,37,38
 206 652 206 652 187.5 627.5 c 128,-1,39
 169 603 169 603 167 544 c 0,40,41
 155 260 155 260 155 250 c 0,42,43
 155 114 155 114 197.5 57 c 128,-1,44
 240 0 240 0 365 -3 c 1,45,46
 445 17 445 17 502 65 c 1,47,-1
 502 544 l 2,0,1
556 544 m 2,48,-1
 556 107 l 2,49,50
 556 51 556 51 574 25 c 128,-1,51
 592 -1 592 -1 642 -1 c 0,52,53
 660 -1 660 -1 682 4 c 1,54,-1
 684 -6 l 1,55,56
 666 -12 666 -12 639 -12 c 0,57,58
 586 -12 586 -12 564 17.5 c 128,-1,59
 542 47 542 47 542 107 c 2,60,-1
 542 544 l 2,61,62
 542 604 542 604 564 633.5 c 128,-1,63
 586 663 586 663 639 663 c 0,64,65
 666 663 666 663 684 657 c 1,66,-1
 682 647 l 1,67,68
 660 652 660 652 642 652 c 0,69,70
 592 652 592 652 574 626 c 128,-1,71
 556 600 556 600 556 544 c 2,48,-1
EndSplineSet
EndChar

StartChar: V
Encoding: 86 86 57
Width: 669
GlyphClass: 2
Flags: W
LayerCount: 2
Fore
SplineSet
24.5 638 m 128,-1,1
 53 666 53 666 94 666 c 128,-1,2
 135 666 135 666 161.5 652.5 c 128,-1,3
 188 639 188 639 207 612 c 0,4,5
 239 566 239 566 263 489 c 2,6,-1
 324 299 l 2,7,8
 391 89 391 89 391 25 c 2,9,-1
 391 14 l 1,10,11
 401 27 401 27 408 40 c 1,12,13
 411 52 411 52 411 71 c 0,14,15
 411 116 411 116 343 336 c 2,16,-1
 300 477 l 2,17,18
 279 546 279 546 260.5 584 c 128,-1,19
 242 622 242 622 215 647 c 1,20,-1
 224 655 l 1,21,22
 253 631 253 631 272 592 c 128,-1,23
 291 553 291 553 314 479 c 2,24,-1
 357 340 l 1,25,26
 424 130 424 130 424 74 c 2,27,-1
 424 64 l 1,28,29
 587 319 587 319 587 544 c 0,30,31
 587 600 587 600 569 626 c 128,-1,32
 551 652 551 652 501 652 c 0,33,34
 483 652 483 652 461 647 c 1,35,-1
 459 657 l 1,36,37
 477 663 477 663 504 663 c 0,38,39
 581 663 581 663 594 597 c 1,40,41
 606 663 606 663 684 663 c 0,42,43
 711 663 711 663 729 657 c 1,44,-1
 727 647 l 1,45,46
 705 652 705 652 687 652 c 0,47,48
 638 652 638 652 619.5 627 c 128,-1,49
 601 602 601 602 601 544 c 0,50,51
 601 291 601 291 392 -8 c 1,52,-1
 375 -11 l 1,53,54
 378 2 378 2 378 22 c 0,55,56
 378 82 378 82 310 295 c 2,57,-1
 249 487 l 2,58,59
 221 575 221 575 187.5 614.5 c 128,-1,60
 154 654 154 654 106 654 c 128,-1,61
 58 654 58 654 34 629.5 c 128,-1,62
 10 605 10 605 10 567.5 c 128,-1,63
 10 530 10 530 27 508 c 128,-1,64
 44 486 44 486 73 486 c 128,-1,65
 102 486 102 486 118.5 503 c 128,-1,66
 135 520 135 520 135 548 c 0,67,68
 135 558 135 558 132 568 c 1,69,-1
 143 572 l 1,70,71
 148 560 148 560 148 548 c 0,72,73
 148 515 148 515 128 494.5 c 128,-1,74
 108 474 108 474 73.5 474 c 128,-1,75
 39 474 39 474 17.5 499.5 c 128,-1,76
 -4 525 -4 525 -4 567.5 c 128,-1,0
 -4 610 -4 610 24.5 638 c 128,-1,1
EndSplineSet
EndChar

StartChar: W
Encoding: 87 87 58
Width: 933
GlyphClass: 2
Flags: W
LayerCount: 2
Fore
SplineSet
24.5 638 m 128,-1,1
 53 666 53 666 94 666 c 128,-1,2
 135 666 135 666 161.5 652.5 c 128,-1,3
 188 639 188 639 207 612 c 0,4,5
 239 566 239 566 263 489 c 2,6,-1
 324 299 l 2,7,8
 391 89 391 89 391 25 c 2,9,-1
 391 15 l 1,10,-1
 409 46 l 1,11,12
 411 60 411 60 411 71 c 0,13,14
 411 116 411 116 343 336 c 2,15,-1
 300 477 l 2,16,17
 279 546 279 546 260.5 584 c 128,-1,18
 242 622 242 622 215 647 c 1,19,-1
 224 655 l 1,20,21
 253 631 253 631 272 592 c 128,-1,22
 291 553 291 553 314 479 c 2,23,-1
 357 340 l 1,24,25
 424 130 424 130 424 74 c 2,26,-1
 424 71 l 1,27,28
 518 236 518 236 549 338 c 1,29,-1
 493 544 l 2,30,31
 486 568 486 568 486 597.5 c 128,-1,32
 486 627 486 627 498.5 645 c 128,-1,33
 511 663 511 663 535 663 c 0,34,35
 595 663 595 663 595 544 c 0,36,37
 595 457 595 457 563 340 c 1,38,-1
 652 10 l 1,39,40
 851 295 851 295 851 544 c 0,41,42
 851 600 851 600 833 626 c 128,-1,43
 815 652 815 652 765 652 c 0,44,45
 747 652 747 652 725 647 c 1,46,-1
 723 657 l 1,47,48
 741 663 741 663 768 663 c 0,49,50
 845 663 845 663 858 597 c 1,51,52
 870 663 870 663 948 663 c 0,53,54
 975 663 975 663 993 657 c 1,55,-1
 991 647 l 1,56,57
 969 652 969 652 951 652 c 0,58,59
 902 652 902 652 883.5 627 c 128,-1,60
 865 602 865 602 865 544 c 0,61,62
 865 291 865 291 656 -8 c 1,63,-1
 643 -11 l 1,64,-1
 557 307 l 1,65,-1
 557 328 l 1,66,-1
 555 328 l 1,67,68
 555 319 555 319 552 304 c 1,69,70
 521 207 521 207 392 -8 c 1,71,-1
 375 -12 l 1,72,73
 378 1 378 1 378 22 c 0,74,75
 378 82 378 82 310 295 c 2,76,-1
 249 487 l 2,77,78
 221 575 221 575 187.5 614.5 c 128,-1,79
 154 654 154 654 106 654 c 128,-1,80
 58 654 58 654 34 629.5 c 128,-1,81
 10 605 10 605 10 567.5 c 128,-1,82
 10 530 10 530 27 508 c 128,-1,83
 44 486 44 486 73 486 c 128,-1,84
 102 486 102 486 118.5 503 c 128,-1,85
 135 520 135 520 135 548 c 0,86,87
 135 558 135 558 132 568 c 1,88,-1
 143 572 l 1,89,90
 148 560 148 560 148 548 c 0,91,92
 148 515 148 515 128 494.5 c 128,-1,93
 108 474 108 474 73.5 474 c 128,-1,94
 39 474 39 474 17.5 499.5 c 128,-1,95
 -4 525 -4 525 -4 567.5 c 128,-1,0
 -4 610 -4 610 24.5 638 c 128,-1,1
535 651 m 0,96,97
 518 651 518 651 509 636 c 128,-1,98
 500 621 500 621 500 597 c 128,-1,99
 500 573 500 573 508 544 c 2,100,-1
 556 365 l 1,101,102
 581 463 581 463 581 544 c 0,103,104
 581 651 581 651 535 651 c 0,96,97
EndSplineSet
EndChar

StartChar: X
Encoding: 88 88 59
Width: 653
GlyphClass: 2
Flags: W
LayerCount: 2
Fore
SplineSet
481 527.5 m 128,-1,1
 508 587 508 587 508 606 c 128,-1,2
 508 625 508 625 486.5 638.5 c 128,-1,3
 465 652 465 652 437 652 c 128,-1,4
 409 652 409 652 387 647 c 1,5,-1
 385 656 l 1,6,7
 403 663 403 663 430 663 c 0,8,9
 507 663 507 663 518 613 c 1,10,11
 536 663 536 663 609 663 c 0,12,13
 636 663 636 663 654 656 c 1,14,-1
 652 647 l 1,15,16
 630 652 630 652 612 652 c 0,17,18
 559 652 559 652 538 627 c 0,19,20
 531 619 531 619 522 597 c 0,21,22
 483 492 483 492 437 415 c 2,23,-1
 388 332 l 1,24,-1
 462 164 l 2,25,26
 500 78 500 78 538.5 37 c 128,-1,27
 577 -4 577 -4 632 -4 c 0,28,29
 650 -4 650 -4 672 1 c 1,30,-1
 676 -9 l 1,31,32
 658 -15 658 -15 626 -15 c 128,-1,33
 594 -15 594 -15 565 0 c 1,34,35
 501 0 501 0 469.5 36 c 128,-1,36
 438 72 438 72 395 172 c 2,37,-1
 338 303 l 1,38,-1
 294 227 l 2,39,40
 268 183 268 183 241 123.5 c 128,-1,41
 214 64 214 64 214 45 c 128,-1,42
 214 26 214 26 235.5 12.5 c 128,-1,43
 257 -1 257 -1 285 -1 c 128,-1,44
 313 -1 313 -1 335 4 c 1,45,-1
 337 -5 l 1,46,47
 319 -12 319 -12 292 -12 c 0,48,49
 215 -12 215 -12 204 38 c 1,50,51
 186 -12 186 -12 113 -12 c 0,52,53
 86 -12 86 -12 68 -5 c 1,54,-1
 70 4 l 1,55,56
 92 -1 92 -1 110 -1 c 0,57,58
 163 -1 163 -1 184 24 c 0,59,60
 191 32 191 32 200 54 c 0,61,62
 239 159 239 159 285 236 c 2,63,-1
 332 316 l 1,64,-1
 258 487 l 2,65,66
 221 573 221 573 182 613.5 c 128,-1,67
 143 654 143 654 95 654 c 128,-1,68
 47 654 47 654 23 629.5 c 128,-1,69
 -1 605 -1 605 -1 567.5 c 128,-1,70
 -1 530 -1 530 16 508 c 128,-1,71
 33 486 33 486 62 486 c 128,-1,72
 91 486 91 486 107.5 503 c 128,-1,73
 124 520 124 520 124 548 c 0,74,75
 124 558 124 558 121 568 c 1,76,-1
 132 572 l 1,77,78
 137 560 137 560 137 548 c 0,79,80
 137 515 137 515 117 494.5 c 128,-1,81
 97 474 97 474 62.5 474 c 128,-1,82
 28 474 28 474 6.5 499.5 c 128,-1,83
 -15 525 -15 525 -15 567.5 c 128,-1,84
 -15 610 -15 610 13.5 638 c 128,-1,85
 42 666 42 666 89 666 c 0,86,87
 154 666 154 666 195 619 c 128,-1,88
 236 572 236 572 272 489 c 2,89,-1
 409 174 l 2,90,91
 430 127 430 127 440.5 105 c 128,-1,92
 451 83 451 83 468 58.5 c 128,-1,93
 485 34 485 34 503.5 24 c 128,-1,94
 522 14 522 14 547 12 c 1,95,96
 498 48 498 48 448 162 c 2,97,-1
 300 502 l 2,98,99
 251 614 251 614 206 646 c 1,100,-1
 214 655 l 1,101,102
 261 626 261 626 309 516 c 2,103,-1
 383 345 l 1,104,-1
 428 424 l 2,105,0
 454 468 454 468 481 527.5 c 128,-1,1
EndSplineSet
EndChar

StartChar: Y
Encoding: 89 89 60
Width: 629
GlyphClass: 2
Flags: W
LayerCount: 2
Fore
SplineSet
353 248 m 2,0,-1
 353 107 l 2,1,2
 353 47 353 47 331 17.5 c 128,-1,3
 309 -12 309 -12 256 -12 c 0,4,5
 229 -12 229 -12 211 -6 c 1,6,-1
 213 4 l 1,7,8
 235 -1 235 -1 253 -1 c 0,9,10
 303 -1 303 -1 321 25 c 128,-1,11
 339 51 339 51 339 107 c 2,12,-1
 339 248 l 2,13,14
 339 263 339 263 304.5 338.5 c 128,-1,15
 270 414 270 414 250 451.5 c 128,-1,16
 230 489 230 489 220 507.5 c 128,-1,17
 210 526 210 526 206.5 532.5 c 128,-1,18
 203 539 203 539 193.5 555.5 c 128,-1,19
 184 572 184 572 179 579 c 128,-1,20
 174 586 174 586 164.5 599 c 128,-1,21
 155 612 155 612 148.5 618 c 128,-1,22
 142 624 142 624 131.5 632.5 c 128,-1,23
 121 641 121 641 112 644 c 0,24,25
 88 654 88 654 69 654 c 0,26,27
 27 654 27 654 3 629.5 c 128,-1,28
 -21 605 -21 605 -21 567.5 c 128,-1,29
 -21 530 -21 530 -4 508 c 128,-1,30
 13 486 13 486 42 486 c 128,-1,31
 71 486 71 486 87.5 503 c 128,-1,32
 104 520 104 520 104 548 c 0,33,34
 104 558 104 558 101 568 c 1,35,-1
 112 572 l 1,36,37
 117 560 117 560 117 548 c 0,38,39
 117 515 117 515 97 494.5 c 128,-1,40
 77 474 77 474 42.5 474 c 128,-1,41
 8 474 8 474 -13.5 499.5 c 128,-1,42
 -35 525 -35 525 -35 567.5 c 128,-1,43
 -35 610 -35 610 -6.5 638 c 128,-1,44
 22 666 22 666 65 666 c 128,-1,45
 108 666 108 666 142.5 637.5 c 128,-1,46
 177 609 177 609 192 586 c 1,47,48
 219 541 219 541 251.5 478 c 128,-1,49
 284 415 284 415 318.5 340 c 128,-1,50
 353 265 353 265 353 248 c 2,0,-1
393 107 m 2,51,52
 393 51 393 51 411 25 c 128,-1,53
 429 -1 429 -1 479 -1 c 0,54,55
 497 -1 497 -1 519 4 c 1,56,-1
 521 -6 l 1,57,58
 503 -12 503 -12 476 -12 c 0,59,60
 423 -12 423 -12 401 17.5 c 128,-1,61
 379 47 379 47 379 107 c 2,62,-1
 379 255 l 2,63,64
 379 274 379 274 341.5 357.5 c 128,-1,65
 304 441 304 441 262 522.5 c 128,-1,66
 220 604 220 604 203.5 622 c 128,-1,67
 187 640 187 640 177 646 c 1,68,-1
 185 655 l 1,69,70
 212 641 212 641 246 578 c 0,71,72
 358 377 358 377 389 275 c 1,73,74
 451 399 451 399 485 489 c 128,-1,75
 519 579 519 579 519 601 c 0,76,77
 519 652 519 652 439 652 c 0,78,79
 421 652 421 652 399 647 c 1,80,-1
 397 656 l 1,81,82
 415 663 415 663 442 663 c 0,83,84
 519 663 519 663 530 613 c 1,85,86
 548 663 548 663 621 663 c 0,87,88
 648 663 648 663 666 656 c 1,89,-1
 664 647 l 1,90,91
 642 652 642 652 614 652 c 0,92,93
 550 652 550 652 534 595 c 0,94,95
 493 454 493 454 393 255 c 1,96,-1
 393 107 l 2,51,52
EndSplineSet
EndChar

StartChar: Z
Encoding: 90 90 61
Width: 471
GlyphClass: 2
Flags: W
LayerCount: 2
Fore
SplineSet
377 -1 m 0,0,1
 456 -1 456 -1 456 77 c 0,2,3
 456 103 456 103 448 116 c 1,4,-1
 457 122 l 1,5,6
 469 107 469 107 469 69.5 c 128,-1,7
 469 32 469 32 444.5 9.5 c 128,-1,8
 420 -13 420 -13 369 -13 c 128,-1,9
 318 -13 318 -13 201 18 c 1,10,-1
 83 48 l 1,11,12
 71 25 71 25 58 -12 c 1,13,-1
 41 -9 l 1,14,-1
 41 28 l 2,15,16
 41 90 41 90 77 150 c 0,17,18
 96 182 96 182 120.5 216.5 c 128,-1,19
 145 251 145 251 149 257 c 2,20,-1
 334 523 l 1,21,22
 380 591 380 591 401 634 c 1,23,-1
 314 639 l 2,24,25
 226 645 226 645 183 645 c 0,26,27
 67 645 67 645 67 555 c 0,28,29
 67 522 67 522 84 500 c 128,-1,30
 101 478 101 478 130 478 c 128,-1,31
 159 478 159 478 175.5 495 c 128,-1,32
 192 512 192 512 192 540 c 0,33,34
 192 550 192 550 189 560 c 1,35,-1
 200 564 l 1,36,37
 205 552 205 552 205 540 c 0,38,39
 205 507 205 507 185 486.5 c 128,-1,40
 165 466 165 466 130.5 466 c 128,-1,41
 96 466 96 466 74.5 491.5 c 128,-1,42
 53 517 53 517 53 556 c 0,43,44
 53 657 53 657 187 657 c 0,45,46
 230 657 230 657 318 651 c 2,47,-1
 418 645 l 1,48,-1
 420 644 l 1,49,50
 398 593 398 593 348 520 c 2,51,-1
 159 248 l 1,52,53
 91 152 91 152 73 109 c 128,-1,54
 55 66 55 66 55 32 c 2,55,-1
 55 15 l 1,56,57
 76 78 76 78 159 196 c 2,58,-1
 375 507 l 2,59,60
 438 596 438 596 450 644 c 1,61,-1
 464 645 l 1,62,63
 456 603 456 603 392 508 c 1,64,-1
 168 186 l 2,65,66
 116 112 116 112 89 60 c 1,67,-1
 205 30 l 2,68,69
 326 -1 326 -1 377 -1 c 0,0,1
EndSplineSet
EndChar

StartChar: bracketleft
Encoding: 91 91 62
Width: 296
GlyphClass: 2
Flags: W
LayerCount: 2
Fore
SplineSet
282 696 m 1,0,-1
 282 685 l 1,1,2
 205 685 205 685 127 690 c 1,3,-1
 127 -194 l 1,4,5
 205 -189 205 -189 282 -189 c 1,6,-1
 282 -200 l 1,7,8
 182 -200 182 -200 117 -206 c 1,9,-1
 114 -203 l 1,10,-1
 114 699 l 1,11,-1
 117 702 l 1,12,13
 182 696 182 696 282 696 c 1,0,-1
EndSplineSet
EndChar

StartChar: backslash
Encoding: 92 92 63
Width: 288
GlyphClass: 2
Flags: W
LayerCount: 2
Fore
SplineSet
22 698 m 1,0,-1
 278 -25 l 1,1,-1
 265 -31 l 1,2,-1
 10 693 l 1,3,-1
 22 698 l 1,0,-1
EndSplineSet
EndChar

StartChar: bracketright
Encoding: 93 93 64
Width: 296
GlyphClass: 2
Flags: W
LayerCount: 2
Fore
SplineSet
14 -200 m 1,0,-1
 14 -189 l 1,1,2
 91 -189 91 -189 169 -194 c 1,3,-1
 169 690 l 1,4,5
 91 685 91 685 14 685 c 1,6,-1
 14 696 l 1,7,8
 114 696 114 696 179 702 c 1,9,-1
 182 699 l 1,10,-1
 182 -203 l 1,11,-1
 179 -206 l 1,12,13
 114 -200 114 -200 14 -200 c 1,0,-1
EndSplineSet
EndChar

StartChar: asciicircum
Encoding: 94 94 65
Width: 518
GlyphClass: 2
Flags: W
LayerCount: 2
Fore
SplineSet
251 691 m 1,0,-1
 259 691 l 1,1,-1
 417 336 l 1,2,-1
 406 331 l 1,3,-1
 255 673 l 1,4,-1
 105 331 l 1,5,-1
 94 337 l 1,6,-1
 251 691 l 1,0,-1
EndSplineSet
EndChar

StartChar: underscore
Encoding: 95 95 66
Width: 579
GlyphClass: 2
Flags: W
LayerCount: 2
Fore
SplineSet
7 -185 m 1,0,-1
 7 -173 l 1,1,-1
 572 -173 l 1,2,-1
 572 -185 l 1,3,-1
 7 -185 l 1,0,-1
EndSplineSet
EndChar

StartChar: grave
Encoding: 96 96 67
Width: 181
GlyphClass: 2
Flags: W
LayerCount: 2
Fore
SplineSet
18 694 m 0,0,1
 23 694 23 694 27 690 c 2,2,-1
 174 539 l 1,3,-1
 168 532 l 1,4,-1
 7 683 l 1,5,6
 7 694 7 694 18 694 c 0,0,1
EndSplineSet
EndChar

StartChar: a
Encoding: 97 97 68
Width: 526
GlyphClass: 2
Flags: W
LayerCount: 2
Fore
SplineSet
383 418 m 2,0,-1
 383 132 l 2,1,2
 383 -1 383 -1 469 -1 c 0,3,4
 495 -1 495 -1 508 7 c 1,5,-1
 514 0 l 1,6,7
 499 -12 499 -12 466 -12 c 0,8,9
 370 -12 370 -12 370 132 c 2,10,-1
 370 154 l 1,11,12
 336 97 336 97 280.5 51 c 128,-1,13
 225 5 225 5 176 -15 c 1,14,15
 123 13 123 13 97 71 c 128,-1,16
 71 129 71 129 71 206 c 128,-1,17
 71 283 71 283 106.5 360 c 128,-1,18
 142 437 142 437 208 485 c 1,19,20
 297 485 297 485 371 443 c 1,21,22
 376 493 376 493 404 528 c 1,23,-1
 413 523 l 1,24,25
 383 475 383 475 383 418 c 2,0,-1
117.5 353 m 128,-1,27
 85 280 85 280 85 207.5 c 128,-1,28
 85 135 85 135 108 79.5 c 128,-1,29
 131 24 131 24 178 -1 c 1,30,31
 224 17 224 17 282.5 67.5 c 128,-1,32
 341 118 341 118 370 174 c 1,33,-1
 370 431 l 1,34,35
 296 474 296 474 211 474 c 1,36,26
 150 426 150 426 117.5 353 c 128,-1,27
EndSplineSet
EndChar

StartChar: b
Encoding: 98 98 69
Width: 479
GlyphClass: 2
Flags: W
LayerCount: 2
Fore
SplineSet
120 517 m 2,0,-1
 120 316 l 1,1,2
 154 373 154 373 209.5 419 c 128,-1,3
 265 465 265 465 314 485 c 1,4,5
 367 457 367 457 393 399 c 128,-1,6
 419 341 419 341 419 264 c 128,-1,7
 419 187 419 187 383.5 110 c 128,-1,8
 348 33 348 33 282 -15 c 1,9,10
 180 -15 180 -15 107 19 c 1,11,-1
 107 517 l 2,12,13
 107 600 107 600 118.5 641.5 c 128,-1,14
 130 683 130 683 151.5 702.5 c 128,-1,15
 173 722 173 722 207 730 c 1,16,-1
 209 720 l 1,17,18
 147 702 147 702 132 642 c 0,19,20
 120 594 120 594 120 517 c 2,0,-1
372.5 117 m 128,-1,22
 405 190 405 190 405 262.5 c 128,-1,23
 405 335 405 335 382 390.5 c 128,-1,24
 359 446 359 446 312 471 c 1,25,26
 266 453 266 453 207.5 402.5 c 128,-1,27
 149 352 149 352 120 296 c 1,28,-1
 120 26 l 1,29,30
 185 -4 185 -4 279 -4 c 1,31,21
 340 44 340 44 372.5 117 c 128,-1,22
EndSplineSet
EndChar

StartChar: c
Encoding: 99 99 70
Width: 403
GlyphClass: 2
Flags: W
LayerCount: 2
Fore
SplineSet
114.5 355.5 m 128,-1,1
 85 284 85 284 85 210.5 c 128,-1,2
 85 137 85 137 119 79.5 c 128,-1,3
 153 22 153 22 215 -1 c 1,4,5
 252 14 252 14 290 42.5 c 128,-1,6
 328 71 328 71 352 103 c 1,7,-1
 361 97 l 1,8,9
 336 64 336 64 294.5 32.5 c 128,-1,10
 253 1 253 1 213 -15 c 1,11,12
 147 9 147 9 109 71 c 128,-1,13
 71 133 71 133 71 209 c 128,-1,14
 71 285 71 285 104 360.5 c 128,-1,15
 137 436 137 436 194 485 c 1,16,17
 282 485 282 485 356 443 c 1,18,-1
 351 434 l 1,19,20
 277 474 277 474 198 474 c 1,21,0
 144 427 144 427 114.5 355.5 c 128,-1,1
EndSplineSet
EndChar

StartChar: d
Encoding: 100 100 71
Width: 521
GlyphClass: 2
Flags: W
LayerCount: 2
Fore
SplineSet
383 132 m 2,0,1
 383 -1 383 -1 469 -1 c 0,2,3
 495 -1 495 -1 508 7 c 1,4,-1
 514 0 l 1,5,6
 499 -12 499 -12 466 -12 c 0,7,8
 370 -12 370 -12 370 132 c 2,9,-1
 370 154 l 1,10,11
 336 97 336 97 280.5 51 c 128,-1,12
 225 5 225 5 176 -15 c 1,13,14
 123 13 123 13 97 71 c 128,-1,15
 71 129 71 129 71 206 c 128,-1,16
 71 283 71 283 106.5 360 c 128,-1,17
 142 437 142 437 208 485 c 1,18,19
 296 485 296 485 370 443 c 1,20,-1
 370 517 l 2,21,22
 370 653 370 653 331 692 c 0,23,24
 312 711 312 711 281 720 c 1,25,-1
 283 730 l 1,26,27
 351 714 351 714 369 650 c 0,28,29
 383 600 383 600 383 517 c 2,30,-1
 383 132 l 2,0,1
117.5 353 m 128,-1,32
 85 280 85 280 85 207.5 c 128,-1,33
 85 135 85 135 108 79.5 c 128,-1,34
 131 24 131 24 178 -1 c 1,35,36
 224 17 224 17 282.5 67.5 c 128,-1,37
 341 118 341 118 370 174 c 1,38,-1
 370 431 l 1,39,40
 296 474 296 474 211 474 c 1,41,31
 150 426 150 426 117.5 353 c 128,-1,32
EndSplineSet
EndChar

StartChar: e
Encoding: 101 101 72
Width: 434
GlyphClass: 2
Flags: W
LayerCount: 2
Fore
SplineSet
108 71 m 128,-1,1
 70 133 70 133 70 209 c 128,-1,2
 70 285 70 285 103 360.5 c 128,-1,3
 136 436 136 436 193 485 c 1,4,5
 366 485 366 485 366 367 c 0,6,7
 366 329 366 329 352 292 c 1,8,9
 380 293 380 293 420 293 c 1,10,-1
 420 283 l 1,11,12
 410 283 410 283 401 283 c 0,13,14
 259 283 259 283 87 256 c 1,15,16
 84 230 84 230 84 207 c 0,17,18
 84 137 84 137 118 79.5 c 128,-1,19
 152 22 152 22 214 -1 c 1,20,21
 251 14 251 14 289 42.5 c 128,-1,22
 327 71 327 71 351 103 c 1,23,-1
 360 97 l 1,24,25
 335 64 335 64 293.5 32.5 c 128,-1,26
 252 1 252 1 212 -15 c 1,27,0
 146 9 146 9 108 71 c 128,-1,1
353 367 m 0,28,29
 353 474 353 474 197 474 c 1,30,31
 112 401 112 401 89 268 c 1,32,33
 198 286 198 286 341 292 c 1,34,35
 353 331 353 331 353 367 c 0,28,29
EndSplineSet
EndChar

StartChar: f
Encoding: 102 102 73
Width: 315
GlyphClass: 2
Flags: W
LayerCount: 2
Fore
SplineSet
148 470 m 1,0,-1
 309 470 l 1,1,-1
 309 459 l 1,2,-1
 148 459 l 1,3,-1
 156 -50 l 2,4,5
 156 -53 156 -53 156 -56 c 0,6,7
 156 -177 156 -177 75 -215 c 1,8,9
 13 -215 13 -215 -42 -182 c 1,10,-1
 -37 -173 l 1,11,12
 20 -204 20 -204 72 -204 c 1,13,14
 143 -168 143 -168 143 -56 c 0,15,16
 143 -53 143 -53 143 -50 c 2,17,-1
 135 459 l 1,18,-1
 36 459 l 1,19,-1
 36 470 l 1,20,-1
 135 470 l 1,21,22
 135 541 135 541 156 607.5 c 128,-1,23
 177 674 177 674 221 711 c 1,24,25
 292 711 292 711 353 676 c 1,26,-1
 347 667 l 1,27,28
 287 700 287 700 224 700 c 1,29,30
 148 631 148 631 148 470 c 1,0,-1
EndSplineSet
EndChar

StartChar: g
Encoding: 103 103 74
Width: 500
GlyphClass: 2
Flags: W
LayerCount: 2
Fore
SplineSet
391 418 m 2,0,-1
 391 138 l 2,1,2
 391 13 391 13 417 -112 c 1,3,4
 405 -139 405 -139 368.5 -171 c 128,-1,5
 332 -203 332 -203 303 -215 c 1,6,7
 249 -215 249 -215 186 -196.5 c 128,-1,8
 123 -178 123 -178 78 -148 c 1,9,10
 106 -70 106 -70 193 15 c 1,11,12
 85 82 85 82 85 209 c 0,13,14
 85 286 85 286 120 362.5 c 128,-1,15
 155 439 155 439 213 485 c 1,16,17
 306 485 306 485 379 443 c 1,18,19
 384 493 384 493 412 528 c 1,20,-1
 421 523 l 1,21,22
 391 475 391 475 391 418 c 2,0,-1
131.5 357.5 m 128,-1,24
 99 282 99 282 99 216 c 0,25,26
 99 82 99 82 203 24 c 1,27,-1
 237 55 l 2,28,29
 271 87 271 87 292 108 c 0,30,31
 349 165 349 165 378 223 c 1,32,-1
 378 431 l 1,33,34
 310 472 310 472 218 474 c 1,35,23
 164 433 164 433 131.5 357.5 c 128,-1,24
378 138 m 2,36,-1
 378 202 l 1,37,38
 344 138 344 138 244 46 c 0,39,40
 199 4 199 4 181 -14 c 128,-1,41
 163 -32 163 -32 136 -68.5 c 128,-1,42
 109 -105 109 -105 94 -142 c 1,43,44
 195 -203 195 -203 301 -203 c 1,45,46
 327 -191 327 -191 359.5 -163 c 128,-1,47
 392 -135 392 -135 404 -112 c 1,48,49
 378 18 378 18 378 138 c 2,36,-1
EndSplineSet
EndChar

StartChar: h
Encoding: 104 104 75
Width: 563
GlyphClass: 2
Flags: W
LayerCount: 2
Fore
SplineSet
163 517 m 2,0,-1
 163 311 l 1,1,2
 197 370 197 370 250 415 c 128,-1,3
 303 460 303 460 360 485 c 1,4,5
 443 448 443 448 443 328 c 0,6,7
 443 323 443 323 443 319 c 2,8,-1
 438 110 l 2,9,10
 438 103 438 103 438 96 c 0,11,12
 438 47 438 47 451.5 21.5 c 128,-1,13
 465 -4 465 -4 514 -4 c 0,14,15
 540 -4 540 -4 553 4 c 1,16,-1
 559 -3 l 1,17,18
 544 -15 544 -15 511 -15 c 0,19,20
 457 -15 457 -15 441 13.5 c 128,-1,21
 425 42 425 42 425 97 c 0,22,23
 425 103 425 103 425 110 c 2,24,-1
 430 319 l 2,25,26
 430 325 430 325 430 331 c 0,27,28
 430 437 430 437 359 473 c 1,29,30
 301 447 301 447 248.5 398.5 c 128,-1,31
 196 350 196 350 163 292 c 1,32,-1
 163 67 l 2,33,34
 163 -1 163 -1 249 -1 c 0,35,36
 267 -1 267 -1 289 4 c 1,37,-1
 291 -5 l 1,38,39
 273 -12 273 -12 243 -12 c 128,-1,40
 213 -12 213 -12 187 1 c 128,-1,41
 161 14 161 14 156 40 c 1,42,43
 151 14 151 14 125.5 1 c 128,-1,44
 100 -12 100 -12 70 -12 c 128,-1,45
 40 -12 40 -12 22 -5 c 1,46,-1
 24 4 l 1,47,48
 46 -1 46 -1 64 -1 c 0,49,50
 150 -1 150 -1 150 67 c 2,51,-1
 150 517 l 2,52,53
 150 600 150 600 161.5 641.5 c 128,-1,54
 173 683 173 683 194.5 702.5 c 128,-1,55
 216 722 216 722 250 730 c 1,56,-1
 252 720 l 1,57,58
 190 702 190 702 175 642 c 0,59,60
 163 594 163 594 163 517 c 2,0,-1
EndSplineSet
EndChar

StartChar: i
Encoding: 105 105 76
Width: 241
GlyphClass: 2
Flags: W
LayerCount: 2
Fore
SplineSet
100 107 m 2,0,-1
 100 470 l 1,1,-1
 113 470 l 1,2,-1
 113 110 l 2,3,4
 113 77 113 77 114.5 60.5 c 128,-1,5
 116 44 116 44 123.5 26.5 c 128,-1,6
 131 9 131 9 146.5 2.5 c 128,-1,7
 162 -4 162 -4 188.5 -4 c 128,-1,8
 215 -4 215 -4 228 4 c 1,9,-1
 234 -3 l 1,10,11
 219 -15 219 -15 186 -15 c 0,12,13
 132 -15 132 -15 116 13 c 128,-1,14
 100 41 100 41 100 107 c 2,0,-1
128 644 m 0,15,16
 128 635 128 635 122 628 c 128,-1,17
 116 621 116 621 106 621 c 128,-1,18
 96 621 96 621 90 628 c 128,-1,19
 84 635 84 635 84 644 c 0,20,21
 84 666 84 666 106 666 c 128,-1,22
 128 666 128 666 128 644 c 0,15,16
EndSplineSet
EndChar

StartChar: j
Encoding: 106 106 77
Width: 234
GlyphClass: 2
Flags: W
LayerCount: 2
Fore
SplineSet
121 235 m 2,0,-1
 121 470 l 1,1,-1
 134 470 l 1,2,-1
 134 235 l 2,3,4
 134 91 134 91 156 -15 c 1,5,6
 120 -148 120 -148 -2 -231 c 1,7,-1
 -8 -222 l 1,8,9
 109 -135 109 -135 143 -15 c 1,10,11
 121 95 121 95 121 235 c 2,0,-1
149 644 m 0,12,13
 149 635 149 635 143 628 c 128,-1,14
 137 621 137 621 127 621 c 128,-1,15
 117 621 117 621 111 628 c 128,-1,16
 105 635 105 635 105 644 c 0,17,18
 105 666 105 666 127 666 c 128,-1,19
 149 666 149 666 149 644 c 0,12,13
EndSplineSet
EndChar

StartChar: k
Encoding: 107 107 78
Width: 508
GlyphClass: 2
Flags: W
LayerCount: 2
Fore
SplineSet
134 69 m 2,0,-1
 134 517 l 2,1,2
 134 600 134 600 145.5 641.5 c 128,-1,3
 157 683 157 683 178.5 702.5 c 128,-1,4
 200 722 200 722 234 730 c 1,5,-1
 236 720 l 1,6,7
 174 702 174 702 159 642 c 0,8,9
 147 594 147 594 147 517 c 2,10,-1
 147 311 l 1,11,12
 218 434 218 434 334 485 c 1,13,14
 374 473 374 473 395.5 437.5 c 128,-1,15
 417 402 417 402 417 355 c 128,-1,16
 417 308 417 308 385.5 274 c 128,-1,17
 354 240 354 240 305 225 c 1,18,-1
 364 58 l 2,19,20
 376 25 376 25 393 10.5 c 128,-1,21
 410 -4 410 -4 439 -4 c 128,-1,22
 468 -4 468 -4 481 4 c 1,23,-1
 487 -3 l 1,24,25
 472 -15 472 -15 438.5 -15 c 128,-1,26
 405 -15 405 -15 385 1 c 128,-1,27
 365 17 365 17 353 52 c 2,28,-1
 292 222 l 1,29,30
 265 215 265 215 234 215 c 1,31,-1
 234 226 l 1,32,33
 303 226 303 226 353.5 261 c 128,-1,34
 404 296 404 296 404 356 c 0,35,36
 404 397 404 397 386 429 c 128,-1,37
 368 461 368 461 333 473 c 1,38,39
 222 423 222 423 147 292 c 1,40,-1
 147 69 l 2,41,42
 147 1 147 1 233 1 c 0,43,44
 251 1 251 1 273 6 c 1,45,-1
 275 -3 l 1,46,47
 257 -10 257 -10 227 -10 c 128,-1,48
 197 -10 197 -10 171 3 c 128,-1,49
 145 16 145 16 140 42 c 1,50,51
 135 16 135 16 109.5 3 c 128,-1,52
 84 -10 84 -10 54 -10 c 128,-1,53
 24 -10 24 -10 6 -3 c 1,54,-1
 8 6 l 1,55,56
 30 1 30 1 48 1 c 0,57,58
 134 1 134 1 134 69 c 2,0,-1
EndSplineSet
EndChar

StartChar: l
Encoding: 108 108 79
Width: 241
GlyphClass: 2
Flags: W
LayerCount: 2
Fore
SplineSet
113 456 m 2,0,-1
 113 110 l 2,1,2
 113 77 113 77 114.5 60.5 c 128,-1,3
 116 44 116 44 123.5 26.5 c 128,-1,4
 131 9 131 9 146.5 2.5 c 128,-1,5
 162 -4 162 -4 188.5 -4 c 128,-1,6
 215 -4 215 -4 228 4 c 1,7,-1
 234 -3 l 1,8,9
 219 -15 219 -15 186 -15 c 0,10,11
 132 -15 132 -15 116 13 c 128,-1,12
 100 41 100 41 100 107 c 2,13,-1
 100 452 l 2,14,15
 100 729 100 729 279 729 c 1,16,-1
 279 719 l 1,17,18
 113 719 113 719 113 456 c 2,0,-1
EndSplineSet
EndChar

StartChar: m
Encoding: 109 109 80
Width: 834
GlyphClass: 2
Flags: W
LayerCount: 2
Fore
SplineSet
430 331 m 0,0,1
 430 437 430 437 359 473 c 1,2,3
 244 421 244 421 170 292 c 1,4,-1
 170 67 l 2,5,6
 170 -1 170 -1 256 -1 c 2,7,-1
 269 -1 l 1,8,-1
 270 -11 l 1,9,10
 264 -12 264 -12 242 -12 c 128,-1,11
 220 -12 220 -12 194 1 c 128,-1,12
 168 14 168 14 163 40 c 1,13,14
 158 14 158 14 132.5 1 c 128,-1,15
 107 -12 107 -12 77 -12 c 128,-1,16
 47 -12 47 -12 29 -5 c 1,17,-1
 31 4 l 1,18,19
 53 -1 53 -1 71 -1 c 0,20,21
 157 -1 157 -1 157 67 c 2,22,-1
 157 338 l 2,23,24
 157 471 157 471 71 471 c 0,25,26
 45 471 45 471 32 463 c 1,27,-1
 26 470 l 1,28,29
 41 482 41 482 74 482 c 0,30,31
 170 482 170 482 170 338 c 2,32,-1
 170 311 l 1,33,34
 238 431 238 431 360 485 c 1,35,36
 443 448 443 448 443 328 c 0,37,38
 443 323 443 323 443 319 c 2,39,-1
 443 315 l 1,40,41
 477 373 477 373 527 417.5 c 128,-1,42
 577 462 577 462 631 485 c 1,43,44
 714 448 714 448 714 328 c 0,45,46
 714 323 714 323 714 319 c 2,47,-1
 709 110 l 2,48,49
 709 103 709 103 709 96 c 0,50,51
 709 47 709 47 722.5 21.5 c 128,-1,52
 736 -4 736 -4 785 -4 c 0,53,54
 811 -4 811 -4 824 4 c 1,55,-1
 830 -3 l 1,56,57
 815 -15 815 -15 782 -15 c 0,58,59
 728 -15 728 -15 712 13.5 c 128,-1,60
 696 42 696 42 696 97 c 0,61,62
 696 103 696 103 696 110 c 2,63,-1
 701 319 l 2,64,65
 701 325 701 325 701 331 c 0,66,67
 701 437 701 437 630 473 c 1,68,69
 574 447 574 447 525.5 400.5 c 128,-1,70
 477 354 477 354 443 296 c 1,71,-1
 445 67 l 2,72,73
 445 -1 445 -1 531 -1 c 0,74,75
 549 -1 549 -1 571 4 c 1,76,-1
 573 -5 l 1,77,78
 555 -12 555 -12 525 -12 c 128,-1,79
 495 -12 495 -12 469.5 1 c 128,-1,80
 444 14 444 14 439 40 c 1,81,82
 434 14 434 14 408 1 c 128,-1,83
 382 -12 382 -12 360 -12 c 128,-1,84
 338 -12 338 -12 332 -11 c 1,85,-1
 333 -1 l 1,86,-1
 346 -1 l 2,87,88
 432 -1 432 -1 432 67 c 2,89,-1
 430 291 l 1,90,-1
 430 319 l 2,91,92
 430 325 430 325 430 331 c 0,0,1
EndSplineSet
EndChar

StartChar: n
Encoding: 110 110 81
Width: 572
GlyphClass: 2
Flags: W
LayerCount: 2
Fore
SplineSet
437 331 m 0,0,1
 437 437 437 437 366 473 c 1,2,3
 308 447 308 447 255.5 398.5 c 128,-1,4
 203 350 203 350 170 292 c 1,5,-1
 170 67 l 2,6,7
 170 -1 170 -1 256 -1 c 0,8,9
 274 -1 274 -1 296 4 c 1,10,-1
 298 -5 l 1,11,12
 280 -12 280 -12 250 -12 c 128,-1,13
 220 -12 220 -12 194 1 c 128,-1,14
 168 14 168 14 163 40 c 1,15,16
 158 14 158 14 132.5 1 c 128,-1,17
 107 -12 107 -12 77 -12 c 128,-1,18
 47 -12 47 -12 29 -5 c 1,19,-1
 31 4 l 1,20,21
 53 -1 53 -1 71 -1 c 0,22,23
 157 -1 157 -1 157 67 c 2,24,-1
 157 338 l 2,25,26
 157 471 157 471 71 471 c 0,27,28
 45 471 45 471 32 463 c 1,29,-1
 26 470 l 1,30,31
 41 482 41 482 74 482 c 0,32,33
 170 482 170 482 170 338 c 2,34,-1
 170 311 l 1,35,36
 204 370 204 370 257 415 c 128,-1,37
 310 460 310 460 367 485 c 1,38,39
 450 448 450 448 450 328 c 0,40,41
 450 323 450 323 450 319 c 2,42,-1
 445 110 l 2,43,44
 445 103 445 103 445 96 c 0,45,46
 445 47 445 47 458.5 21.5 c 128,-1,47
 472 -4 472 -4 521 -4 c 0,48,49
 547 -4 547 -4 560 4 c 1,50,-1
 566 -3 l 1,51,52
 551 -15 551 -15 518 -15 c 0,53,54
 464 -15 464 -15 448 13.5 c 128,-1,55
 432 42 432 42 432 97 c 0,56,57
 432 103 432 103 432 110 c 2,58,-1
 437 319 l 2,59,60
 437 325 437 325 437 331 c 0,0,1
EndSplineSet
EndChar

StartChar: o
Encoding: 111 111 82
Width: 483
GlyphClass: 2
Flags: W
LayerCount: 2
Fore
SplineSet
266 -13 m 0,0,1
 164 -13 164 -13 117.5 55.5 c 128,-1,2
 71 124 71 124 71 239 c 0,3,4
 71 376 71 376 152 474 c 1,5,6
 184 481 184 481 217 481 c 0,7,8
 320 481 320 481 366 421.5 c 128,-1,9
 412 362 412 362 412 249 c 0,10,11
 412 92 412 92 331 -6 c 1,12,13
 299 -13 299 -13 266 -13 c 0,0,1
269 -2 m 0,14,15
 298 -2 298 -2 325 4 c 1,16,17
 399 98 399 98 399 248 c 0,18,19
 399 357 399 357 356 413.5 c 128,-1,20
 313 470 313 470 214 470 c 0,21,22
 185 470 185 470 158 464 c 1,23,24
 84 373 84 373 84 240 c 0,25,26
 84 -2 84 -2 269 -2 c 0,14,15
EndSplineSet
EndChar

StartChar: p
Encoding: 112 112 83
Width: 540
GlyphClass: 2
Flags: W
LayerCount: 2
Fore
SplineSet
157 19 m 1,0,1
 130 27 130 27 108 27 c 128,-1,2
 86 27 86 27 67 22 c 1,3,-1
 65 31 l 1,4,5
 85 38 85 38 109 38 c 128,-1,6
 133 38 133 38 157 30 c 1,7,-1
 157 337 l 2,8,9
 157 470 157 470 71 470 c 0,10,11
 45 470 45 470 32 462 c 1,12,-1
 26 469 l 1,13,14
 41 481 41 481 74 481 c 0,15,16
 170 481 170 481 170 337 c 2,17,-1
 170 316 l 1,18,19
 204 373 204 373 259.5 419 c 128,-1,20
 315 465 315 465 364 485 c 1,21,22
 417 457 417 457 443 399 c 128,-1,23
 469 341 469 341 469 264 c 128,-1,24
 469 187 469 187 433.5 110 c 128,-1,25
 398 33 398 33 332 -15 c 1,26,27
 239 -15 239 -15 170 13 c 1,28,-1
 170 -133 l 2,29,30
 170 -201 170 -201 256 -201 c 0,31,32
 274 -201 274 -201 296 -196 c 1,33,-1
 298 -205 l 1,34,35
 280 -212 280 -212 250 -212 c 128,-1,36
 220 -212 220 -212 194 -199 c 128,-1,37
 168 -186 168 -186 163 -160 c 1,38,39
 158 -186 158 -186 132.5 -199 c 128,-1,40
 107 -212 107 -212 77 -212 c 128,-1,41
 47 -212 47 -212 29 -205 c 1,42,-1
 31 -196 l 1,43,44
 53 -201 53 -201 71 -201 c 0,45,46
 157 -201 157 -201 157 -133 c 2,47,-1
 157 19 l 1,0,1
422.5 117 m 128,-1,49
 455 190 455 190 455 262.5 c 128,-1,50
 455 335 455 335 432 390.5 c 128,-1,51
 409 446 409 446 362 471 c 1,52,53
 316 453 316 453 257.5 402.5 c 128,-1,54
 199 352 199 352 170 296 c 1,55,-1
 170 26 l 1,56,57
 235 -4 235 -4 329 -4 c 1,58,48
 390 44 390 44 422.5 117 c 128,-1,49
EndSplineSet
EndChar

StartChar: q
Encoding: 113 113 84
Width: 490
GlyphClass: 2
Flags: W
LayerCount: 2
Fore
SplineSet
370 -133 m 2,0,-1
 370 154 l 1,1,2
 336 97 336 97 280.5 51 c 128,-1,3
 225 5 225 5 176 -15 c 1,4,5
 123 13 123 13 97 71 c 128,-1,6
 71 129 71 129 71 206 c 128,-1,7
 71 283 71 283 106.5 360 c 128,-1,8
 142 437 142 437 208 485 c 1,9,10
 310 485 310 485 383 451 c 1,11,-1
 383 -133 l 2,12,13
 383 -201 383 -201 469 -201 c 0,14,15
 487 -201 487 -201 509 -196 c 1,16,-1
 511 -205 l 1,17,18
 493 -212 493 -212 463 -212 c 128,-1,19
 433 -212 433 -212 407 -199 c 128,-1,20
 381 -186 381 -186 376 -160 c 1,21,22
 371 -186 371 -186 345.5 -199 c 128,-1,23
 320 -212 320 -212 290 -212 c 128,-1,24
 260 -212 260 -212 242 -205 c 1,25,-1
 244 -196 l 1,26,27
 266 -201 266 -201 284 -201 c 0,28,29
 370 -201 370 -201 370 -133 c 2,0,-1
117.5 353 m 128,-1,31
 85 280 85 280 85 207.5 c 128,-1,32
 85 135 85 135 108 79.5 c 128,-1,33
 131 24 131 24 178 -1 c 1,34,35
 224 17 224 17 282.5 67.5 c 128,-1,36
 341 118 341 118 370 174 c 1,37,-1
 370 444 l 1,38,39
 305 474 305 474 211 474 c 1,40,30
 150 426 150 426 117.5 353 c 128,-1,31
EndSplineSet
EndChar

StartChar: r
Encoding: 114 114 85
Width: 384
GlyphClass: 2
Flags: W
LayerCount: 2
Fore
SplineSet
170 67 m 2,0,1
 170 -1 170 -1 256 -1 c 0,2,3
 274 -1 274 -1 296 4 c 1,4,-1
 298 -5 l 1,5,6
 280 -12 280 -12 250 -12 c 128,-1,7
 220 -12 220 -12 194 1 c 128,-1,8
 168 14 168 14 163 40 c 1,9,10
 158 14 158 14 132.5 1 c 128,-1,11
 107 -12 107 -12 77 -12 c 128,-1,12
 47 -12 47 -12 29 -5 c 1,13,-1
 31 4 l 1,14,15
 53 -1 53 -1 71 -1 c 0,16,17
 157 -1 157 -1 157 67 c 2,18,-1
 157 338 l 2,19,20
 157 471 157 471 71 471 c 0,21,22
 45 471 45 471 32 463 c 1,23,-1
 26 470 l 1,24,25
 41 482 41 482 74 482 c 0,26,27
 170 482 170 482 170 338 c 2,28,-1
 170 314 l 1,29,30
 225 444 225 444 329 485 c 1,31,32
 365 444 365 444 365 362 c 0,33,34
 365 357 365 357 365 353 c 1,35,-1
 352 353 l 1,36,37
 352 358 352 358 352 363 c 0,38,39
 352 434 352 434 324 471 c 1,40,41
 270 446 270 446 236.5 402.5 c 128,-1,42
 203 359 203 359 170 290 c 1,43,-1
 170 67 l 2,0,1
EndSplineSet
EndChar

StartChar: s
Encoding: 115 115 86
Width: 386
GlyphClass: 2
Flags: W
LayerCount: 2
Fore
SplineSet
89 344 m 0,0,1
 89 319 89 319 126 293 c 128,-1,2
 163 267 163 267 207.5 248.5 c 128,-1,3
 252 230 252 230 289 202.5 c 128,-1,4
 326 175 326 175 326 146 c 0,5,6
 326 100 326 100 286 56 c 128,-1,7
 246 12 246 12 194 -15 c 1,8,9
 119 -15 119 -15 50 27 c 1,10,-1
 56 36 l 1,11,12
 129 -4 129 -4 192 -4 c 1,13,14
 240 21 240 21 276.5 62 c 128,-1,15
 313 103 313 103 313 146 c 0,16,17
 313 171 313 171 276 197 c 128,-1,18
 239 223 239 223 194.5 241.5 c 128,-1,19
 150 260 150 260 113 287.5 c 128,-1,20
 76 315 76 315 76 349.5 c 128,-1,21
 76 384 76 384 113.5 424.5 c 128,-1,22
 151 465 151 465 193 485 c 1,23,24
 264 485 264 485 325 450 c 1,25,-1
 319 441 l 1,26,27
 259 474 259 474 196 474 c 1,28,29
 156 454 156 454 122.5 416.5 c 128,-1,30
 89 379 89 379 89 344 c 0,0,1
EndSplineSet
EndChar

StartChar: t
Encoding: 116 116 87
Width: 333
GlyphClass: 2
Flags: W
LayerCount: 2
Fore
SplineSet
28 459 m 1,0,-1
 28 470 l 1,1,-1
 127 470 l 1,2,-1
 130 585 l 1,3,-1
 143 585 l 1,4,-1
 140 470 l 1,5,-1
 301 470 l 1,6,-1
 301 459 l 1,7,-1
 140 459 l 1,8,-1
 134 151 l 2,9,10
 134 148 134 148 134 145 c 0,11,12
 134 33 134 33 205 -3 c 1,13,14
 267 26 267 26 311 74 c 1,15,-1
 319 67 l 1,16,17
 276 18 276 18 204 -15 c 1,18,19
 121 22 121 22 121 142 c 0,20,21
 121 147 121 147 121 151 c 2,22,-1
 127 459 l 1,23,-1
 28 459 l 1,0,-1
EndSplineSet
EndChar

StartChar: u
Encoding: 117 117 88
Width: 556
GlyphClass: 2
Flags: W
LayerCount: 2
Fore
SplineSet
413 403 m 2,0,-1
 413 132 l 2,1,2
 413 -1 413 -1 499 -1 c 0,3,4
 525 -1 525 -1 538 7 c 1,5,-1
 544 0 l 1,6,7
 529 -12 529 -12 496 -12 c 0,8,9
 400 -12 400 -12 400 132 c 2,10,-1
 400 158 l 1,11,12
 365 100 365 100 311.5 54.5 c 128,-1,13
 258 9 258 9 203 -15 c 1,14,15
 120 22 120 22 120 142 c 0,16,17
 120 147 120 147 120 151 c 2,18,-1
 125 360 l 2,19,20
 125 367 125 367 125 374 c 0,21,22
 125 423 125 423 111.5 448.5 c 128,-1,23
 98 474 98 474 49 474 c 0,24,25
 23 474 23 474 10 466 c 1,26,-1
 4 473 l 1,27,28
 19 485 19 485 52 485 c 0,29,30
 106 485 106 485 122 456.5 c 128,-1,31
 138 428 138 428 138 373 c 0,32,33
 138 367 138 367 138 360 c 2,34,-1
 133 151 l 2,35,36
 133 145 133 145 133 139 c 0,37,38
 133 33 133 33 204 -3 c 1,39,40
 261 23 261 23 313.5 71.5 c 128,-1,41
 366 120 366 120 400 178 c 1,42,-1
 400 403 l 2,43,44
 400 471 400 471 314 471 c 0,45,46
 296 471 296 471 274 466 c 1,47,-1
 272 475 l 1,48,49
 290 482 290 482 320 482 c 128,-1,50
 350 482 350 482 375.5 469 c 128,-1,51
 401 456 401 456 406 430 c 1,52,53
 411 456 411 456 437 469 c 128,-1,54
 463 482 463 482 493 482 c 128,-1,55
 523 482 523 482 541 475 c 1,56,-1
 539 466 l 1,57,58
 517 471 517 471 499 471 c 0,59,60
 413 471 413 471 413 403 c 2,0,-1
EndSplineSet
EndChar

StartChar: v
Encoding: 118 118 89
Width: 530
GlyphClass: 2
Flags: W
LayerCount: 2
Fore
SplineSet
419 423 m 2,0,-1
 419 403 l 2,1,2
 419 282 419 282 371 173.5 c 128,-1,3
 323 65 323 65 234 -15 c 1,4,5
 213 -4 213 -4 200 34.5 c 128,-1,6
 187 73 187 73 168 168 c 2,7,-1
 119 410 l 2,8,9
 111 446 111 446 95.5 460 c 128,-1,10
 80 474 80 474 49 474 c 128,-1,11
 18 474 18 474 5 466 c 1,12,-1
 -1 473 l 1,13,14
 14 485 14 485 50 485 c 128,-1,15
 86 485 86 485 104.5 469 c 128,-1,16
 123 453 123 453 131 414 c 2,17,-1
 180 171 l 2,18,19
 199 73 199 73 211 41 c 128,-1,20
 223 9 223 9 234 -1 c 1,21,22
 318 77 318 77 362 181.5 c 128,-1,23
 406 286 406 286 406 403 c 0,24,25
 406 471 406 471 320 471 c 2,26,-1
 307 471 l 1,27,-1
 306 481 l 1,28,29
 312 482 312 482 323 482 c 0,30,31
 392 482 392 482 410 440 c 1,32,-1
 410 441 l 1,33,34
 417 472 417 472 448 488.5 c 128,-1,35
 479 505 479 505 516 505 c 2,36,-1
 526 505 l 1,37,-1
 525 495 l 1,38,39
 480 495 480 495 449.5 477.5 c 128,-1,40
 419 460 419 460 419 423 c 2,0,-1
EndSplineSet
EndChar

StartChar: w
Encoding: 119 119 90
Width: 767
GlyphClass: 2
Flags: W
LayerCount: 2
Fore
SplineSet
495 471 m 2,0,1
 409 471 409 471 409 402.5 c 128,-1,2
 409 334 409 334 392 261 c 1,3,-1
 413 157 l 2,4,5
 438 29 438 29 471 -1 c 1,6,7
 555 77 555 77 599 181.5 c 128,-1,8
 643 286 643 286 643 403 c 0,9,10
 643 471 643 471 557 471 c 2,11,-1
 544 471 l 1,12,-1
 543 481 l 1,13,14
 549 482 549 482 560 482 c 0,15,16
 629 482 629 482 647 440 c 1,17,-1
 647 441 l 1,18,19
 654 472 654 472 685 488.5 c 128,-1,20
 716 505 716 505 753 505 c 2,21,-1
 763 505 l 1,22,-1
 762 495 l 1,23,24
 717 495 717 495 686.5 477.5 c 128,-1,25
 656 460 656 460 656 423 c 2,26,-1
 656 403 l 2,27,28
 656 282 656 282 608 173.5 c 128,-1,29
 560 65 560 65 471 -15 c 1,30,31
 430 8 430 8 401 154 c 2,32,-1
 385 233 l 1,33,34
 341 78 341 78 234 -15 c 1,35,36
 213 -4 213 -4 200 34.5 c 128,-1,37
 187 73 187 73 168 168 c 2,38,-1
 119 410 l 2,39,40
 111 446 111 446 95.5 460 c 128,-1,41
 80 474 80 474 49 474 c 128,-1,42
 18 474 18 474 5 466 c 1,43,-1
 -1 473 l 1,44,45
 14 485 14 485 50 485 c 128,-1,46
 86 485 86 485 104.5 469 c 128,-1,47
 123 453 123 453 131 414 c 2,48,-1
 180 171 l 2,49,50
 199 73 199 73 211 41 c 128,-1,51
 223 9 223 9 234 -1 c 1,52,53
 313 70 313 70 354.5 179 c 128,-1,54
 396 288 396 288 396 403 c 0,55,56
 396 471 396 471 310 471 c 0,57,58
 292 471 292 471 270 466 c 1,59,-1
 268 475 l 1,60,61
 286 482 286 482 316 482 c 128,-1,62
 346 482 346 482 371.5 469 c 128,-1,63
 397 456 397 456 402 430 c 1,64,65
 407 456 407 456 433 469 c 128,-1,66
 459 482 459 482 481 482 c 128,-1,67
 503 482 503 482 509 481 c 1,68,-1
 508 471 l 1,69,-1
 495 471 l 2,0,1
EndSplineSet
EndChar

StartChar: x
Encoding: 120 120 91
Width: 481
GlyphClass: 2
Flags: W
LayerCount: 2
Fore
SplineSet
308 345 m 128,-1,1
 336 394 336 394 336 419 c 128,-1,2
 336 444 336 444 314.5 457.5 c 128,-1,3
 293 471 293 471 265 471 c 128,-1,4
 237 471 237 471 215 466 c 1,5,-1
 213 475 l 1,6,7
 231 482 231 482 258 482 c 0,8,9
 325 482 325 482 343 441 c 1,10,11
 349 473 349 473 379.5 489 c 128,-1,12
 410 505 410 505 448 505 c 2,13,-1
 458 505 l 1,14,-1
 457 495 l 1,15,16
 358 495 358 495 350 427 c 1,17,18
 343 356 343 356 252 243 c 1,19,-1
 362 46 l 2,20,21
 378 18 378 18 391.5 7 c 128,-1,22
 405 -4 405 -4 433 -4 c 128,-1,23
 461 -4 461 -4 474 4 c 1,24,-1
 480 -3 l 1,25,26
 465 -15 465 -15 432.5 -15 c 128,-1,27
 400 -15 400 -15 384 -2 c 128,-1,28
 368 11 368 11 350 42 c 2,29,-1
 242 233 l 1,30,-1
 235 224 l 2,31,32
 205 187 205 187 172 126 c 128,-1,33
 139 65 139 65 139 45.5 c 128,-1,34
 139 26 139 26 160.5 12.5 c 128,-1,35
 182 -1 182 -1 210 -1 c 128,-1,36
 238 -1 238 -1 260 4 c 1,37,-1
 262 -5 l 1,38,39
 244 -12 244 -12 217 -12 c 0,40,41
 140 -12 140 -12 129 38 c 1,42,43
 111 -12 111 -12 38 -12 c 0,44,45
 11 -12 11 -12 -7 -5 c 1,46,-1
 -5 4 l 1,47,48
 17 -1 17 -1 35 -1 c 0,49,50
 88 -1 88 -1 109 24 c 0,51,52
 116 32 116 32 125 54 c 0,53,54
 161 149 161 149 230 236 c 1,55,-1
 236 244 l 1,56,-1
 136 424 l 2,57,58
 120 452 120 452 106.5 463 c 128,-1,59
 93 474 93 474 65 474 c 128,-1,60
 37 474 37 474 24 466 c 1,61,-1
 18 473 l 1,62,63
 33 485 33 485 65.5 485 c 128,-1,64
 98 485 98 485 114 472 c 128,-1,65
 130 459 130 459 148 428 c 2,66,-1
 246 253 l 1,67,0
 280 296 280 296 308 345 c 128,-1,1
EndSplineSet
EndChar

StartChar: y
Encoding: 121 121 92
Width: 563
GlyphClass: 2
Flags: W
LayerCount: 2
Fore
SplineSet
413 403 m 2,0,-1
 413 138 l 2,1,2
 413 13 413 13 439 -112 c 1,3,4
 427 -139 427 -139 390.5 -171 c 128,-1,5
 354 -203 354 -203 325 -215 c 1,6,7
 271 -215 271 -215 208 -196.5 c 128,-1,8
 145 -178 145 -178 100 -148 c 1,9,-1
 109 -137 l 1,10,11
 212 -203 212 -203 323 -203 c 1,12,13
 349 -191 349 -191 381.5 -163 c 128,-1,14
 414 -135 414 -135 426 -112 c 1,15,16
 400 18 400 18 400 138 c 2,17,-1
 400 158 l 1,18,19
 331 42 331 42 210 -15 c 1,20,21
 127 22 127 22 127 142 c 0,22,23
 127 147 127 147 127 151 c 2,24,-1
 132 360 l 2,25,26
 132 367 132 367 132 374 c 0,27,28
 132 423 132 423 118.5 448.5 c 128,-1,29
 105 474 105 474 56 474 c 0,30,31
 30 474 30 474 17 466 c 1,32,-1
 11 473 l 1,33,34
 26 485 26 485 59 485 c 0,35,36
 113 485 113 485 129 456.5 c 128,-1,37
 145 428 145 428 145 373 c 0,38,39
 145 367 145 367 145 360 c 2,40,-1
 140 151 l 2,41,42
 140 145 140 145 140 139 c 0,43,44
 140 33 140 33 211 -3 c 1,45,46
 327 54 327 54 400 178 c 1,47,-1
 400 403 l 2,48,49
 400 471 400 471 314 471 c 0,50,51
 296 471 296 471 274 466 c 1,52,-1
 272 475 l 1,53,54
 290 482 290 482 320 482 c 128,-1,55
 350 482 350 482 375.5 469 c 128,-1,56
 401 456 401 456 406 430 c 1,57,58
 411 456 411 456 437 469 c 128,-1,59
 463 482 463 482 493 482 c 128,-1,60
 523 482 523 482 541 475 c 1,61,-1
 539 466 l 1,62,63
 517 471 517 471 499 471 c 0,64,65
 413 471 413 471 413 403 c 2,0,-1
EndSplineSet
EndChar

StartChar: z
Encoding: 122 122 93
Width: 382
GlyphClass: 2
Flags: W
LayerCount: 2
Fore
SplineSet
142 270 m 1,0,1
 154 272 154 272 190 272 c 128,-1,2
 226 272 226 272 264 257 c 1,3,4
 286 268 286 268 325 281 c 1,5,-1
 329 271 l 1,6,7
 306 264 306 264 278 251 c 1,8,9
 350 212 350 212 350 101 c 0,10,11
 350 21 350 21 300 -49.5 c 128,-1,12
 250 -120 250 -120 177 -161 c 1,13,14
 122 -144 122 -144 77 -101.5 c 128,-1,15
 32 -59 32 -59 26 -3 c 1,16,17
 49 69 49 69 110.5 138 c 128,-1,18
 172 207 172 207 250 249 c 1,19,20
 214 261 214 261 178 261 c 128,-1,21
 142 261 142 261 114 256 c 1,22,-1
 111 266 l 1,23,24
 275 341 275 341 312 464 c 1,25,26
 277 459 277 459 238 459 c 0,27,28
 126 459 126 459 58 483 c 1,29,30
 73 447 73 447 73 399 c 0,31,32
 73 393 73 393 73 387 c 1,33,-1
 60 387 l 1,34,35
 60 394 60 394 60 400 c 0,36,37
 60 459 60 459 43 491 c 1,38,-1
 50 498 l 1,39,40
 118 470 118 470 238 470 c 0,41,42
 282 470 282 470 320 476 c 1,43,-1
 326 470 l 1,44,45
 308 402 308 402 255.5 350.5 c 128,-1,46
 203 299 203 299 142 270 c 1,0,1
337 101 m 0,47,48
 337 210 337 210 264 244 c 1,49,50
 187 203 187 203 124 134 c 128,-1,51
 61 65 61 65 39 -5 c 1,52,53
 47 -56 47 -56 86.5 -93 c 128,-1,54
 126 -130 126 -130 177 -149 c 1,55,56
 244 -110 244 -110 290.5 -42.5 c 128,-1,57
 337 25 337 25 337 101 c 0,47,48
EndSplineSet
EndChar

StartChar: braceleft
Encoding: 123 123 94
Width: 288
GlyphClass: 2
Flags: W
LayerCount: 2
Fore
SplineSet
132 462 m 128,-1,1
 119 556 119 556 119 599 c 128,-1,2
 119 642 119 642 153 678 c 128,-1,3
 187 714 187 714 229 729 c 1,4,-1
 233 719 l 1,5,6
 194 706 194 706 163 673 c 128,-1,7
 132 640 132 640 132 598.5 c 128,-1,8
 132 557 132 557 145 462 c 128,-1,9
 158 367 158 367 159 314 c 1,10,11
 139 276 139 276 94 248 c 1,12,13
 139 220 139 220 159 182 c 1,14,15
 158 129 158 129 145 34 c 128,-1,16
 132 -61 132 -61 132 -102.5 c 128,-1,17
 132 -144 132 -144 163 -177 c 128,-1,18
 194 -210 194 -210 233 -223 c 1,19,-1
 229 -233 l 1,20,21
 187 -218 187 -218 153 -182 c 128,-1,22
 119 -146 119 -146 119 -103 c 128,-1,23
 119 -60 119 -60 132 34 c 128,-1,24
 145 128 145 128 146 179 c 1,25,26
 138 197 138 197 118 215.5 c 128,-1,27
 98 234 98 234 75 245 c 1,28,-1
 75 251 l 1,29,30
 98 262 98 262 118 280.5 c 128,-1,31
 138 299 138 299 146 317 c 1,32,0
 145 368 145 368 132 462 c 128,-1,1
EndSplineSet
EndChar

StartChar: bar
Encoding: 124 124 95
Width: 241
GlyphClass: 2
Flags: W
LayerCount: 2
Fore
SplineSet
114 -215 m 1,0,-1
 114 745 l 1,1,-1
 127 749 l 1,2,-1
 127 -215 l 1,3,-1
 114 -215 l 1,0,-1
EndSplineSet
EndChar

StartChar: braceright
Encoding: 125 125 96
Width: 288
GlyphClass: 2
Flags: W
LayerCount: 2
Fore
SplineSet
156 34 m 128,-1,1
 169 -60 169 -60 169 -103 c 128,-1,2
 169 -146 169 -146 135 -182 c 128,-1,3
 101 -218 101 -218 59 -233 c 1,4,-1
 55 -223 l 1,5,6
 94 -210 94 -210 125 -177 c 128,-1,7
 156 -144 156 -144 156 -102.5 c 128,-1,8
 156 -61 156 -61 143 34 c 128,-1,9
 130 129 130 129 129 182 c 1,10,11
 149 220 149 220 194 248 c 1,12,13
 149 276 149 276 129 314 c 1,14,15
 130 367 130 367 143 462 c 128,-1,16
 156 557 156 557 156 598.5 c 128,-1,17
 156 640 156 640 125 673 c 128,-1,18
 94 706 94 706 55 719 c 1,19,-1
 59 729 l 1,20,21
 101 714 101 714 135 678 c 128,-1,22
 169 642 169 642 169 599 c 128,-1,23
 169 556 169 556 156 462 c 128,-1,24
 143 368 143 368 142 317 c 1,25,26
 150 299 150 299 170 280.5 c 128,-1,27
 190 262 190 262 213 251 c 1,28,-1
 213 245 l 1,29,30
 190 234 190 234 170 215.5 c 128,-1,31
 150 197 150 197 142 179 c 1,32,0
 143 128 143 128 156 34 c 128,-1,1
EndSplineSet
EndChar

StartChar: asciitilde
Encoding: 126 126 97
Width: 407
GlyphClass: 2
Flags: W
LayerCount: 2
Fore
SplineSet
16 231 m 1,0,-1
 7 237 l 1,1,2
 45 282 45 282 84 293 c 1,3,4
 121 293 121 293 203 260.5 c 128,-1,5
 285 228 285 228 324 227 c 1,6,7
 357 240 357 240 391 277 c 1,8,-1
 400 271 l 1,9,10
 364 226 364 226 323 215 c 1,11,12
 286 215 286 215 204 247.5 c 128,-1,13
 122 280 122 280 83 281 c 1,14,15
 50 268 50 268 16 231 c 1,0,-1
EndSplineSet
EndChar

StartChar: exclamdown
Encoding: 161 161 99
Width: 212
GlyphClass: 2
Flags: W
LayerCount: 2
Fore
SplineSet
84 447 m 0,0,1
 84 456 84 456 90 463 c 128,-1,2
 96 470 96 470 106 470 c 128,-1,3
 116 470 116 470 122 463 c 128,-1,4
 128 456 128 456 128 447 c 0,5,6
 128 425 128 425 106 425 c 128,-1,7
 84 425 84 425 84 447 c 0,0,1
112 300 m 1,8,-1
 94 -201 l 1,9,-1
 79 -199 l 1,10,-1
 99 300 l 1,11,-1
 112 300 l 1,8,-1
EndSplineSet
EndChar

StartChar: cent
Encoding: 162 162 100
Width: 450
GlyphClass: 2
Flags: W
LayerCount: 2
Fore
SplineSet
120.5 85 m 128,-1,1
 83 147 83 147 83 223.5 c 128,-1,2
 83 300 83 300 116 375.5 c 128,-1,3
 149 451 149 451 206 500 c 1,4,5
 227 500 227 500 237 499 c 1,6,-1
 239 587 l 1,7,-1
 252 589 l 1,8,-1
 250 497 l 1,9,10
 311 490 311 490 368 458 c 1,11,-1
 363 449 l 1,12,13
 306 479 306 479 250 486 c 1,14,-1
 238 14 l 1,15,16
 308 45 308 45 364 118 c 1,17,-1
 373 112 l 1,18,19
 316 37 316 37 238 1 c 1,20,-1
 236 -90 l 1,21,-1
 223 -87 l 1,22,-1
 225 0 l 1,23,0
 158 23 158 23 120.5 85 c 128,-1,1
126.5 370.5 m 128,-1,25
 97 299 97 299 97 225.5 c 128,-1,26
 97 152 97 152 130.5 94.5 c 128,-1,27
 164 37 164 37 225 13 c 1,28,-1
 237 488 l 1,29,30
 229 489 229 489 210 489 c 1,31,24
 156 442 156 442 126.5 370.5 c 128,-1,25
EndSplineSet
EndChar

StartChar: sterling
Encoding: 163 163 101
Width: 450
GlyphClass: 2
Flags: W
LayerCount: 2
Fore
SplineSet
126 233 m 2,0,1
 126 85 126 85 101 21 c 1,2,3
 135 26 135 26 213 26 c 128,-1,4
 291 26 291 26 377 -1 c 1,5,6
 362 35 362 35 362 83 c 0,7,8
 362 89 362 89 362 95 c 1,9,-1
 375 95 l 1,10,11
 375 88 375 88 375 82 c 0,12,13
 375 23 375 23 392 -9 c 1,14,-1
 385 -16 l 1,15,16
 302 15 302 15 192 15 c 0,17,18
 132 15 132 15 96 10 c 1,19,20
 86 -7 86 -7 80 -15 c 1,21,-1
 70 -9 l 1,22,23
 113 44 113 44 113 233 c 2,24,-1
 113 262 l 1,25,-1
 48 259 l 1,26,-1
 50 270 l 1,27,-1
 114 272 l 1,28,29
 128 447 128 447 239 540 c 1,30,31
 313 540 313 540 376 515 c 1,32,-1
 372 505 l 1,33,34
 314 529 314 529 243 529 c 1,35,36
 141 439 141 439 127 273 c 1,37,-1
 326 281 l 1,38,-1
 325 270 l 1,39,-1
 126 262 l 1,40,-1
 126 233 l 2,0,1
EndSplineSet
EndChar

StartChar: currency
Encoding: 164 164 102
Width: 579
GlyphClass: 2
Flags: W
LayerCount: 2
Fore
SplineSet
138 182 m 1,0,1
 87 239 87 239 87 318.5 c 128,-1,2
 87 398 87 398 138 455 c 1,3,-1
 40 551 l 1,4,-1
 46 562 l 1,5,-1
 146 463 l 1,6,7
 203 522 203 522 286 522 c 128,-1,8
 369 522 369 522 429 467 c 1,9,-1
 526 562 l 1,10,-1
 539 558 l 1,11,-1
 437 458 l 1,12,13
 492 400 492 400 492 319 c 128,-1,14
 492 238 492 238 437 180 c 1,15,-1
 539 80 l 1,16,-1
 526 76 l 1,17,-1
 428 171 l 1,18,19
 369 117 369 117 287 117 c 128,-1,20
 205 117 205 117 146 174 c 1,21,-1
 46 76 l 1,22,-1
 40 87 l 1,23,-1
 138 182 l 1,0,1
155 455 m 128,-1,25
 102 400 102 400 102 319 c 128,-1,26
 102 238 102 238 155 184 c 128,-1,27
 208 130 208 130 289 130 c 128,-1,28
 370 130 370 130 424 184 c 128,-1,29
 478 238 478 238 478 319 c 128,-1,30
 478 400 478 400 424 455 c 128,-1,31
 370 510 370 510 289 510 c 128,-1,24
 208 510 208 510 155 455 c 128,-1,25
EndSplineSet
EndChar

StartChar: yen
Encoding: 165 165 103
Width: 450
GlyphClass: 2
Flags: W
LayerCount: 2
Fore
SplineSet
227 107 m 2,0,1
 227 50 227 50 246 24.5 c 128,-1,2
 265 -1 265 -1 314 -1 c 0,3,4
 332 -1 332 -1 354 4 c 1,5,-1
 356 -6 l 1,6,7
 338 -12 338 -12 311 -12 c 0,8,9
 233 -12 233 -12 221 54 c 1,10,11
 208 -12 208 -12 131 -12 c 0,12,13
 104 -12 104 -12 86 -6 c 1,14,-1
 88 4 l 1,15,16
 110 -1 110 -1 128 -1 c 0,17,18
 178 -1 178 -1 196 25 c 128,-1,19
 214 51 214 51 214 107 c 2,20,-1
 214 143 l 1,21,-1
 48 136 l 1,22,-1
 50 147 l 1,23,-1
 214 154 l 1,24,-1
 214 216 l 1,25,-1
 48 209 l 1,26,-1
 50 220 l 1,27,-1
 212 226 l 1,28,29
 201 265 201 265 141 379 c 1,30,-1
 105 446 l 2,31,32
 69 515 69 515 41 523 c 0,33,34
 27 527 27 527 3.5 527 c 128,-1,35
 -20 527 -20 527 -33 519 c 1,36,-1
 -39 526 l 1,37,38
 -24 538 -24 538 12 538 c 128,-1,39
 48 538 48 538 68.5 520 c 128,-1,40
 89 502 89 502 114 455 c 2,41,-1
 151 386 l 2,42,43
 210 275 210 275 224 235 c 1,44,45
 341 431 341 431 341 476 c 0,46,47
 341 527 341 527 261 527 c 0,48,49
 243 527 243 527 221 522 c 1,50,-1
 219 531 l 1,51,52
 237 538 237 538 264 538 c 0,53,54
 341 538 341 538 352 488 c 1,55,56
 370 538 370 538 443 538 c 0,57,58
 470 538 470 538 488 531 c 1,59,-1
 486 522 l 1,60,61
 464 527 464 527 436 527 c 0,62,63
 374 527 374 527 356 470 c 0,64,65
 340 420 340 420 319.5 377.5 c 128,-1,66
 299 335 299 335 233 227 c 1,67,-1
 387 234 l 1,68,-1
 391 223 l 1,69,-1
 227 216 l 1,70,-1
 227 154 l 1,71,-1
 387 161 l 1,72,-1
 391 150 l 1,73,-1
 227 143 l 1,74,-1
 227 107 l 2,0,1
EndSplineSet
EndChar

StartChar: brokenbar
Encoding: 166 166 104
Width: 241
GlyphClass: 2
Flags: W
LayerCount: 2
Fore
SplineSet
127 328 m 1,0,-1
 114 324 l 1,1,-1
 114 745 l 1,2,-1
 127 749 l 1,3,-1
 127 328 l 1,0,-1
127 -215 m 1,4,-1
 114 -215 l 1,5,-1
 114 199 l 1,6,-1
 127 203 l 1,7,-1
 127 -215 l 1,4,-1
EndSplineSet
EndChar

StartChar: section
Encoding: 167 167 105
Width: 418
GlyphClass: 2
Flags: W
LayerCount: 2
Fore
SplineSet
341 267 m 0,0,1
 341 293 341 293 304 328 c 128,-1,2
 267 363 267 363 222.5 392.5 c 128,-1,3
 178 422 178 422 141 459 c 128,-1,4
 104 496 104 496 104 530.5 c 128,-1,5
 104 565 104 565 141.5 605.5 c 128,-1,6
 179 646 179 646 221 666 c 1,7,8
 292 666 292 666 353 631 c 1,9,-1
 347 622 l 1,10,11
 287 655 287 655 224 655 c 1,12,13
 184 635 184 635 150.5 597.5 c 128,-1,14
 117 560 117 560 117 529.5 c 128,-1,15
 117 499 117 499 154 464 c 128,-1,16
 191 429 191 429 235.5 399.5 c 128,-1,17
 280 370 280 370 317 333 c 128,-1,18
 354 296 354 296 354 267 c 0,19,20
 354 204 354 204 305 144 c 1,21,-1
 296 151 l 1,22,23
 341 209 341 209 341 267 c 0,0,1
77 284 m 0,24,25
 77 258 77 258 114 223 c 128,-1,26
 151 188 151 188 195.5 158.5 c 128,-1,27
 240 129 240 129 277 92 c 128,-1,28
 314 55 314 55 314 20.5 c 128,-1,29
 314 -14 314 -14 276.5 -54.5 c 128,-1,30
 239 -95 239 -95 197 -115 c 1,31,32
 126 -115 126 -115 65 -80 c 1,33,-1
 71 -71 l 1,34,35
 131 -104 131 -104 194 -104 c 1,36,37
 234 -84 234 -84 267.5 -46.5 c 128,-1,38
 301 -9 301 -9 301 21.5 c 128,-1,39
 301 52 301 52 264 87 c 128,-1,40
 227 122 227 122 182.5 151.5 c 128,-1,41
 138 181 138 181 101 218 c 128,-1,42
 64 255 64 255 64 284 c 0,43,44
 64 347 64 347 113 407 c 1,45,-1
 122 400 l 1,46,47
 77 342 77 342 77 284 c 0,24,25
EndSplineSet
EndChar

StartChar: dieresis
Encoding: 168 168 106
Width: 214
GlyphClass: 2
Flags: W
LayerCount: 2
Fore
SplineSet
51 620 m 0,0,1
 51 611 51 611 45 604 c 128,-1,2
 39 597 39 597 29 597 c 128,-1,3
 19 597 19 597 13 604 c 128,-1,4
 7 611 7 611 7 620 c 0,5,6
 7 642 7 642 29 642 c 128,-1,7
 51 642 51 642 51 620 c 0,0,1
207 620 m 0,8,9
 207 611 207 611 201 604 c 128,-1,10
 195 597 195 597 185 597 c 128,-1,11
 175 597 175 597 169 604 c 128,-1,12
 163 611 163 611 163 620 c 0,13,14
 163 642 163 642 185 642 c 128,-1,15
 207 642 207 642 207 620 c 0,8,9
EndSplineSet
EndChar

StartChar: copyright
Encoding: 169 169 107
Width: 765
GlyphClass: 2
Flags: W
LayerCount: 2
Fore
SplineSet
171 84 m 128,-1,1
 76 180 76 180 76 323.5 c 128,-1,2
 76 467 76 467 171.5 566 c 128,-1,3
 267 665 267 665 409.5 665 c 128,-1,4
 552 665 552 665 650.5 565.5 c 128,-1,5
 749 466 749 466 749 323 c 128,-1,6
 749 180 749 180 651 84 c 128,-1,7
 553 -12 553 -12 409.5 -12 c 128,-1,0
 266 -12 266 -12 171 84 c 128,-1,1
181 559 m 128,-1,9
 90 463 90 463 90 323.5 c 128,-1,10
 90 184 90 184 180.5 91.5 c 128,-1,11
 271 -1 271 -1 409.5 -1 c 128,-1,12
 548 -1 548 -1 642.5 92 c 128,-1,13
 737 185 737 185 737 323.5 c 128,-1,14
 737 462 737 462 642 558.5 c 128,-1,15
 547 655 547 655 409.5 655 c 128,-1,8
 272 655 272 655 181 559 c 128,-1,9
313 423.5 m 128,-1,17
 288 364 288 364 288 304 c 128,-1,18
 288 244 288 244 316.5 196.5 c 128,-1,19
 345 149 345 149 396 129 c 1,20,21
 460 157 460 157 509 217 c 1,22,-1
 517 210 l 1,23,24
 497 183 497 183 462.5 157 c 128,-1,25
 428 131 428 131 395 117 c 1,26,27
 337 137 337 137 306 187.5 c 128,-1,28
 275 238 275 238 275 302 c 128,-1,29
 275 366 275 366 303 429.5 c 128,-1,30
 331 493 331 493 379 533 c 1,31,32
 452 533 452 533 513 498 c 1,33,-1
 509 489 l 1,34,35
 450 522 450 522 383 522 c 1,36,16
 338 483 338 483 313 423.5 c 128,-1,17
EndSplineSet
EndChar

StartChar: ordfeminine
Encoding: 170 170 108
Width: 419
GlyphClass: 2
Flags: W
LayerCount: 2
Fore
SplineSet
313 607 m 2,0,-1
 313 376 l 2,1,2
 313 272 313 272 381 272 c 0,3,4
 400 272 400 272 412 279 c 1,5,-1
 417 271 l 1,6,7
 405 262 405 262 378 262 c 0,8,9
 300 262 300 262 300 376 c 2,10,-1
 300 392 l 1,11,12
 273 347 273 347 229.5 311 c 128,-1,13
 186 275 186 275 146 259 c 1,14,15
 103 280 103 280 82 327 c 128,-1,16
 61 374 61 374 61 437 c 128,-1,17
 61 500 61 500 90 561.5 c 128,-1,18
 119 623 119 623 172 661 c 1,19,20
 244 661 244 661 301 629 c 1,21,22
 306 668 306 668 328 696 c 1,23,-1
 337 691 l 1,24,25
 313 654 313 654 313 607 c 2,0,-1
100 553.5 m 128,-1,27
 74 495 74 495 74 438.5 c 128,-1,28
 74 382 74 382 92.5 337 c 128,-1,29
 111 292 111 292 148 272 c 1,30,31
 185 287 185 287 231 327 c 128,-1,32
 277 367 277 367 300 412 c 1,33,-1
 300 616 l 1,34,35
 241 650 241 650 174 650 c 1,36,26
 126 612 126 612 100 553.5 c 128,-1,27
EndSplineSet
EndChar

StartChar: guillemotleft
Encoding: 171 171 109
Width: 423
GlyphClass: 2
Flags: W
LayerCount: 2
Fore
SplineSet
30 270 m 1,0,-1
 30 280 l 1,1,2
 73 302 73 302 122.5 344.5 c 128,-1,3
 172 387 172 387 204 428 c 1,4,-1
 214 420 l 1,5,6
 182 379 182 379 135 338 c 128,-1,7
 88 297 88 297 48 275 c 1,8,9
 88 253 88 253 135 212 c 128,-1,10
 182 171 182 171 214 130 c 1,11,-1
 204 122 l 1,12,13
 172 163 172 163 122.5 205.5 c 128,-1,14
 73 248 73 248 30 270 c 1,0,-1
206 270 m 1,15,-1
 206 280 l 1,16,17
 249 302 249 302 298.5 344.5 c 128,-1,18
 348 387 348 387 380 428 c 1,19,-1
 390 420 l 1,20,21
 358 379 358 379 311 338 c 128,-1,22
 264 297 264 297 224 275 c 1,23,24
 264 253 264 253 311 212 c 128,-1,25
 358 171 358 171 390 130 c 1,26,-1
 380 122 l 1,27,28
 348 163 348 163 298.5 205.5 c 128,-1,29
 249 248 249 248 206 270 c 1,15,-1
EndSplineSet
EndChar

StartChar: logicalnot
Encoding: 172 172 110
Width: 520
GlyphClass: 2
Flags: W
LayerCount: 2
Fore
SplineSet
68 268 m 1,0,-1
 453 268 l 1,1,-1
 453 91 l 1,2,-1
 440 91 l 1,3,-1
 440 257 l 1,4,-1
 68 257 l 1,5,-1
 68 268 l 1,0,-1
EndSplineSet
EndChar

StartChar: registered
Encoding: 174 174 111
Width: 434
GlyphClass: 2
Flags: W
LayerCount: 2
Fore
SplineSet
20 498 m 128,-1,1
 20 581 20 581 76.5 638.5 c 128,-1,2
 133 696 133 696 216 696 c 128,-1,3
 299 696 299 696 356 638.5 c 128,-1,4
 413 581 413 581 413 498 c 128,-1,5
 413 415 413 415 356 359 c 128,-1,6
 299 303 299 303 216 303 c 128,-1,7
 133 303 133 303 76.5 359 c 128,-1,0
 20 415 20 415 20 498 c 128,-1,1
85 631.5 m 128,-1,9
 33 578 33 578 33 499 c 128,-1,10
 33 420 33 420 85.5 367 c 128,-1,11
 138 314 138 314 217 314 c 128,-1,12
 296 314 296 314 348 366 c 128,-1,13
 400 418 400 418 400 498 c 128,-1,14
 400 578 400 578 347.5 631.5 c 128,-1,15
 295 685 295 685 216 685 c 128,-1,8
 137 685 137 685 85 631.5 c 128,-1,9
129 578 m 0,16,17
 129 612 129 612 225 612 c 0,18,19
 254 612 254 612 267.5 601 c 128,-1,20
 281 590 281 590 281 566 c 128,-1,21
 281 542 281 542 270 526 c 128,-1,22
 259 510 259 510 239 506 c 1,23,24
 242 503 242 503 245 496.5 c 128,-1,25
 248 490 248 490 251 484 c 2,26,-1
 276 436 l 2,27,28
 289 412 289 412 302 412 c 0,29,30
 308 412 308 412 316 415 c 1,31,-1
 319 408 l 1,32,33
 312 403 312 403 301 403 c 0,34,35
 281 403 281 403 266 431 c 2,36,-1
 241 479 l 2,37,38
 229 504 229 504 224 505 c 2,39,-1
 203 507 l 1,40,-1
 204 518 l 1,41,42
 215 515 215 515 230 515 c 128,-1,43
 245 515 245 515 257 528 c 128,-1,44
 269 541 269 541 269 563.5 c 128,-1,45
 269 586 269 586 259 594.5 c 128,-1,46
 249 603 249 603 230 603 c 128,-1,47
 211 603 211 603 187 601 c 1,48,-1
 187 442 l 2,49,50
 187 413 187 413 208 413 c 0,51,52
 215 413 215 413 221 414 c 1,53,-1
 223 406 l 1,54,55
 219 404 219 404 207 404 c 0,56,57
 181 404 181 404 180 423 c 1,58,59
 177 404 177 404 152 404 c 0,60,61
 143 404 143 404 139 406 c 1,62,-1
 141 414 l 1,63,64
 146 413 146 413 152 413 c 0,65,66
 175 413 175 413 175 442 c 2,67,-1
 175 600 l 1,68,69
 150 596 150 596 145 591 c 128,-1,70
 140 586 140 586 140 578 c 128,-1,71
 140 570 140 570 142 564 c 1,72,-1
 134 561 l 1,73,74
 129 566 129 566 129 578 c 0,16,17
EndSplineSet
EndChar

StartChar: macron
Encoding: 175 175 112
Width: 242
GlyphClass: 2
Flags: W
LayerCount: 2
Fore
SplineSet
7 604 m 1,0,-1
 9 616 l 1,1,-1
 235 616 l 1,2,-1
 233 604 l 1,3,-1
 7 604 l 1,0,-1
EndSplineSet
EndChar

StartChar: degree
Encoding: 176 176 113
Width: 378
GlyphClass: 2
Flags: W
LayerCount: 2
Fore
SplineSet
93 435 m 128,-1,1
 54 474 54 474 54 530.5 c 128,-1,2
 54 587 54 587 93 626.5 c 128,-1,3
 132 666 132 666 188.5 666 c 128,-1,4
 245 666 245 666 284.5 626.5 c 128,-1,5
 324 587 324 587 324 530.5 c 128,-1,6
 324 474 324 474 284.5 435 c 128,-1,7
 245 396 245 396 188.5 396 c 128,-1,0
 132 396 132 396 93 435 c 128,-1,1
67 530 m 128,-1,9
 67 477 67 477 101.5 442 c 128,-1,10
 136 407 136 407 188.5 407 c 128,-1,11
 241 407 241 407 276 442 c 128,-1,12
 311 477 311 477 311 530 c 128,-1,13
 311 583 311 583 276 619 c 128,-1,14
 241 655 241 655 188.5 655 c 128,-1,15
 136 655 136 655 101.5 619 c 128,-1,8
 67 583 67 583 67 530 c 128,-1,9
EndSplineSet
EndChar

StartChar: plusminus
Encoding: 177 177 114
Width: 520
GlyphClass: 2
Flags: W
LayerCount: 2
Fore
SplineSet
68 315 m 1,0,-1
 254 315 l 1,1,-1
 254 456 l 1,2,-1
 267 456 l 1,3,-1
 267 315 l 1,4,-1
 453 315 l 1,5,-1
 453 304 l 1,6,-1
 267 304 l 1,7,-1
 267 120 l 1,8,-1
 254 120 l 1,9,-1
 254 304 l 1,10,-1
 68 304 l 1,11,-1
 68 315 l 1,0,-1
68 11 m 1,12,-1
 453 11 l 1,13,-1
 453 0 l 1,14,-1
 68 0 l 1,15,-1
 68 11 l 1,12,-1
EndSplineSet
EndChar

StartChar: twosuperior
Encoding: 178 178 115
Width: 344
GlyphClass: 2
Flags: W
LayerCount: 2
Fore
SplineSet
225.5 567.5 m 128,-1,1
 254 609 254 609 254 649.5 c 128,-1,2
 254 690 254 690 229 714 c 128,-1,3
 204 738 204 738 160 738 c 1,4,5
 108 724 108 724 63 676 c 1,6,-1
 56 681 l 1,7,8
 97 728 97 728 157 748 c 1,9,10
 207 748 207 748 237 721.5 c 128,-1,11
 267 695 267 695 267 653 c 128,-1,12
 267 611 267 611 243 572.5 c 128,-1,13
 219 534 219 534 188 506 c 0,14,15
 87 413 87 413 61 376 c 1,16,17
 92 379 92 379 149.5 379 c 128,-1,18
 207 379 207 379 276 358 c 1,19,20
 265 381 265 381 265 404 c 128,-1,21
 265 427 265 427 265 434 c 1,22,-1
 276 434 l 1,23,24
 276 428 276 428 276 422 c 0,25,26
 276 377 276 377 290 350 c 1,27,-1
 283 344 l 1,28,29
 217 368 217 368 146 368 c 128,-1,30
 75 368 75 368 52 364 c 1,31,-1
 42 347 l 1,32,-1
 32 350 l 1,33,34
 57 404 57 404 161 494 c 0,35,0
 197 526 197 526 225.5 567.5 c 128,-1,1
EndSplineSet
EndChar

StartChar: threesuperior
Encoding: 179 179 116
Width: 334
GlyphClass: 2
Flags: W
LayerCount: 2
Fore
SplineSet
235 403 m 128,-1,1
 267 435 267 435 267 484.5 c 128,-1,2
 267 534 267 534 237 556 c 128,-1,3
 207 578 207 578 147 578 c 2,4,-1
 136 578 l 1,5,-1
 136 581 l 1,6,7
 205 645 205 645 250 719 c 1,8,9
 232 717 232 717 177.5 717 c 128,-1,10
 123 717 123 717 68 736 c 1,11,12
 79 710 79 710 79 660 c 1,13,-1
 67 660 l 1,14,15
 67 666 67 666 67 673 c 0,16,17
 67 718 67 718 54 743 c 1,18,-1
 61 750 l 1,19,20
 115 728 115 728 199 728 c 0,21,22
 237 728 237 728 257 730 c 1,23,-1
 268 748 l 1,24,-1
 277 744 l 1,25,26
 239 666 239 666 159 589 c 1,27,28
 220 587 220 587 250 562 c 128,-1,29
 280 537 280 537 280 484.5 c 128,-1,30
 280 432 280 432 243.5 395.5 c 128,-1,31
 207 359 207 359 153 346 c 1,32,33
 98 356 98 356 43 392 c 1,34,-1
 49 401 l 1,35,36
 110 365 110 365 155 357 c 1,37,0
 203 371 203 371 235 403 c 128,-1,1
EndSplineSet
EndChar

StartChar: acute
Encoding: 180 180 117
Width: 181
GlyphClass: 2
Flags: W
LayerCount: 2
Fore
SplineSet
163 694 m 0,0,1
 174 694 174 694 174 683 c 1,2,-1
 13 532 l 1,3,-1
 7 539 l 1,4,-1
 154 690 l 2,5,6
 158 694 158 694 163 694 c 0,0,1
EndSplineSet
EndChar

StartChar: mu
Encoding: 181 181 118
AltUni2: 0003bc.ffffffff.0
Width: 565
GlyphClass: 2
Flags: W
LayerCount: 2
Fore
SplineSet
114 -200 m 1,0,-1
 114 470 l 1,1,-1
 127 470 l 1,2,-1
 127 151 l 2,3,4
 127 37 127 37 206 -3 c 1,5,6
 263 23 263 23 315.5 71.5 c 128,-1,7
 368 120 368 120 402 178 c 1,8,-1
 402 470 l 1,9,-1
 415 470 l 1,10,-1
 415 132 l 2,11,12
 415 -1 415 -1 501 -1 c 0,13,14
 527 -1 527 -1 540 7 c 1,15,-1
 546 0 l 1,16,17
 531 -12 531 -12 498 -12 c 0,18,19
 402 -12 402 -12 402 132 c 2,20,-1
 402 158 l 1,21,22
 367 100 367 100 313.5 54.5 c 128,-1,23
 260 9 260 9 205 -15 c 1,24,25
 137 13 137 13 125 85 c 1,26,-1
 128 -200 l 1,27,-1
 114 -200 l 1,0,-1
EndSplineSet
EndChar

StartChar: paragraph
Encoding: 182 182 119
Width: 498
GlyphClass: 2
Flags: W
LayerCount: 2
Fore
SplineSet
349 107 m 2,0,-1
 349 556 l 2,1,2
 349 616 349 616 371 645.5 c 128,-1,3
 393 675 393 675 446 675 c 0,4,5
 473 675 473 675 491 669 c 1,6,-1
 489 659 l 1,7,8
 467 664 467 664 449 664 c 0,9,10
 399 664 399 664 381 638 c 128,-1,11
 363 612 363 612 363 556 c 2,12,-1
 363 107 l 2,13,14
 363 51 363 51 381 25 c 128,-1,15
 399 -1 399 -1 449 -1 c 0,16,17
 467 -1 467 -1 489 4 c 1,18,-1
 491 -6 l 1,19,20
 473 -12 473 -12 446 -12 c 0,21,22
 393 -12 393 -12 371 17.5 c 128,-1,23
 349 47 349 47 349 107 c 2,0,-1
309 107 m 2,24,-1
 309 283 l 1,25,26
 291 280 291 280 266 280 c 0,27,28
 158 280 158 280 89.5 346 c 128,-1,29
 21 412 21 412 21 487 c 128,-1,30
 21 562 21 562 73.5 608.5 c 128,-1,31
 126 655 126 655 229 655 c 0,32,33
 255 655 255 655 323 651 c 1,34,-1
 323 107 l 2,35,36
 323 24 323 24 287 -37.5 c 128,-1,37
 251 -99 251 -99 179 -128 c 1,38,-1
 175 -116 l 1,39,40
 309 -62 309 -62 309 107 c 2,24,-1
309 640 m 1,41,-1
 229 643 l 1,42,43
 133 643 133 643 84 600 c 128,-1,44
 35 557 35 557 35 486.5 c 128,-1,45
 35 416 35 416 99.5 354 c 128,-1,46
 164 292 164 292 266 292 c 0,47,48
 286 292 286 292 309 295 c 1,49,-1
 309 640 l 1,41,-1
EndSplineSet
EndChar

StartChar: periodcentered
Encoding: 183 183 120
Width: 212
GlyphClass: 2
Flags: W
LayerCount: 2
Fore
SplineSet
128 284 m 0,0,1
 128 275 128 275 122 268 c 128,-1,2
 116 261 116 261 106 261 c 128,-1,3
 96 261 96 261 90 268 c 128,-1,4
 84 275 84 275 84 284 c 0,5,6
 84 306 84 306 106 306 c 128,-1,7
 128 306 128 306 128 284 c 0,0,1
EndSplineSet
EndChar

StartChar: cedilla
Encoding: 184 184 121
Width: 170
GlyphClass: 2
Flags: W
LayerCount: 2
Fore
SplineSet
141.5 -185.5 m 128,-1,1
 120 -207 120 -207 89 -215 c 1,2,3
 46 -215 46 -215 7 -193 c 1,4,-1
 13 -184 l 1,5,6
 50 -204 50 -204 87 -204 c 1,7,8
 114 -198 114 -198 131.5 -179.5 c 128,-1,9
 149 -161 149 -161 149 -138 c 128,-1,10
 149 -115 149 -115 141.5 -103 c 128,-1,11
 134 -91 134 -91 116 -86 c 0,12,13
 91 -79 91 -79 43 -79 c 1,14,-1
 39 -76 l 1,15,-1
 56 -6 l 1,16,-1
 68 -7 l 1,17,-1
 54 -68 l 1,18,19
 122 -68 122 -68 142.5 -85 c 128,-1,20
 163 -102 163 -102 163 -133 c 128,-1,0
 163 -164 163 -164 141.5 -185.5 c 128,-1,1
EndSplineSet
EndChar

StartChar: onesuperior
Encoding: 185 185 122
Width: 301
GlyphClass: 2
Flags: W
LayerCount: 2
Fore
SplineSet
172 413 m 2,0,1
 172 359 172 359 239 359 c 0,2,3
 251 359 251 359 271 363 c 1,4,-1
 273 354 l 1,5,6
 258 348 258 348 234.5 348 c 128,-1,7
 211 348 211 348 190 358.5 c 128,-1,8
 169 369 169 369 165 390 c 1,9,10
 161 369 161 369 140.5 358.5 c 128,-1,11
 120 348 120 348 96.5 348 c 128,-1,12
 73 348 73 348 58 354 c 1,13,-1
 59 363 l 1,14,15
 81 359 81 359 91 359 c 0,16,17
 159 359 159 359 159 413 c 2,18,-1
 159 727 l 1,19,20
 123 690 123 690 67 671 c 1,21,-1
 63 681 l 1,22,23
 124 701 124 701 163 748 c 1,24,-1
 172 746 l 1,25,-1
 172 413 l 2,0,1
EndSplineSet
EndChar

StartChar: ordmasculine
Encoding: 186 186 123
Width: 397
GlyphClass: 2
Flags: W
LayerCount: 2
Fore
SplineSet
218 261 m 0,0,1
 61 261 61 261 61 463 c 0,2,3
 61 575 61 575 126 652 c 1,4,5
 153 658 153 658 179 658 c 0,6,7
 263 658 263 658 299.5 610.5 c 128,-1,8
 336 563 336 563 336 471 c 0,9,10
 336 346 336 346 270 266 c 1,11,12
 246 261 246 261 218 261 c 0,0,1
220 272 m 0,13,14
 245 272 245 272 264 276 c 1,15,16
 323 352 323 352 323 471 c 0,17,18
 323 558 323 558 289.5 602.5 c 128,-1,19
 256 647 256 647 176 647 c 0,20,21
 151 647 151 647 132 642 c 1,22,23
 73 569 73 569 73 464 c 0,24,25
 73 272 73 272 220 272 c 0,13,14
EndSplineSet
EndChar

StartChar: guillemotright
Encoding: 187 187 124
Width: 423
GlyphClass: 2
Flags: W
LayerCount: 2
Fore
SplineSet
393 280 m 1,0,-1
 393 270 l 1,1,2
 350 248 350 248 300.5 205.5 c 128,-1,3
 251 163 251 163 219 122 c 1,4,-1
 209 130 l 1,5,6
 241 171 241 171 288 212 c 128,-1,7
 335 253 335 253 375 275 c 1,8,9
 335 297 335 297 288 338 c 128,-1,10
 241 379 241 379 209 420 c 1,11,-1
 219 428 l 1,12,13
 251 387 251 387 300.5 344.5 c 128,-1,14
 350 302 350 302 393 280 c 1,0,-1
217 280 m 1,15,-1
 217 270 l 1,16,17
 174 248 174 248 124.5 205.5 c 128,-1,18
 75 163 75 163 43 122 c 1,19,-1
 33 130 l 1,20,21
 65 171 65 171 112 212 c 128,-1,22
 159 253 159 253 199 275 c 1,23,24
 159 297 159 297 112 338 c 128,-1,25
 65 379 65 379 33 420 c 1,26,-1
 43 428 l 1,27,28
 75 387 75 387 124.5 344.5 c 128,-1,29
 174 302 174 302 217 280 c 1,15,-1
EndSplineSet
EndChar

StartChar: onequarter
Encoding: 188 188 125
Width: 800
GlyphClass: 2
Flags: W
LayerCount: 2
Fore
SplineSet
661 64 m 2,0,1
 661 11 661 11 729 11 c 0,2,3
 746 11 746 11 761 15 c 1,4,-1
 762 6 l 1,5,6
 747 0 747 0 726 0 c 0,7,8
 662 0 662 0 654 42 c 1,9,10
 647 0 647 0 583 0 c 0,11,12
 562 0 562 0 547 6 c 1,13,-1
 549 15 l 1,14,15
 562 11 562 11 581 11 c 0,16,17
 648 11 648 11 648 64 c 2,18,-1
 648 117 l 1,19,-1
 469 121 l 1,20,-1
 465 129 l 1,21,22
 512 179 512 179 567 259 c 128,-1,23
 622 339 622 339 649 398 c 1,24,-1
 661 399 l 1,25,-1
 661 128 l 1,26,-1
 743 126 l 1,27,-1
 743 115 l 1,28,-1
 661 117 l 1,29,-1
 661 64 l 2,0,1
648 371 m 1,30,31
 625 322 625 322 574 247.5 c 128,-1,32
 523 173 523 173 483 132 c 1,33,-1
 648 128 l 1,34,-1
 648 371 l 1,30,31
169 330 m 2,35,36
 169 276 169 276 236 276 c 0,37,38
 248 276 248 276 268 280 c 1,39,-1
 270 271 l 1,40,41
 255 265 255 265 231.5 265 c 128,-1,42
 208 265 208 265 187 275.5 c 128,-1,43
 166 286 166 286 162 307 c 1,44,45
 158 286 158 286 137.5 275.5 c 128,-1,46
 117 265 117 265 93.5 265 c 128,-1,47
 70 265 70 265 55 271 c 1,48,-1
 56 280 l 1,49,50
 78 276 78 276 88 276 c 0,51,52
 156 276 156 276 156 330 c 2,53,-1
 156 644 l 1,54,55
 120 607 120 607 64 588 c 1,56,-1
 60 598 l 1,57,58
 121 618 121 618 160 665 c 1,59,-1
 169 663 l 1,60,-1
 169 330 l 2,35,36
114 -34 m 1,61,-1
 645 700 l 1,62,-1
 657 696 l 1,63,-1
 123 -43 l 1,64,-1
 114 -34 l 1,61,-1
EndSplineSet
EndChar

StartChar: onehalf
Encoding: 189 189 126
Width: 800
GlyphClass: 2
Flags: W
LayerCount: 2
Fore
SplineSet
114 -34 m 1,0,-1
 645 700 l 1,1,-1
 657 696 l 1,2,-1
 123 -43 l 1,3,-1
 114 -34 l 1,0,-1
673.5 220.5 m 128,-1,5
 702 262 702 262 702 302.5 c 128,-1,6
 702 343 702 343 677 367 c 128,-1,7
 652 391 652 391 608 391 c 1,8,9
 556 377 556 377 511 329 c 1,10,-1
 504 334 l 1,11,12
 545 381 545 381 605 401 c 1,13,14
 655 401 655 401 685 374.5 c 128,-1,15
 715 348 715 348 715 306 c 128,-1,16
 715 264 715 264 691 225.5 c 128,-1,17
 667 187 667 187 636 159 c 0,18,19
 535 66 535 66 509 29 c 1,20,21
 540 32 540 32 597.5 32 c 128,-1,22
 655 32 655 32 724 11 c 1,23,24
 713 34 713 34 713 57 c 128,-1,25
 713 80 713 80 713 87 c 1,26,-1
 724 87 l 1,27,28
 724 81 724 81 724 75 c 0,29,30
 724 30 724 30 738 3 c 1,31,-1
 731 -3 l 1,32,33
 665 21 665 21 594 21 c 128,-1,34
 523 21 523 21 500 17 c 1,35,-1
 490 0 l 1,36,-1
 480 3 l 1,37,38
 505 57 505 57 609 148 c 0,39,4
 645 179 645 179 673.5 220.5 c 128,-1,5
169 330 m 2,40,41
 169 276 169 276 236 276 c 0,42,43
 248 276 248 276 268 280 c 1,44,-1
 270 271 l 1,45,46
 255 265 255 265 231.5 265 c 128,-1,47
 208 265 208 265 187 275.5 c 128,-1,48
 166 286 166 286 162 307 c 1,49,50
 158 286 158 286 137.5 275.5 c 128,-1,51
 117 265 117 265 93.5 265 c 128,-1,52
 70 265 70 265 55 271 c 1,53,-1
 56 280 l 1,54,55
 78 276 78 276 88 276 c 0,56,57
 156 276 156 276 156 330 c 2,58,-1
 156 644 l 1,59,60
 120 607 120 607 64 588 c 1,61,-1
 60 598 l 1,62,63
 121 618 121 618 160 665 c 1,64,-1
 169 663 l 1,65,-1
 169 330 l 2,40,41
EndSplineSet
EndChar

StartChar: threequarters
Encoding: 190 190 127
Width: 800
GlyphClass: 2
Flags: W
LayerCount: 2
Fore
SplineSet
661 64 m 2,0,1
 661 11 661 11 729 11 c 0,2,3
 746 11 746 11 761 15 c 1,4,-1
 762 6 l 1,5,6
 747 0 747 0 726 0 c 0,7,8
 662 0 662 0 654 42 c 1,9,10
 647 0 647 0 583 0 c 0,11,12
 562 0 562 0 547 6 c 1,13,-1
 549 15 l 1,14,15
 562 11 562 11 581 11 c 0,16,17
 648 11 648 11 648 64 c 2,18,-1
 648 117 l 1,19,-1
 469 121 l 1,20,-1
 465 129 l 1,21,22
 512 179 512 179 567 259 c 128,-1,23
 622 339 622 339 649 398 c 1,24,-1
 661 399 l 1,25,-1
 661 128 l 1,26,-1
 743 126 l 1,27,-1
 743 115 l 1,28,-1
 661 117 l 1,29,-1
 661 64 l 2,0,1
648 371 m 1,30,31
 625 322 625 322 574 247.5 c 128,-1,32
 523 173 523 173 483 132 c 1,33,-1
 648 128 l 1,34,-1
 648 371 l 1,30,31
114 -34 m 1,35,-1
 645 700 l 1,36,-1
 657 696 l 1,37,-1
 123 -43 l 1,38,-1
 114 -34 l 1,35,-1
243 322 m 128,-1,40
 275 354 275 354 275 403.5 c 128,-1,41
 275 453 275 453 245 475 c 128,-1,42
 215 497 215 497 155 497 c 2,43,-1
 144 497 l 1,44,-1
 144 500 l 1,45,46
 213 564 213 564 258 638 c 1,47,48
 240 636 240 636 185.5 636 c 128,-1,49
 131 636 131 636 76 655 c 1,50,51
 87 629 87 629 87 579 c 1,52,-1
 75 579 l 1,53,54
 75 585 75 585 75 592 c 0,55,56
 75 637 75 637 62 662 c 1,57,-1
 69 669 l 1,58,59
 123 647 123 647 207 647 c 0,60,61
 245 647 245 647 265 649 c 1,62,-1
 276 667 l 1,63,-1
 285 663 l 1,64,65
 247 585 247 585 167 508 c 1,66,67
 228 506 228 506 258 481 c 128,-1,68
 288 456 288 456 288 403.5 c 128,-1,69
 288 351 288 351 251.5 314.5 c 128,-1,70
 215 278 215 278 161 265 c 1,71,72
 106 275 106 275 51 311 c 1,73,-1
 57 320 l 1,74,75
 118 284 118 284 163 276 c 1,76,39
 211 290 211 290 243 322 c 128,-1,40
EndSplineSet
EndChar

StartChar: questiondown
Encoding: 191 191 128
Width: 335
GlyphClass: 2
Flags: W
LayerCount: 2
Fore
SplineSet
63 -89 m 0,0,1
 63 -144 63 -144 95 -174.5 c 128,-1,2
 127 -205 127 -205 182 -205 c 1,3,4
 250 -187 250 -187 303 -127 c 1,5,-1
 311 -133 l 1,6,7
 260 -191 260 -191 186 -215 c 1,8,9
 123 -215 123 -215 86.5 -182 c 128,-1,10
 50 -149 50 -149 50 -89 c 0,11,12
 50 28 50 28 194 140 c 1,13,-1
 194 293 l 1,14,-1
 207 294 l 1,15,-1
 207 136 l 1,16,17
 63 30 63 30 63 -89 c 0,0,1
222 463 m 0,18,19
 222 454 222 454 216 447 c 128,-1,20
 210 440 210 440 200 440 c 128,-1,21
 190 440 190 440 184 447 c 128,-1,22
 178 454 178 454 178 463 c 0,23,24
 178 485 178 485 200 485 c 128,-1,25
 222 485 222 485 222 463 c 0,18,19
EndSplineSet
EndChar

StartChar: Aacute
Encoding: 193 193 129
Width: 718
GlyphClass: 2
Flags: W
LayerCount: 2
Fore
SplineSet
525 253 m 1,0,-1
 315 254 l 1,1,-1
 270 85 l 2,2,3
 255 28 255 28 241 -9 c 128,-1,4
 227 -46 227 -46 204 -84 c 0,5,6
 156 -160 156 -160 62 -160 c 1,7,-1
 62 -148 l 1,8,9
 137 -148 137 -148 179 -97.5 c 128,-1,10
 221 -47 221 -47 246 41 c 1,11,-1
 256 62 l 1,12,-1
 254 63 l 1,13,14
 220 -13 220 -13 146 -13 c 0,15,16
 97 -13 97 -13 65 20 c 128,-1,17
 33 53 33 53 33 103 c 0,18,19
 33 266 33 266 305 266 c 1,20,-1
 405 644 l 1,21,-1
 374 645 l 2,22,23
 370 645 370 645 366 645 c 0,24,25
 311 645 311 645 277 619.5 c 128,-1,26
 243 594 243 594 243 552 c 0,27,28
 243 532 243 532 249 519 c 1,29,-1
 241 513 l 1,30,31
 230 525 230 525 230 554.5 c 128,-1,32
 230 584 230 584 251 610.5 c 128,-1,33
 272 637 272 637 305 646 c 0,34,35
 314 648 314 648 328 650 c 1,36,-1
 328 652 l 1,37,-1
 305 651 l 1,38,39
 209 663 209 663 149 705.5 c 128,-1,40
 89 748 89 748 89 828 c 1,41,-1
 101 829 l 1,42,43
 101 783 101 783 124 749.5 c 128,-1,44
 147 716 147 716 187 697 c 0,45,46
 263 661 263 661 367 657 c 2,47,-1
 539 649 l 1,48,-1
 539 107 l 2,49,50
 539 47 539 47 517 17.5 c 128,-1,51
 495 -12 495 -12 442 -12 c 0,52,53
 415 -12 415 -12 397 -6 c 1,54,-1
 399 4 l 1,55,56
 421 -1 421 -1 439 -1 c 0,57,58
 489 -1 489 -1 507 25 c 128,-1,59
 525 51 525 51 525 107 c 2,60,-1
 525 253 l 1,0,-1
366 266 m 1,61,-1
 525 265 l 1,62,-1
 525 638 l 1,63,-1
 418 643 l 1,64,-1
 318 266 l 1,65,-1
 366 266 l 1,61,-1
47 103 m 0,66,67
 47 59 47 59 75 29 c 128,-1,68
 103 -1 103 -1 146 -1 c 0,69,70
 215 -1 215 -1 248 72 c 0,71,72
 266 113 266 113 279 168 c 1,73,-1
 302 254 l 1,74,75
 47 252 47 252 47 103 c 0,66,67
565 107 m 2,76,-1
 565 605 l 2,77,78
 565 665 565 665 587 694.5 c 128,-1,79
 609 724 609 724 662 724 c 0,80,81
 689 724 689 724 707 718 c 1,82,-1
 705 708 l 1,83,84
 683 713 683 713 665 713 c 0,85,86
 615 713 615 713 597 687 c 128,-1,87
 579 661 579 661 579 605 c 2,88,-1
 579 107 l 2,89,90
 579 51 579 51 597 25 c 128,-1,91
 615 -1 615 -1 665 -1 c 0,92,93
 683 -1 683 -1 705 4 c 1,94,-1
 707 -6 l 1,95,96
 689 -12 689 -12 662 -12 c 0,97,98
 609 -12 609 -12 587 17.5 c 128,-1,99
 565 47 565 47 565 107 c 2,76,-1
606 853 m 0,100,101
 617 853 617 853 617 839 c 1,102,-1
 432 719 l 1,103,-1
 427 727 l 1,104,-1
 598 850 l 2,105,106
 602 853 602 853 606 853 c 0,100,101
EndSplineSet
EndChar

StartChar: Acircumflex
Encoding: 194 194 130
Width: 718
GlyphClass: 2
Flags: W
LayerCount: 2
Fore
SplineSet
525 253 m 1,0,-1
 315 254 l 1,1,-1
 270 85 l 2,2,3
 255 28 255 28 241 -9 c 128,-1,4
 227 -46 227 -46 204 -84 c 0,5,6
 156 -160 156 -160 62 -160 c 1,7,-1
 62 -148 l 1,8,9
 137 -148 137 -148 179 -97.5 c 128,-1,10
 221 -47 221 -47 246 41 c 1,11,-1
 256 62 l 1,12,-1
 254 63 l 1,13,14
 220 -13 220 -13 146 -13 c 0,15,16
 97 -13 97 -13 65 20 c 128,-1,17
 33 53 33 53 33 103 c 0,18,19
 33 266 33 266 305 266 c 1,20,-1
 405 644 l 1,21,-1
 374 645 l 2,22,23
 370 645 370 645 366 645 c 0,24,25
 311 645 311 645 277 619.5 c 128,-1,26
 243 594 243 594 243 552 c 0,27,28
 243 532 243 532 249 519 c 1,29,-1
 241 513 l 1,30,31
 230 525 230 525 230 554.5 c 128,-1,32
 230 584 230 584 251 610.5 c 128,-1,33
 272 637 272 637 305 646 c 0,34,35
 314 648 314 648 328 650 c 1,36,-1
 328 652 l 1,37,-1
 305 651 l 1,38,39
 209 663 209 663 149 705.5 c 128,-1,40
 89 748 89 748 89 828 c 1,41,-1
 101 829 l 1,42,43
 101 783 101 783 124 749.5 c 128,-1,44
 147 716 147 716 187 697 c 0,45,46
 263 661 263 661 367 657 c 2,47,-1
 539 649 l 1,48,-1
 539 107 l 2,49,50
 539 47 539 47 517 17.5 c 128,-1,51
 495 -12 495 -12 442 -12 c 0,52,53
 415 -12 415 -12 397 -6 c 1,54,-1
 399 4 l 1,55,56
 421 -1 421 -1 439 -1 c 0,57,58
 489 -1 489 -1 507 25 c 128,-1,59
 525 51 525 51 525 107 c 2,60,-1
 525 253 l 1,0,-1
366 266 m 1,61,-1
 525 265 l 1,62,-1
 525 638 l 1,63,-1
 418 643 l 1,64,-1
 318 266 l 1,65,-1
 366 266 l 1,61,-1
47 103 m 0,66,67
 47 59 47 59 75 29 c 128,-1,68
 103 -1 103 -1 146 -1 c 0,69,70
 215 -1 215 -1 248 72 c 0,71,72
 266 113 266 113 279 168 c 1,73,-1
 302 254 l 1,74,75
 47 252 47 252 47 103 c 0,66,67
565 107 m 2,76,-1
 565 605 l 2,77,78
 565 665 565 665 587 694.5 c 128,-1,79
 609 724 609 724 662 724 c 0,80,81
 689 724 689 724 707 718 c 1,82,-1
 705 708 l 1,83,84
 683 713 683 713 665 713 c 0,85,86
 615 713 615 713 597 687 c 128,-1,87
 579 661 579 661 579 605 c 2,88,-1
 579 107 l 2,89,90
 579 51 579 51 597 25 c 128,-1,91
 615 -1 615 -1 665 -1 c 0,92,93
 683 -1 683 -1 705 4 c 1,94,-1
 707 -6 l 1,95,96
 689 -12 689 -12 662 -12 c 0,97,98
 609 -12 609 -12 587 17.5 c 128,-1,99
 565 47 565 47 565 107 c 2,76,-1
472 868 m 128,-1,101
 477 868 477 868 481 864 c 2,102,-1
 599 740 l 1,103,-1
 592 734 l 1,104,-1
 472 846 l 1,105,-1
 352 734 l 1,106,-1
 345 740 l 1,107,-1
 463 864 l 2,108,100
 467 868 467 868 472 868 c 128,-1,101
EndSplineSet
EndChar

StartChar: Atilde
Encoding: 195 195 131
Width: 718
GlyphClass: 2
Flags: W
LayerCount: 2
Fore
SplineSet
525 253 m 1,0,-1
 315 254 l 1,1,-1
 270 85 l 2,2,3
 255 28 255 28 241 -9 c 128,-1,4
 227 -46 227 -46 204 -84 c 0,5,6
 156 -160 156 -160 62 -160 c 1,7,-1
 62 -148 l 1,8,9
 137 -148 137 -148 179 -97.5 c 128,-1,10
 221 -47 221 -47 246 41 c 1,11,-1
 256 62 l 1,12,-1
 254 63 l 1,13,14
 220 -13 220 -13 146 -13 c 0,15,16
 97 -13 97 -13 65 20 c 128,-1,17
 33 53 33 53 33 103 c 0,18,19
 33 266 33 266 305 266 c 1,20,-1
 405 644 l 1,21,-1
 374 645 l 2,22,23
 370 645 370 645 366 645 c 0,24,25
 311 645 311 645 277 619.5 c 128,-1,26
 243 594 243 594 243 552 c 0,27,28
 243 532 243 532 249 519 c 1,29,-1
 241 513 l 1,30,31
 230 525 230 525 230 554.5 c 128,-1,32
 230 584 230 584 251 610.5 c 128,-1,33
 272 637 272 637 305 646 c 0,34,35
 314 648 314 648 328 650 c 1,36,-1
 328 652 l 1,37,-1
 305 651 l 1,38,39
 209 663 209 663 149 705.5 c 128,-1,40
 89 748 89 748 89 828 c 1,41,-1
 101 829 l 1,42,43
 101 783 101 783 124 749.5 c 128,-1,44
 147 716 147 716 187 697 c 0,45,46
 263 661 263 661 367 657 c 2,47,-1
 539 649 l 1,48,-1
 539 107 l 2,49,50
 539 47 539 47 517 17.5 c 128,-1,51
 495 -12 495 -12 442 -12 c 0,52,53
 415 -12 415 -12 397 -6 c 1,54,-1
 399 4 l 1,55,56
 421 -1 421 -1 439 -1 c 0,57,58
 489 -1 489 -1 507 25 c 128,-1,59
 525 51 525 51 525 107 c 2,60,-1
 525 253 l 1,0,-1
366 266 m 1,61,-1
 525 265 l 1,62,-1
 525 638 l 1,63,-1
 418 643 l 1,64,-1
 318 266 l 1,65,-1
 366 266 l 1,61,-1
47 103 m 0,66,67
 47 59 47 59 75 29 c 128,-1,68
 103 -1 103 -1 146 -1 c 0,69,70
 215 -1 215 -1 248 72 c 0,71,72
 266 113 266 113 279 168 c 1,73,-1
 302 254 l 1,74,75
 47 252 47 252 47 103 c 0,66,67
565 107 m 2,76,-1
 565 605 l 2,77,78
 565 665 565 665 587 694.5 c 128,-1,79
 609 724 609 724 662 724 c 0,80,81
 689 724 689 724 707 718 c 1,82,-1
 705 708 l 1,83,84
 683 713 683 713 665 713 c 0,85,86
 615 713 615 713 597 687 c 128,-1,87
 579 661 579 661 579 605 c 2,88,-1
 579 107 l 2,89,90
 579 51 579 51 597 25 c 128,-1,91
 615 -1 615 -1 665 -1 c 0,92,93
 683 -1 683 -1 705 4 c 1,94,-1
 707 -6 l 1,95,96
 689 -12 689 -12 662 -12 c 0,97,98
 609 -12 609 -12 587 17.5 c 128,-1,99
 565 47 565 47 565 107 c 2,76,-1
346 777 m 1,100,-1
 337 783 l 1,101,102
 365 818 365 818 394 829 c 1,103,104
 422 829 422 829 473 806.5 c 128,-1,105
 524 784 524 784 551 783 c 1,106,107
 580 797 580 797 601 823 c 1,108,-1
 610 817 l 1,109,110
 582 782 582 782 553 771 c 1,111,112
 525 771 525 771 474 793.5 c 128,-1,113
 423 816 423 816 396 817 c 1,114,115
 367 803 367 803 346 777 c 1,100,-1
EndSplineSet
EndChar

StartChar: Adieresis
Encoding: 196 196 132
Width: 718
GlyphClass: 2
Flags: W
LayerCount: 2
Fore
SplineSet
525 253 m 1,0,-1
 315 254 l 1,1,-1
 270 85 l 2,2,3
 255 28 255 28 241 -9 c 128,-1,4
 227 -46 227 -46 204 -84 c 0,5,6
 156 -160 156 -160 62 -160 c 1,7,-1
 62 -148 l 1,8,9
 137 -148 137 -148 179 -97.5 c 128,-1,10
 221 -47 221 -47 246 41 c 1,11,-1
 256 62 l 1,12,-1
 254 63 l 1,13,14
 220 -13 220 -13 146 -13 c 0,15,16
 97 -13 97 -13 65 20 c 128,-1,17
 33 53 33 53 33 103 c 0,18,19
 33 266 33 266 305 266 c 1,20,-1
 405 644 l 1,21,-1
 374 645 l 2,22,23
 370 645 370 645 366 645 c 0,24,25
 311 645 311 645 277 619.5 c 128,-1,26
 243 594 243 594 243 552 c 0,27,28
 243 532 243 532 249 519 c 1,29,-1
 241 513 l 1,30,31
 230 525 230 525 230 554.5 c 128,-1,32
 230 584 230 584 251 610.5 c 128,-1,33
 272 637 272 637 305 646 c 0,34,35
 314 648 314 648 328 650 c 1,36,-1
 328 652 l 1,37,-1
 305 651 l 1,38,39
 209 663 209 663 149 705.5 c 128,-1,40
 89 748 89 748 89 828 c 1,41,-1
 101 829 l 1,42,43
 101 783 101 783 124 749.5 c 128,-1,44
 147 716 147 716 187 697 c 0,45,46
 263 661 263 661 367 657 c 2,47,-1
 539 649 l 1,48,-1
 539 107 l 2,49,50
 539 47 539 47 517 17.5 c 128,-1,51
 495 -12 495 -12 442 -12 c 0,52,53
 415 -12 415 -12 397 -6 c 1,54,-1
 399 4 l 1,55,56
 421 -1 421 -1 439 -1 c 0,57,58
 489 -1 489 -1 507 25 c 128,-1,59
 525 51 525 51 525 107 c 2,60,-1
 525 253 l 1,0,-1
366 266 m 1,61,-1
 525 265 l 1,62,-1
 525 638 l 1,63,-1
 418 643 l 1,64,-1
 318 266 l 1,65,-1
 366 266 l 1,61,-1
47 103 m 0,66,67
 47 59 47 59 75 29 c 128,-1,68
 103 -1 103 -1 146 -1 c 0,69,70
 215 -1 215 -1 248 72 c 0,71,72
 266 113 266 113 279 168 c 1,73,-1
 302 254 l 1,74,75
 47 252 47 252 47 103 c 0,66,67
565 107 m 2,76,-1
 565 605 l 2,77,78
 565 665 565 665 587 694.5 c 128,-1,79
 609 724 609 724 662 724 c 0,80,81
 689 724 689 724 707 718 c 1,82,-1
 705 708 l 1,83,84
 683 713 683 713 665 713 c 0,85,86
 615 713 615 713 597 687 c 128,-1,87
 579 661 579 661 579 605 c 2,88,-1
 579 107 l 2,89,90
 579 51 579 51 597 25 c 128,-1,91
 615 -1 615 -1 665 -1 c 0,92,93
 683 -1 683 -1 705 4 c 1,94,-1
 707 -6 l 1,95,96
 689 -12 689 -12 662 -12 c 0,97,98
 609 -12 609 -12 587 17.5 c 128,-1,99
 565 47 565 47 565 107 c 2,76,-1
417 800 m 0,100,101
 417 791 417 791 411 784 c 128,-1,102
 405 777 405 777 395 777 c 128,-1,103
 385 777 385 777 379 784 c 128,-1,104
 373 791 373 791 373 800 c 0,105,106
 373 822 373 822 395 822 c 128,-1,107
 417 822 417 822 417 800 c 0,100,101
573 800 m 0,108,109
 573 791 573 791 567 784 c 128,-1,110
 561 777 561 777 551 777 c 128,-1,111
 541 777 541 777 535 784 c 128,-1,112
 529 791 529 791 529 800 c 0,113,114
 529 822 529 822 551 822 c 128,-1,115
 573 822 573 822 573 800 c 0,108,109
EndSplineSet
EndChar

StartChar: Aring
Encoding: 197 197 133
Width: 718
GlyphClass: 2
Flags: W
LayerCount: 2
Fore
SplineSet
525 253 m 1,0,-1
 315 254 l 1,1,-1
 270 85 l 2,2,3
 255 28 255 28 241 -9 c 128,-1,4
 227 -46 227 -46 204 -84 c 0,5,6
 156 -160 156 -160 62 -160 c 1,7,-1
 62 -148 l 1,8,9
 137 -148 137 -148 179 -97.5 c 128,-1,10
 221 -47 221 -47 246 41 c 1,11,-1
 256 62 l 1,12,-1
 254 63 l 1,13,14
 220 -13 220 -13 146 -13 c 0,15,16
 97 -13 97 -13 65 20 c 128,-1,17
 33 53 33 53 33 103 c 0,18,19
 33 266 33 266 305 266 c 1,20,-1
 405 644 l 1,21,-1
 374 645 l 2,22,23
 370 645 370 645 366 645 c 0,24,25
 311 645 311 645 277 619.5 c 128,-1,26
 243 594 243 594 243 552 c 0,27,28
 243 532 243 532 249 519 c 1,29,-1
 241 513 l 1,30,31
 230 525 230 525 230 554.5 c 128,-1,32
 230 584 230 584 251 610.5 c 128,-1,33
 272 637 272 637 305 646 c 0,34,35
 314 648 314 648 328 650 c 1,36,-1
 328 652 l 1,37,-1
 305 651 l 1,38,39
 209 663 209 663 149 705.5 c 128,-1,40
 89 748 89 748 89 828 c 1,41,-1
 101 829 l 1,42,43
 101 783 101 783 124 749.5 c 128,-1,44
 147 716 147 716 187 697 c 0,45,46
 263 661 263 661 367 657 c 2,47,-1
 539 649 l 1,48,-1
 539 107 l 2,49,50
 539 47 539 47 517 17.5 c 128,-1,51
 495 -12 495 -12 442 -12 c 0,52,53
 415 -12 415 -12 397 -6 c 1,54,-1
 399 4 l 1,55,56
 421 -1 421 -1 439 -1 c 0,57,58
 489 -1 489 -1 507 25 c 128,-1,59
 525 51 525 51 525 107 c 2,60,-1
 525 253 l 1,0,-1
366 266 m 1,61,-1
 525 265 l 1,62,-1
 525 638 l 1,63,-1
 418 643 l 1,64,-1
 318 266 l 1,65,-1
 366 266 l 1,61,-1
47 103 m 0,66,67
 47 59 47 59 75 29 c 128,-1,68
 103 -1 103 -1 146 -1 c 0,69,70
 215 -1 215 -1 248 72 c 0,71,72
 266 113 266 113 279 168 c 1,73,-1
 302 254 l 1,74,75
 47 252 47 252 47 103 c 0,66,67
565 107 m 2,76,-1
 565 605 l 2,77,78
 565 665 565 665 587 694.5 c 128,-1,79
 609 724 609 724 662 724 c 0,80,81
 689 724 689 724 707 718 c 1,82,-1
 705 708 l 1,83,84
 683 713 683 713 665 713 c 0,85,86
 615 713 615 713 597 687 c 128,-1,87
 579 661 579 661 579 605 c 2,88,-1
 579 107 l 2,89,90
 579 51 579 51 597 25 c 128,-1,91
 615 -1 615 -1 665 -1 c 0,92,93
 683 -1 683 -1 705 4 c 1,94,-1
 707 -6 l 1,95,96
 689 -12 689 -12 662 -12 c 0,97,98
 609 -12 609 -12 587 17.5 c 128,-1,99
 565 47 565 47 565 107 c 2,76,-1
530 857.5 m 128,-1,101
 551 836 551 836 551 801 c 128,-1,102
 551 766 551 766 529.5 741.5 c 128,-1,103
 508 717 508 717 472 717 c 128,-1,104
 436 717 436 717 414.5 741.5 c 128,-1,105
 393 766 393 766 393 800 c 128,-1,106
 393 834 393 834 414.5 856.5 c 128,-1,107
 436 879 436 879 472.5 879 c 128,-1,100
 509 879 509 879 530 857.5 c 128,-1,101
520.5 749 m 128,-1,109
 538 770 538 770 538 800.5 c 128,-1,110
 538 831 538 831 521 849.5 c 128,-1,111
 504 868 504 868 472.5 868 c 128,-1,112
 441 868 441 868 423 848.5 c 128,-1,113
 405 829 405 829 405 800.5 c 128,-1,114
 405 772 405 772 424 750 c 128,-1,115
 443 728 443 728 473 728 c 128,-1,108
 503 728 503 728 520.5 749 c 128,-1,109
EndSplineSet
EndChar

StartChar: AE
Encoding: 198 198 134
Width: 921
GlyphClass: 2
Flags: W
LayerCount: 2
Fore
SplineSet
416 643 m 1,0,-1
 296 649 l 1,1,2
 180 649 180 649 180 559 c 0,3,4
 180 526 180 526 197 504 c 128,-1,5
 214 482 214 482 243 482 c 128,-1,6
 272 482 272 482 288.5 499 c 128,-1,7
 305 516 305 516 305 544 c 0,8,9
 305 554 305 554 302 564 c 1,10,-1
 313 568 l 1,11,12
 318 556 318 556 318 544 c 0,13,14
 318 511 318 511 298 490.5 c 128,-1,15
 278 470 278 470 243.5 470 c 128,-1,16
 209 470 209 470 187.5 495.5 c 128,-1,17
 166 521 166 521 166 560 c 0,18,19
 166 661 166 661 300 661 c 0,20,21
 354 661 354 661 431 654 c 1,22,-1
 521 649 l 1,23,-1
 521 107 l 2,24,25
 521 47 521 47 499 17.5 c 128,-1,26
 477 -12 477 -12 424 -12 c 0,27,28
 397 -12 397 -12 379 -6 c 1,29,-1
 381 4 l 1,30,31
 403 -1 403 -1 421 -1 c 0,32,33
 471 -1 471 -1 489 25 c 128,-1,34
 507 51 507 51 507 107 c 2,35,-1
 507 298 l 1,36,-1
 322 298 l 1,37,-1
 255 85 l 2,38,39
 238 32 238 32 228 3.5 c 128,-1,40
 218 -25 218 -25 199.5 -61.5 c 128,-1,41
 181 -98 181 -98 162 -116 c 0,42,43
 116 -158 116 -158 44 -160 c 1,44,-1
 44 -148 l 1,45,46
 88 -148 88 -148 119.5 -133 c 128,-1,47
 151 -118 151 -118 174 -78.5 c 128,-1,48
 197 -39 197 -39 207.5 -14 c 128,-1,49
 218 11 218 11 228 43.5 c 128,-1,50
 238 76 238 76 238 78 c 0,51,52
 240 84 240 84 242 88 c 2,53,-1
 416 643 l 1,0,-1
507 310 m 1,54,-1
 507 638 l 1,55,-1
 430 643 l 1,56,-1
 326 310 l 1,57,-1
 507 310 l 1,54,-1
561 298 m 1,58,-1
 561 38 l 1,59,60
 637 -1 637 -1 700.5 -1 c 128,-1,61
 764 -1 764 -1 791.5 21 c 128,-1,62
 819 43 819 43 819 99 c 0,63,64
 819 117 819 117 814 132 c 1,65,-1
 825 137 l 1,66,67
 832 120 832 120 832 99 c 0,68,69
 832 39 832 39 801 13 c 128,-1,70
 770 -13 770 -13 700 -13 c 128,-1,71
 630 -13 630 -13 547 30 c 1,72,-1
 547 648 l 1,73,-1
 674 656 l 1,74,75
 778 660 778 660 854 696 c 0,76,77
 894 715 894 715 917 748.5 c 128,-1,78
 940 782 940 782 940 828 c 1,79,-1
 952 827 l 1,80,81
 952 747 952 747 892 704.5 c 128,-1,82
 832 662 832 662 736 650 c 0,83,84
 729 650 729 650 713 651 c 1,85,-1
 713 649 l 1,86,87
 727 647 727 647 736 645 c 0,88,89
 769 636 769 636 790 609.5 c 128,-1,90
 811 583 811 583 811 553.5 c 128,-1,91
 811 524 811 524 800 512 c 1,92,-1
 792 518 l 1,93,94
 798 531 798 531 798 551 c 0,95,96
 798 593 798 593 764.5 618.5 c 128,-1,97
 731 644 731 644 679 644 c 0,98,99
 673 644 673 644 667 644 c 2,100,-1
 561 637 l 1,101,-1
 561 310 l 1,102,-1
 665 310 l 2,103,104
 737 310 737 310 737 351 c 0,105,106
 737 362 737 362 732 372 c 1,107,-1
 742 377 l 1,108,109
 750 367 750 367 750 349.5 c 128,-1,110
 750 332 750 332 736.5 319 c 128,-1,111
 723 306 723 306 704 303 c 1,112,113
 743 290 743 290 751 229 c 1,114,-1
 739 226 l 1,115,116
 732 265 732 265 716 281.5 c 128,-1,117
 700 298 700 298 664 298 c 2,118,-1
 561 298 l 1,58,-1
EndSplineSet
EndChar

StartChar: Ccedilla
Encoding: 199 199 135
Width: 490
GlyphClass: 2
Flags: W
LayerCount: 2
Fore
SplineSet
30 290 m 0,0,1
 30 150 30 150 89.5 73 c 128,-1,2
 149 -4 149 -4 280 -14 c 1,3,4
 389 2 389 2 465 64 c 1,5,-1
 455 74 l 1,6,7
 390 18 390 18 290 0 c 1,8,-1
 290 654 l 1,9,10
 352 654 352 654 386 647 c 0,11,12
 410 642 410 642 422.5 632.5 c 128,-1,13
 435 623 435 623 444 604.5 c 128,-1,14
 453 586 453 586 453 556.5 c 128,-1,15
 453 527 453 527 436 505 c 128,-1,16
 419 483 419 483 390 483 c 128,-1,17
 361 483 361 483 344.5 500 c 128,-1,18
 328 517 328 517 328 545 c 0,19,20
 328 554 328 554 331 565 c 1,21,-1
 320 569 l 1,22,23
 315 557 315 557 315 545 c 0,24,25
 315 512 315 512 335 491.5 c 128,-1,26
 355 471 355 471 389.5 471 c 128,-1,27
 424 471 424 471 445.5 496.5 c 128,-1,28
 467 522 467 522 467 568.5 c 128,-1,29
 467 615 467 615 432 641 c 0,30,31
 400 666 400 666 287 666 c 2,32,-1
 276 666 l 1,33,-1
 277 297 l 1,34,-1
 282 275 l 1,35,-1
 280 274 l 1,36,-1
 274 296 l 1,37,38
 267 314 267 314 250 326 c 1,39,-1
 250 666 l 1,40,-1
 248 666 l 1,41,42
 149 621 149 621 89.5 511 c 128,-1,43
 30 401 30 401 30 290 c 0,0,1
276 237 m 2,44,-1
 276 -1 l 1,45,46
 44 20 44 20 44 290 c 0,47,48
 44 394 44 394 96 496.5 c 128,-1,49
 148 599 148 599 236 646 c 1,50,-1
 236 333 l 1,51,52
 221 340 221 340 196.5 340 c 128,-1,53
 172 340 172 340 152 328 c 1,54,-1
 157 320 l 1,55,56
 174 329 174 329 197 329 c 0,57,58
 276 329 276 329 276 237 c 2,44,-1
354.5 -184.5 m 128,-1,60
 333 -206 333 -206 302 -214 c 1,61,62
 259 -214 259 -214 220 -192 c 1,63,-1
 226 -183 l 1,64,65
 263 -203 263 -203 300 -203 c 1,66,67
 327 -197 327 -197 344.5 -178.5 c 128,-1,68
 362 -160 362 -160 362 -137 c 128,-1,69
 362 -114 362 -114 354.5 -102 c 128,-1,70
 347 -90 347 -90 329 -85 c 0,71,72
 304 -78 304 -78 256 -78 c 1,73,-1
 252 -75 l 1,74,-1
 269 -5 l 1,75,-1
 281 -6 l 1,76,-1
 267 -67 l 1,77,78
 335 -67 335 -67 355.5 -84 c 128,-1,79
 376 -101 376 -101 376 -132 c 128,-1,59
 376 -163 376 -163 354.5 -184.5 c 128,-1,60
EndSplineSet
EndChar

StartChar: Egrave
Encoding: 200 200 136
Width: 549
GlyphClass: 2
Flags: W
LayerCount: 2
Fore
SplineSet
438 609.5 m 128,-1,1
 459 583 459 583 459 553.5 c 128,-1,2
 459 524 459 524 448 512 c 1,3,-1
 440 518 l 1,4,5
 446 532 446 532 446 551 c 0,6,7
 446 593 446 593 412.5 618.5 c 128,-1,8
 379 644 379 644 327 644 c 0,9,10
 321 644 321 644 315 644 c 2,11,-1
 189 637 l 1,12,-1
 189 340 l 1,13,-1
 313 340 l 2,14,15
 385 340 385 340 385 381 c 0,16,17
 385 392 385 392 380 402 c 1,18,-1
 390 407 l 1,19,20
 398 397 398 397 398 379.5 c 128,-1,21
 398 362 398 362 384.5 349 c 128,-1,22
 371 336 371 336 352 333 c 1,23,24
 391 320 391 320 399 259 c 1,25,-1
 387 256 l 1,26,27
 380 295 380 295 364 311.5 c 128,-1,28
 348 328 348 328 312 328 c 2,29,-1
 189 328 l 1,30,-1
 189 42 l 1,31,32
 273 -1 273 -1 342.5 -1 c 128,-1,33
 412 -1 412 -1 439.5 21 c 128,-1,34
 467 43 467 43 467 99 c 0,35,36
 467 117 467 117 462 132 c 1,37,-1
 473 137 l 1,38,39
 480 120 480 120 480 99 c 0,40,41
 480 39 480 39 449 13 c 128,-1,42
 418 -13 418 -13 354 -13 c 0,43,44
 261 -13 261 -13 175 34 c 1,45,-1
 175 648 l 1,46,-1
 322 656 l 1,47,48
 426 660 426 660 502 696 c 0,49,50
 542 715 542 715 565 748.5 c 128,-1,51
 588 782 588 782 588 828 c 1,52,-1
 600 827 l 1,53,54
 600 747 600 747 540 704.5 c 128,-1,55
 480 662 480 662 384 650 c 0,56,57
 377 650 377 650 361 651 c 1,58,-1
 361 649 l 1,59,60
 375 647 375 647 384 645 c 0,61,0
 417 636 417 636 438 609.5 c 128,-1,1
149 605 m 2,62,-1
 149 107 l 2,63,64
 149 47 149 47 127 17.5 c 128,-1,65
 105 -12 105 -12 52 -12 c 0,66,67
 25 -12 25 -12 7 -6 c 1,68,-1
 9 4 l 1,69,70
 31 -1 31 -1 49 -1 c 0,71,72
 99 -1 99 -1 117 25 c 128,-1,73
 135 51 135 51 135 107 c 2,74,-1
 135 605 l 2,75,76
 135 661 135 661 117 687 c 128,-1,77
 99 713 99 713 49 713 c 0,78,79
 31 713 31 713 9 708 c 1,80,-1
 7 718 l 1,81,82
 25 724 25 724 52 724 c 0,83,84
 105 724 105 724 127 694.5 c 128,-1,85
 149 665 149 665 149 605 c 2,62,-1
153 868 m 0,86,87
 156 868 156 868 161 865 c 2,88,-1
 332 742 l 1,89,-1
 327 734 l 1,90,-1
 142 854 l 1,91,92
 142 868 142 868 153 868 c 0,86,87
EndSplineSet
EndChar

StartChar: Eacute
Encoding: 201 201 137
Width: 549
GlyphClass: 2
Flags: W
LayerCount: 2
Fore
SplineSet
438 609.5 m 128,-1,1
 459 583 459 583 459 553.5 c 128,-1,2
 459 524 459 524 448 512 c 1,3,-1
 440 518 l 1,4,5
 446 532 446 532 446 551 c 0,6,7
 446 593 446 593 412.5 618.5 c 128,-1,8
 379 644 379 644 327 644 c 0,9,10
 321 644 321 644 315 644 c 2,11,-1
 189 637 l 1,12,-1
 189 340 l 1,13,-1
 313 340 l 2,14,15
 385 340 385 340 385 381 c 0,16,17
 385 392 385 392 380 402 c 1,18,-1
 390 407 l 1,19,20
 398 397 398 397 398 379.5 c 128,-1,21
 398 362 398 362 384.5 349 c 128,-1,22
 371 336 371 336 352 333 c 1,23,24
 391 320 391 320 399 259 c 1,25,-1
 387 256 l 1,26,27
 380 295 380 295 364 311.5 c 128,-1,28
 348 328 348 328 312 328 c 2,29,-1
 189 328 l 1,30,-1
 189 42 l 1,31,32
 273 -1 273 -1 342.5 -1 c 128,-1,33
 412 -1 412 -1 439.5 21 c 128,-1,34
 467 43 467 43 467 99 c 0,35,36
 467 117 467 117 462 132 c 1,37,-1
 473 137 l 1,38,39
 480 120 480 120 480 99 c 0,40,41
 480 39 480 39 449 13 c 128,-1,42
 418 -13 418 -13 354 -13 c 0,43,44
 261 -13 261 -13 175 34 c 1,45,-1
 175 648 l 1,46,-1
 322 656 l 1,47,48
 426 660 426 660 502 696 c 0,49,50
 542 715 542 715 565 748.5 c 128,-1,51
 588 782 588 782 588 828 c 1,52,-1
 600 827 l 1,53,54
 600 747 600 747 540 704.5 c 128,-1,55
 480 662 480 662 384 650 c 0,56,57
 377 650 377 650 361 651 c 1,58,-1
 361 649 l 1,59,60
 375 647 375 647 384 645 c 0,61,0
 417 636 417 636 438 609.5 c 128,-1,1
149 605 m 2,62,-1
 149 107 l 2,63,64
 149 47 149 47 127 17.5 c 128,-1,65
 105 -12 105 -12 52 -12 c 0,66,67
 25 -12 25 -12 7 -6 c 1,68,-1
 9 4 l 1,69,70
 31 -1 31 -1 49 -1 c 0,71,72
 99 -1 99 -1 117 25 c 128,-1,73
 135 51 135 51 135 107 c 2,74,-1
 135 605 l 2,75,76
 135 661 135 661 117 687 c 128,-1,77
 99 713 99 713 49 713 c 0,78,79
 31 713 31 713 9 708 c 1,80,-1
 7 718 l 1,81,82
 25 724 25 724 52 724 c 0,83,84
 105 724 105 724 127 694.5 c 128,-1,85
 149 665 149 665 149 605 c 2,62,-1
421 853 m 0,86,87
 432 853 432 853 432 839 c 1,88,-1
 247 719 l 1,89,-1
 242 727 l 1,90,-1
 413 850 l 2,91,92
 417 853 417 853 421 853 c 0,86,87
EndSplineSet
EndChar

StartChar: Ecircumflex
Encoding: 202 202 138
Width: 549
GlyphClass: 2
Flags: W
LayerCount: 2
Fore
SplineSet
438 609.5 m 128,-1,1
 459 583 459 583 459 553.5 c 128,-1,2
 459 524 459 524 448 512 c 1,3,-1
 440 518 l 1,4,5
 446 532 446 532 446 551 c 0,6,7
 446 593 446 593 412.5 618.5 c 128,-1,8
 379 644 379 644 327 644 c 0,9,10
 321 644 321 644 315 644 c 2,11,-1
 189 637 l 1,12,-1
 189 340 l 1,13,-1
 313 340 l 2,14,15
 385 340 385 340 385 381 c 0,16,17
 385 392 385 392 380 402 c 1,18,-1
 390 407 l 1,19,20
 398 397 398 397 398 379.5 c 128,-1,21
 398 362 398 362 384.5 349 c 128,-1,22
 371 336 371 336 352 333 c 1,23,24
 391 320 391 320 399 259 c 1,25,-1
 387 256 l 1,26,27
 380 295 380 295 364 311.5 c 128,-1,28
 348 328 348 328 312 328 c 2,29,-1
 189 328 l 1,30,-1
 189 42 l 1,31,32
 273 -1 273 -1 342.5 -1 c 128,-1,33
 412 -1 412 -1 439.5 21 c 128,-1,34
 467 43 467 43 467 99 c 0,35,36
 467 117 467 117 462 132 c 1,37,-1
 473 137 l 1,38,39
 480 120 480 120 480 99 c 0,40,41
 480 39 480 39 449 13 c 128,-1,42
 418 -13 418 -13 354 -13 c 0,43,44
 261 -13 261 -13 175 34 c 1,45,-1
 175 648 l 1,46,-1
 322 656 l 1,47,48
 426 660 426 660 502 696 c 0,49,50
 542 715 542 715 565 748.5 c 128,-1,51
 588 782 588 782 588 828 c 1,52,-1
 600 827 l 1,53,54
 600 747 600 747 540 704.5 c 128,-1,55
 480 662 480 662 384 650 c 0,56,57
 377 650 377 650 361 651 c 1,58,-1
 361 649 l 1,59,60
 375 647 375 647 384 645 c 0,61,0
 417 636 417 636 438 609.5 c 128,-1,1
149 605 m 2,62,-1
 149 107 l 2,63,64
 149 47 149 47 127 17.5 c 128,-1,65
 105 -12 105 -12 52 -12 c 0,66,67
 25 -12 25 -12 7 -6 c 1,68,-1
 9 4 l 1,69,70
 31 -1 31 -1 49 -1 c 0,71,72
 99 -1 99 -1 117 25 c 128,-1,73
 135 51 135 51 135 107 c 2,74,-1
 135 605 l 2,75,76
 135 661 135 661 117 687 c 128,-1,77
 99 713 99 713 49 713 c 0,78,79
 31 713 31 713 9 708 c 1,80,-1
 7 718 l 1,81,82
 25 724 25 724 52 724 c 0,83,84
 105 724 105 724 127 694.5 c 128,-1,85
 149 665 149 665 149 605 c 2,62,-1
287 868 m 128,-1,87
 292 868 292 868 296 864 c 2,88,-1
 414 740 l 1,89,-1
 407 734 l 1,90,-1
 287 846 l 1,91,-1
 167 734 l 1,92,-1
 160 740 l 1,93,-1
 278 864 l 2,94,86
 282 868 282 868 287 868 c 128,-1,87
EndSplineSet
EndChar

StartChar: Edieresis
Encoding: 203 203 139
Width: 549
GlyphClass: 2
Flags: W
LayerCount: 2
Fore
SplineSet
438 609.5 m 128,-1,1
 459 583 459 583 459 553.5 c 128,-1,2
 459 524 459 524 448 512 c 1,3,-1
 440 518 l 1,4,5
 446 532 446 532 446 551 c 0,6,7
 446 593 446 593 412.5 618.5 c 128,-1,8
 379 644 379 644 327 644 c 0,9,10
 321 644 321 644 315 644 c 2,11,-1
 189 637 l 1,12,-1
 189 340 l 1,13,-1
 313 340 l 2,14,15
 385 340 385 340 385 381 c 0,16,17
 385 392 385 392 380 402 c 1,18,-1
 390 407 l 1,19,20
 398 397 398 397 398 379.5 c 128,-1,21
 398 362 398 362 384.5 349 c 128,-1,22
 371 336 371 336 352 333 c 1,23,24
 391 320 391 320 399 259 c 1,25,-1
 387 256 l 1,26,27
 380 295 380 295 364 311.5 c 128,-1,28
 348 328 348 328 312 328 c 2,29,-1
 189 328 l 1,30,-1
 189 42 l 1,31,32
 273 -1 273 -1 342.5 -1 c 128,-1,33
 412 -1 412 -1 439.5 21 c 128,-1,34
 467 43 467 43 467 99 c 0,35,36
 467 117 467 117 462 132 c 1,37,-1
 473 137 l 1,38,39
 480 120 480 120 480 99 c 0,40,41
 480 39 480 39 449 13 c 128,-1,42
 418 -13 418 -13 354 -13 c 0,43,44
 261 -13 261 -13 175 34 c 1,45,-1
 175 648 l 1,46,-1
 322 656 l 1,47,48
 426 660 426 660 502 696 c 0,49,50
 542 715 542 715 565 748.5 c 128,-1,51
 588 782 588 782 588 828 c 1,52,-1
 600 827 l 1,53,54
 600 747 600 747 540 704.5 c 128,-1,55
 480 662 480 662 384 650 c 0,56,57
 377 650 377 650 361 651 c 1,58,-1
 361 649 l 1,59,60
 375 647 375 647 384 645 c 0,61,0
 417 636 417 636 438 609.5 c 128,-1,1
149 605 m 2,62,-1
 149 107 l 2,63,64
 149 47 149 47 127 17.5 c 128,-1,65
 105 -12 105 -12 52 -12 c 0,66,67
 25 -12 25 -12 7 -6 c 1,68,-1
 9 4 l 1,69,70
 31 -1 31 -1 49 -1 c 0,71,72
 99 -1 99 -1 117 25 c 128,-1,73
 135 51 135 51 135 107 c 2,74,-1
 135 605 l 2,75,76
 135 661 135 661 117 687 c 128,-1,77
 99 713 99 713 49 713 c 0,78,79
 31 713 31 713 9 708 c 1,80,-1
 7 718 l 1,81,82
 25 724 25 724 52 724 c 0,83,84
 105 724 105 724 127 694.5 c 128,-1,85
 149 665 149 665 149 605 c 2,62,-1
232 800 m 0,86,87
 232 791 232 791 226 784 c 128,-1,88
 220 777 220 777 210 777 c 128,-1,89
 200 777 200 777 194 784 c 128,-1,90
 188 791 188 791 188 800 c 0,91,92
 188 822 188 822 210 822 c 128,-1,93
 232 822 232 822 232 800 c 0,86,87
388 800 m 0,94,95
 388 791 388 791 382 784 c 128,-1,96
 376 777 376 777 366 777 c 128,-1,97
 356 777 356 777 350 784 c 128,-1,98
 344 791 344 791 344 800 c 0,99,100
 344 822 344 822 366 822 c 128,-1,101
 388 822 388 822 388 800 c 0,94,95
EndSplineSet
EndChar

StartChar: Igrave
Encoding: 204 204 140
Width: 358
GlyphClass: 2
Flags: W
LayerCount: 2
Fore
SplineSet
169 107 m 2,0,-1
 169 638 l 1,1,-1
 138 640 l 2,2,3
 134 640 134 640 130 640 c 0,4,5
 82 640 82 640 48 617 c 128,-1,6
 14 594 14 594 14 547 c 0,7,8
 14 528 14 528 20 514 c 1,9,-1
 12 508 l 1,10,11
 1 520 1 520 1 549.5 c 128,-1,12
 1 579 1 579 22 606 c 128,-1,13
 43 633 43 633 76 642 c 0,14,15
 77 642 77 642 99 645 c 1,16,-1
 99 647 l 1,17,-1
 76 646 l 1,18,19
 -20 658 -20 658 -80 700.5 c 128,-1,20
 -140 743 -140 743 -140 823 c 1,21,-1
 -128 824 l 1,22,23
 -128 778 -128 778 -105 744.5 c 128,-1,24
 -82 711 -82 711 -42 692 c 0,25,26
 32 658 32 658 138 652 c 1,27,-1
 183 649 l 1,28,-1
 183 107 l 2,29,30
 183 47 183 47 161 17.5 c 128,-1,31
 139 -12 139 -12 86 -12 c 0,32,33
 59 -12 59 -12 41 -6 c 1,34,-1
 43 4 l 1,35,36
 65 -1 65 -1 83 -1 c 0,37,38
 133 -1 133 -1 151 25 c 128,-1,39
 169 51 169 51 169 107 c 2,0,-1
209 107 m 2,40,-1
 209 605 l 2,41,42
 209 665 209 665 231 694.5 c 128,-1,43
 253 724 253 724 306 724 c 0,44,45
 333 724 333 724 351 718 c 1,46,-1
 349 708 l 1,47,48
 327 713 327 713 309 713 c 0,49,50
 259 713 259 713 241 687 c 128,-1,51
 223 661 223 661 223 605 c 2,52,-1
 223 107 l 2,53,54
 223 51 223 51 241 25 c 128,-1,55
 259 -1 259 -1 309 -1 c 0,56,57
 327 -1 327 -1 349 4 c 1,58,-1
 351 -6 l 1,59,60
 333 -12 333 -12 306 -12 c 0,61,62
 253 -12 253 -12 231 17.5 c 128,-1,63
 209 47 209 47 209 107 c 2,40,-1
42 868 m 0,64,65
 45 868 45 868 50 865 c 2,66,-1
 221 742 l 1,67,-1
 216 734 l 1,68,-1
 31 854 l 1,69,70
 31 868 31 868 42 868 c 0,64,65
EndSplineSet
EndChar

StartChar: Iacute
Encoding: 205 205 141
Width: 358
GlyphClass: 2
Flags: W
LayerCount: 2
Fore
SplineSet
169 107 m 2,0,-1
 169 638 l 1,1,-1
 138 640 l 2,2,3
 134 640 134 640 130 640 c 0,4,5
 82 640 82 640 48 617 c 128,-1,6
 14 594 14 594 14 547 c 0,7,8
 14 528 14 528 20 514 c 1,9,-1
 12 508 l 1,10,11
 1 520 1 520 1 549.5 c 128,-1,12
 1 579 1 579 22 606 c 128,-1,13
 43 633 43 633 76 642 c 0,14,15
 77 642 77 642 99 645 c 1,16,-1
 99 647 l 1,17,-1
 76 646 l 1,18,19
 -20 658 -20 658 -80 700.5 c 128,-1,20
 -140 743 -140 743 -140 823 c 1,21,-1
 -128 824 l 1,22,23
 -128 778 -128 778 -105 744.5 c 128,-1,24
 -82 711 -82 711 -42 692 c 0,25,26
 32 658 32 658 138 652 c 1,27,-1
 183 649 l 1,28,-1
 183 107 l 2,29,30
 183 47 183 47 161 17.5 c 128,-1,31
 139 -12 139 -12 86 -12 c 0,32,33
 59 -12 59 -12 41 -6 c 1,34,-1
 43 4 l 1,35,36
 65 -1 65 -1 83 -1 c 0,37,38
 133 -1 133 -1 151 25 c 128,-1,39
 169 51 169 51 169 107 c 2,0,-1
209 107 m 2,40,-1
 209 605 l 2,41,42
 209 665 209 665 231 694.5 c 128,-1,43
 253 724 253 724 306 724 c 0,44,45
 333 724 333 724 351 718 c 1,46,-1
 349 708 l 1,47,48
 327 713 327 713 309 713 c 0,49,50
 259 713 259 713 241 687 c 128,-1,51
 223 661 223 661 223 605 c 2,52,-1
 223 107 l 2,53,54
 223 51 223 51 241 25 c 128,-1,55
 259 -1 259 -1 309 -1 c 0,56,57
 327 -1 327 -1 349 4 c 1,58,-1
 351 -6 l 1,59,60
 333 -12 333 -12 306 -12 c 0,61,62
 253 -12 253 -12 231 17.5 c 128,-1,63
 209 47 209 47 209 107 c 2,40,-1
310 853 m 0,64,65
 321 853 321 853 321 839 c 1,66,-1
 136 719 l 1,67,-1
 131 727 l 1,68,-1
 302 850 l 2,69,70
 306 853 306 853 310 853 c 0,64,65
EndSplineSet
EndChar

StartChar: Icircumflex
Encoding: 206 206 142
Width: 358
GlyphClass: 2
Flags: W
LayerCount: 2
Fore
SplineSet
169 107 m 2,0,-1
 169 638 l 1,1,-1
 138 640 l 2,2,3
 134 640 134 640 130 640 c 0,4,5
 82 640 82 640 48 617 c 128,-1,6
 14 594 14 594 14 547 c 0,7,8
 14 528 14 528 20 514 c 1,9,-1
 12 508 l 1,10,11
 1 520 1 520 1 549.5 c 128,-1,12
 1 579 1 579 22 606 c 128,-1,13
 43 633 43 633 76 642 c 0,14,15
 77 642 77 642 99 645 c 1,16,-1
 99 647 l 1,17,-1
 76 646 l 1,18,19
 -20 658 -20 658 -80 700.5 c 128,-1,20
 -140 743 -140 743 -140 823 c 1,21,-1
 -128 824 l 1,22,23
 -128 778 -128 778 -105 744.5 c 128,-1,24
 -82 711 -82 711 -42 692 c 0,25,26
 32 658 32 658 138 652 c 1,27,-1
 183 649 l 1,28,-1
 183 107 l 2,29,30
 183 47 183 47 161 17.5 c 128,-1,31
 139 -12 139 -12 86 -12 c 0,32,33
 59 -12 59 -12 41 -6 c 1,34,-1
 43 4 l 1,35,36
 65 -1 65 -1 83 -1 c 0,37,38
 133 -1 133 -1 151 25 c 128,-1,39
 169 51 169 51 169 107 c 2,0,-1
209 107 m 2,40,-1
 209 605 l 2,41,42
 209 665 209 665 231 694.5 c 128,-1,43
 253 724 253 724 306 724 c 0,44,45
 333 724 333 724 351 718 c 1,46,-1
 349 708 l 1,47,48
 327 713 327 713 309 713 c 0,49,50
 259 713 259 713 241 687 c 128,-1,51
 223 661 223 661 223 605 c 2,52,-1
 223 107 l 2,53,54
 223 51 223 51 241 25 c 128,-1,55
 259 -1 259 -1 309 -1 c 0,56,57
 327 -1 327 -1 349 4 c 1,58,-1
 351 -6 l 1,59,60
 333 -12 333 -12 306 -12 c 0,61,62
 253 -12 253 -12 231 17.5 c 128,-1,63
 209 47 209 47 209 107 c 2,40,-1
176 868 m 128,-1,65
 181 868 181 868 185 864 c 2,66,-1
 303 740 l 1,67,-1
 296 734 l 1,68,-1
 176 846 l 1,69,-1
 56 734 l 1,70,-1
 49 740 l 1,71,-1
 167 864 l 2,72,64
 171 868 171 868 176 868 c 128,-1,65
EndSplineSet
EndChar

StartChar: Idieresis
Encoding: 207 207 143
Width: 358
GlyphClass: 2
Flags: W
LayerCount: 2
Fore
SplineSet
169 107 m 2,0,-1
 169 638 l 1,1,-1
 138 640 l 2,2,3
 134 640 134 640 130 640 c 0,4,5
 82 640 82 640 48 617 c 128,-1,6
 14 594 14 594 14 547 c 0,7,8
 14 528 14 528 20 514 c 1,9,-1
 12 508 l 1,10,11
 1 520 1 520 1 549.5 c 128,-1,12
 1 579 1 579 22 606 c 128,-1,13
 43 633 43 633 76 642 c 0,14,15
 77 642 77 642 99 645 c 1,16,-1
 99 647 l 1,17,-1
 76 646 l 1,18,19
 -20 658 -20 658 -80 700.5 c 128,-1,20
 -140 743 -140 743 -140 823 c 1,21,-1
 -128 824 l 1,22,23
 -128 778 -128 778 -105 744.5 c 128,-1,24
 -82 711 -82 711 -42 692 c 0,25,26
 32 658 32 658 138 652 c 1,27,-1
 183 649 l 1,28,-1
 183 107 l 2,29,30
 183 47 183 47 161 17.5 c 128,-1,31
 139 -12 139 -12 86 -12 c 0,32,33
 59 -12 59 -12 41 -6 c 1,34,-1
 43 4 l 1,35,36
 65 -1 65 -1 83 -1 c 0,37,38
 133 -1 133 -1 151 25 c 128,-1,39
 169 51 169 51 169 107 c 2,0,-1
209 107 m 2,40,-1
 209 605 l 2,41,42
 209 665 209 665 231 694.5 c 128,-1,43
 253 724 253 724 306 724 c 0,44,45
 333 724 333 724 351 718 c 1,46,-1
 349 708 l 1,47,48
 327 713 327 713 309 713 c 0,49,50
 259 713 259 713 241 687 c 128,-1,51
 223 661 223 661 223 605 c 2,52,-1
 223 107 l 2,53,54
 223 51 223 51 241 25 c 128,-1,55
 259 -1 259 -1 309 -1 c 0,56,57
 327 -1 327 -1 349 4 c 1,58,-1
 351 -6 l 1,59,60
 333 -12 333 -12 306 -12 c 0,61,62
 253 -12 253 -12 231 17.5 c 128,-1,63
 209 47 209 47 209 107 c 2,40,-1
121 800 m 0,64,65
 121 791 121 791 115 784 c 128,-1,66
 109 777 109 777 99 777 c 128,-1,67
 89 777 89 777 83 784 c 128,-1,68
 77 791 77 791 77 800 c 0,69,70
 77 822 77 822 99 822 c 128,-1,71
 121 822 121 822 121 800 c 0,64,65
277 800 m 0,72,73
 277 791 277 791 271 784 c 128,-1,74
 265 777 265 777 255 777 c 128,-1,75
 245 777 245 777 239 784 c 128,-1,76
 233 791 233 791 233 800 c 0,77,78
 233 822 233 822 255 822 c 128,-1,79
 277 822 277 822 277 800 c 0,72,73
EndSplineSet
EndChar

StartChar: Eth
Encoding: 208 208 144
Width: 734
GlyphClass: 2
Flags: W
LayerCount: 2
Fore
SplineSet
290 655 m 1,0,1
 404 663 404 663 449 663 c 128,-1,2
 494 663 494 663 533 646 c 128,-1,3
 572 629 572 629 596.5 601 c 128,-1,4
 621 573 621 573 636 530 c 0,5,6
 663 454 663 454 663 338 c 128,-1,7
 663 222 663 222 614.5 123 c 128,-1,8
 566 24 566 24 469 -13 c 1,9,10
 376 -13 376 -13 290 34 c 1,11,-1
 290 655 l 1,0,1
443 651 m 0,12,13
 418 651 418 651 304 644 c 1,14,-1
 304 344 l 1,15,-1
 465 351 l 1,16,-1
 466 340 l 1,17,-1
 304 333 l 1,18,-1
 304 42 l 1,19,20
 388 -1 388 -1 466 -1 c 1,21,22
 528 23 528 23 571 80 c 0,23,24
 649 183 649 183 649 341 c 0,25,26
 649 568 649 568 545 627 c 0,27,28
 503 651 503 651 443 651 c 0,12,13
264 107 m 2,29,30
 264 47 264 47 242 17.5 c 128,-1,31
 220 -12 220 -12 167 -12 c 0,32,33
 140 -12 140 -12 122 -6 c 1,34,-1
 124 4 l 1,35,36
 146 -1 146 -1 164 -1 c 0,37,38
 214 -1 214 -1 232 25 c 128,-1,39
 250 51 250 51 250 107 c 2,40,-1
 250 332 l 1,41,-1
 144 328 l 1,42,-1
 146 339 l 1,43,-1
 250 342 l 1,44,-1
 250 408 l 1,45,46
 243 407 243 407 230 407 c 0,47,48
 170 407 170 407 133 445 c 128,-1,49
 96 483 96 483 96 546 c 128,-1,50
 96 609 96 609 162 633 c 0,51,52
 174 637 174 637 184 640 c 1,53,-1
 184 642 l 1,54,-1
 161 638 l 1,55,56
 65 640 65 640 0.5 676.5 c 128,-1,57
 -64 713 -64 713 -72 792 c 1,58,-1
 -60 794 l 1,59,60
 -44 650 -44 650 188 650 c 0,61,62
 221 650 221 650 264 653 c 1,63,-1
 264 107 l 2,29,30
230 419 m 0,64,65
 244 419 244 419 250 420 c 1,66,-1
 250 640 l 1,67,68
 194 636 194 636 168 625 c 0,69,70
 110 602 110 602 110 545.5 c 128,-1,71
 110 489 110 489 143 454 c 128,-1,72
 176 419 176 419 230 419 c 0,64,65
EndSplineSet
EndChar

StartChar: Ntilde
Encoding: 209 209 145
Width: 701
GlyphClass: 2
Flags: W
LayerCount: 2
Fore
SplineSet
169 601 m 2,0,1
 127 653 127 653 76 653 c 0,2,3
 51 653 51 653 29 648 c 1,4,-1
 27 658 l 1,5,6
 45 664 45 664 72 664 c 0,7,8
 133 664 133 664 178 610 c 2,9,-1
 465 257 l 2,10,11
 531 175 531 175 552 109 c 1,12,-1
 552 545 l 2,13,14
 552 603 552 603 533.5 628 c 128,-1,15
 515 653 515 653 466 653 c 0,16,17
 448 653 448 653 426 648 c 1,18,-1
 424 658 l 1,19,20
 442 664 442 664 469 664 c 0,21,22
 547 664 547 664 559 598 c 1,23,24
 572 664 572 664 649 664 c 0,25,26
 676 664 676 664 694 658 c 1,27,-1
 692 648 l 1,28,29
 670 653 670 653 652 653 c 0,30,31
 602 653 602 653 584 627 c 128,-1,32
 566 601 566 601 566 545 c 2,33,-1
 566 1 l 1,34,-1
 549 -2 l 1,35,36
 514 102 514 102 446 186 c 2,37,-1
 174 523 l 1,38,-1
 166 543 l 1,39,-1
 164 543 l 1,40,41
 169 528 169 528 169 520 c 2,42,-1
 169 108 l 2,43,44
 169 50 169 50 187.5 25 c 128,-1,45
 206 0 206 0 255 0 c 0,46,47
 273 0 273 0 295 5 c 1,48,-1
 297 -5 l 1,49,50
 279 -11 279 -11 252 -11 c 0,51,52
 174 -11 174 -11 162 55 c 1,53,54
 149 -11 149 -11 72 -11 c 0,55,56
 45 -11 45 -11 27 -5 c 1,57,-1
 29 5 l 1,58,59
 51 0 51 0 69 0 c 0,60,61
 119 0 119 0 137 26 c 128,-1,62
 155 52 155 52 155 108 c 2,63,-1
 155 564 l 1,64,-1
 158 565 l 1,65,-1
 455 196 l 2,66,67
 522 114 522 114 552 25 c 1,68,-1
 552 62 l 1,69,70
 545 137 545 137 455 248 c 2,71,-1
 169 601 l 2,0,1
234 776 m 1,72,-1
 225 782 l 1,73,74
 253 817 253 817 282 828 c 1,75,76
 310 828 310 828 361 805.5 c 128,-1,77
 412 783 412 783 439 782 c 1,78,79
 468 796 468 796 489 822 c 1,80,-1
 498 816 l 1,81,82
 470 781 470 781 441 770 c 1,83,84
 413 770 413 770 362 792.5 c 128,-1,85
 311 815 311 815 284 816 c 1,86,87
 255 802 255 802 234 776 c 1,72,-1
EndSplineSet
EndChar

StartChar: Ograve
Encoding: 210 210 146
Width: 615
GlyphClass: 2
Flags: W
LayerCount: 2
Fore
SplineSet
71 327 m 0,0,1
 71 505 71 505 185 644 c 1,2,-1
 195 637 l 1,3,4
 85 504 85 504 85 327 c 0,5,6
 85 82 85 82 230 18 c 1,7,-1
 230 410 l 1,8,9
 185 458 185 458 185 524 c 128,-1,10
 185 590 185 590 224.5 628 c 128,-1,11
 264 666 264 666 324.5 666 c 128,-1,12
 385 666 385 666 429 639.5 c 128,-1,13
 473 613 473 613 498 566 c 1,14,15
 544 475 544 475 544 341 c 0,16,17
 544 136 544 136 432 -5 c 1,18,19
 383 -15 383 -15 342.5 -15 c 128,-1,20
 302 -15 302 -15 270 -8 c 1,21,-1
 270 379 l 1,22,23
 257 385 257 385 244 397 c 1,24,-1
 244 -1 l 1,25,26
 71 56 71 56 71 327 c 0,0,1
338 362 m 0,27,28
 311 362 311 362 284 372 c 1,29,-1
 284 1 l 1,30,31
 320 -3 320 -3 352 -3 c 128,-1,32
 384 -3 384 -3 424 5 c 1,33,34
 474 71 474 71 502 159 c 128,-1,35
 530 247 530 247 530 325.5 c 128,-1,36
 530 404 530 404 519.5 457 c 128,-1,37
 509 510 509 510 486.5 556 c 128,-1,38
 464 602 464 602 423 628 c 128,-1,39
 382 654 382 654 325.5 654 c 128,-1,40
 269 654 269 654 234 620 c 128,-1,41
 199 586 199 586 199 526 c 128,-1,42
 199 466 199 466 238.5 420 c 128,-1,43
 278 374 278 374 338 374 c 0,44,45
 380 374 380 374 405.5 399 c 128,-1,46
 431 424 431 424 431 466 c 1,47,-1
 445 466 l 1,48,49
 445 420 445 420 415 391 c 128,-1,50
 385 362 385 362 338 362 c 0,27,28
191 867 m 0,51,52
 194 867 194 867 199 864 c 2,53,-1
 370 741 l 1,54,-1
 365 733 l 1,55,-1
 180 853 l 1,56,57
 180 867 180 867 191 867 c 0,51,52
EndSplineSet
EndChar

StartChar: Oacute
Encoding: 211 211 147
Width: 615
GlyphClass: 2
Flags: W
LayerCount: 2
Fore
SplineSet
71 327 m 0,0,1
 71 505 71 505 185 644 c 1,2,-1
 195 637 l 1,3,4
 85 504 85 504 85 327 c 0,5,6
 85 82 85 82 230 18 c 1,7,-1
 230 410 l 1,8,9
 185 458 185 458 185 524 c 128,-1,10
 185 590 185 590 224.5 628 c 128,-1,11
 264 666 264 666 324.5 666 c 128,-1,12
 385 666 385 666 429 639.5 c 128,-1,13
 473 613 473 613 498 566 c 1,14,15
 544 475 544 475 544 341 c 0,16,17
 544 136 544 136 432 -5 c 1,18,19
 383 -15 383 -15 342.5 -15 c 128,-1,20
 302 -15 302 -15 270 -8 c 1,21,-1
 270 379 l 1,22,23
 257 385 257 385 244 397 c 1,24,-1
 244 -1 l 1,25,26
 71 56 71 56 71 327 c 0,0,1
338 362 m 0,27,28
 311 362 311 362 284 372 c 1,29,-1
 284 1 l 1,30,31
 320 -3 320 -3 352 -3 c 128,-1,32
 384 -3 384 -3 424 5 c 1,33,34
 474 71 474 71 502 159 c 128,-1,35
 530 247 530 247 530 325.5 c 128,-1,36
 530 404 530 404 519.5 457 c 128,-1,37
 509 510 509 510 486.5 556 c 128,-1,38
 464 602 464 602 423 628 c 128,-1,39
 382 654 382 654 325.5 654 c 128,-1,40
 269 654 269 654 234 620 c 128,-1,41
 199 586 199 586 199 526 c 128,-1,42
 199 466 199 466 238.5 420 c 128,-1,43
 278 374 278 374 338 374 c 0,44,45
 380 374 380 374 405.5 399 c 128,-1,46
 431 424 431 424 431 466 c 1,47,-1
 445 466 l 1,48,49
 445 420 445 420 415 391 c 128,-1,50
 385 362 385 362 338 362 c 0,27,28
459 852 m 0,51,52
 470 852 470 852 470 838 c 1,53,-1
 285 718 l 1,54,-1
 280 726 l 1,55,-1
 451 849 l 2,56,57
 455 852 455 852 459 852 c 0,51,52
EndSplineSet
EndChar

StartChar: Ocircumflex
Encoding: 212 212 148
Width: 615
GlyphClass: 2
Flags: W
LayerCount: 2
Fore
SplineSet
71 327 m 0,0,1
 71 505 71 505 185 644 c 1,2,-1
 195 637 l 1,3,4
 85 504 85 504 85 327 c 0,5,6
 85 82 85 82 230 18 c 1,7,-1
 230 410 l 1,8,9
 185 458 185 458 185 524 c 128,-1,10
 185 590 185 590 224.5 628 c 128,-1,11
 264 666 264 666 324.5 666 c 128,-1,12
 385 666 385 666 429 639.5 c 128,-1,13
 473 613 473 613 498 566 c 1,14,15
 544 475 544 475 544 341 c 0,16,17
 544 136 544 136 432 -5 c 1,18,19
 383 -15 383 -15 342.5 -15 c 128,-1,20
 302 -15 302 -15 270 -8 c 1,21,-1
 270 379 l 1,22,23
 257 385 257 385 244 397 c 1,24,-1
 244 -1 l 1,25,26
 71 56 71 56 71 327 c 0,0,1
338 362 m 0,27,28
 311 362 311 362 284 372 c 1,29,-1
 284 1 l 1,30,31
 320 -3 320 -3 352 -3 c 128,-1,32
 384 -3 384 -3 424 5 c 1,33,34
 474 71 474 71 502 159 c 128,-1,35
 530 247 530 247 530 325.5 c 128,-1,36
 530 404 530 404 519.5 457 c 128,-1,37
 509 510 509 510 486.5 556 c 128,-1,38
 464 602 464 602 423 628 c 128,-1,39
 382 654 382 654 325.5 654 c 128,-1,40
 269 654 269 654 234 620 c 128,-1,41
 199 586 199 586 199 526 c 128,-1,42
 199 466 199 466 238.5 420 c 128,-1,43
 278 374 278 374 338 374 c 0,44,45
 380 374 380 374 405.5 399 c 128,-1,46
 431 424 431 424 431 466 c 1,47,-1
 445 466 l 1,48,49
 445 420 445 420 415 391 c 128,-1,50
 385 362 385 362 338 362 c 0,27,28
325 867 m 128,-1,52
 330 867 330 867 334 863 c 2,53,-1
 452 739 l 1,54,-1
 445 733 l 1,55,-1
 325 845 l 1,56,-1
 205 733 l 1,57,-1
 198 739 l 1,58,-1
 316 863 l 2,59,51
 320 867 320 867 325 867 c 128,-1,52
EndSplineSet
EndChar

StartChar: Otilde
Encoding: 213 213 149
Width: 615
GlyphClass: 2
Flags: W
LayerCount: 2
Fore
SplineSet
71 327 m 0,0,1
 71 505 71 505 185 644 c 1,2,-1
 195 637 l 1,3,4
 85 504 85 504 85 327 c 0,5,6
 85 82 85 82 230 18 c 1,7,-1
 230 410 l 1,8,9
 185 458 185 458 185 524 c 128,-1,10
 185 590 185 590 224.5 628 c 128,-1,11
 264 666 264 666 324.5 666 c 128,-1,12
 385 666 385 666 429 639.5 c 128,-1,13
 473 613 473 613 498 566 c 1,14,15
 544 475 544 475 544 341 c 0,16,17
 544 136 544 136 432 -5 c 1,18,19
 383 -15 383 -15 342.5 -15 c 128,-1,20
 302 -15 302 -15 270 -8 c 1,21,-1
 270 379 l 1,22,23
 257 385 257 385 244 397 c 1,24,-1
 244 -1 l 1,25,26
 71 56 71 56 71 327 c 0,0,1
338 362 m 0,27,28
 311 362 311 362 284 372 c 1,29,-1
 284 1 l 1,30,31
 320 -3 320 -3 352 -3 c 128,-1,32
 384 -3 384 -3 424 5 c 1,33,34
 474 71 474 71 502 159 c 128,-1,35
 530 247 530 247 530 325.5 c 128,-1,36
 530 404 530 404 519.5 457 c 128,-1,37
 509 510 509 510 486.5 556 c 128,-1,38
 464 602 464 602 423 628 c 128,-1,39
 382 654 382 654 325.5 654 c 128,-1,40
 269 654 269 654 234 620 c 128,-1,41
 199 586 199 586 199 526 c 128,-1,42
 199 466 199 466 238.5 420 c 128,-1,43
 278 374 278 374 338 374 c 0,44,45
 380 374 380 374 405.5 399 c 128,-1,46
 431 424 431 424 431 466 c 1,47,-1
 445 466 l 1,48,49
 445 420 445 420 415 391 c 128,-1,50
 385 362 385 362 338 362 c 0,27,28
180 776 m 1,51,-1
 171 782 l 1,52,53
 199 817 199 817 228 828 c 1,54,55
 256 828 256 828 307 805.5 c 128,-1,56
 358 783 358 783 385 782 c 1,57,58
 414 796 414 796 435 822 c 1,59,-1
 444 816 l 1,60,61
 416 781 416 781 387 770 c 1,62,63
 359 770 359 770 308 792.5 c 128,-1,64
 257 815 257 815 230 816 c 1,65,66
 201 802 201 802 180 776 c 1,51,-1
EndSplineSet
EndChar

StartChar: Odieresis
Encoding: 214 214 150
Width: 615
GlyphClass: 2
Flags: W
LayerCount: 2
Fore
SplineSet
71 327 m 0,0,1
 71 505 71 505 185 644 c 1,2,-1
 195 637 l 1,3,4
 85 504 85 504 85 327 c 0,5,6
 85 82 85 82 230 18 c 1,7,-1
 230 410 l 1,8,9
 185 458 185 458 185 524 c 128,-1,10
 185 590 185 590 224.5 628 c 128,-1,11
 264 666 264 666 324.5 666 c 128,-1,12
 385 666 385 666 429 639.5 c 128,-1,13
 473 613 473 613 498 566 c 1,14,15
 544 475 544 475 544 341 c 0,16,17
 544 136 544 136 432 -5 c 1,18,19
 383 -15 383 -15 342.5 -15 c 128,-1,20
 302 -15 302 -15 270 -8 c 1,21,-1
 270 379 l 1,22,23
 257 385 257 385 244 397 c 1,24,-1
 244 -1 l 1,25,26
 71 56 71 56 71 327 c 0,0,1
338 362 m 0,27,28
 311 362 311 362 284 372 c 1,29,-1
 284 1 l 1,30,31
 320 -3 320 -3 352 -3 c 128,-1,32
 384 -3 384 -3 424 5 c 1,33,34
 474 71 474 71 502 159 c 128,-1,35
 530 247 530 247 530 325.5 c 128,-1,36
 530 404 530 404 519.5 457 c 128,-1,37
 509 510 509 510 486.5 556 c 128,-1,38
 464 602 464 602 423 628 c 128,-1,39
 382 654 382 654 325.5 654 c 128,-1,40
 269 654 269 654 234 620 c 128,-1,41
 199 586 199 586 199 526 c 128,-1,42
 199 466 199 466 238.5 420 c 128,-1,43
 278 374 278 374 338 374 c 0,44,45
 380 374 380 374 405.5 399 c 128,-1,46
 431 424 431 424 431 466 c 1,47,-1
 445 466 l 1,48,49
 445 420 445 420 415 391 c 128,-1,50
 385 362 385 362 338 362 c 0,27,28
270 799 m 0,51,52
 270 790 270 790 264 783 c 128,-1,53
 258 776 258 776 248 776 c 128,-1,54
 238 776 238 776 232 783 c 128,-1,55
 226 790 226 790 226 799 c 0,56,57
 226 821 226 821 248 821 c 128,-1,58
 270 821 270 821 270 799 c 0,51,52
426 799 m 0,59,60
 426 790 426 790 420 783 c 128,-1,61
 414 776 414 776 404 776 c 128,-1,62
 394 776 394 776 388 783 c 128,-1,63
 382 790 382 790 382 799 c 0,64,65
 382 821 382 821 404 821 c 128,-1,66
 426 821 426 821 426 799 c 0,59,60
EndSplineSet
EndChar

StartChar: multiply
Encoding: 215 215 151
Width: 520
GlyphClass: 2
Flags: W
LayerCount: 2
Fore
SplineSet
419 389 m 1,0,-1
 268 238 l 1,1,-1
 419 88 l 1,2,-1
 410 80 l 1,3,-1
 260 230 l 1,4,-1
 110 80 l 1,5,-1
 101 88 l 1,6,-1
 251 238 l 1,7,-1
 101 389 l 1,8,-1
 110 397 l 1,9,-1
 260 247 l 1,10,-1
 410 397 l 1,11,-1
 419 389 l 1,0,-1
EndSplineSet
EndChar

StartChar: Oslash
Encoding: 216 216 152
Width: 615
GlyphClass: 2
Flags: W
LayerCount: 2
Fore
SplineSet
427 635 m 1,0,-1
 465 735 l 1,1,-1
 450 733 l 1,2,-1
 415 641 l 1,3,-1
 427 635 l 1,0,-1
188 37 m 1,4,-1
 198 28 l 1,5,-1
 156 -84 l 1,6,-1
 144 -79 l 1,7,-1
 188 37 l 1,4,-1
71 327 m 0,8,9
 71 505 71 505 185 644 c 1,10,-1
 195 637 l 1,11,12
 85 504 85 504 85 327 c 0,13,14
 85 82 85 82 230 18 c 1,15,-1
 230 410 l 1,16,17
 185 458 185 458 185 524 c 128,-1,18
 185 590 185 590 224.5 628 c 128,-1,19
 264 666 264 666 324.5 666 c 128,-1,20
 385 666 385 666 429 639.5 c 128,-1,21
 473 613 473 613 498 566 c 1,22,23
 544 475 544 475 544 341 c 0,24,25
 544 136 544 136 432 -5 c 1,26,27
 383 -15 383 -15 342.5 -15 c 128,-1,28
 302 -15 302 -15 270 -8 c 1,29,-1
 270 379 l 1,30,31
 257 385 257 385 244 397 c 1,32,-1
 244 -1 l 1,33,34
 71 56 71 56 71 327 c 0,8,9
338 362 m 0,35,36
 311 362 311 362 284 372 c 1,37,-1
 284 1 l 1,38,39
 320 -3 320 -3 352 -3 c 128,-1,40
 384 -3 384 -3 424 5 c 1,41,42
 474 71 474 71 502 159 c 128,-1,43
 530 247 530 247 530 325.5 c 128,-1,44
 530 404 530 404 519.5 457 c 128,-1,45
 509 510 509 510 486.5 556 c 128,-1,46
 464 602 464 602 423 628 c 128,-1,47
 382 654 382 654 325.5 654 c 128,-1,48
 269 654 269 654 234 620 c 128,-1,49
 199 586 199 586 199 526 c 128,-1,50
 199 466 199 466 238.5 420 c 128,-1,51
 278 374 278 374 338 374 c 0,52,53
 380 374 380 374 405.5 399 c 128,-1,54
 431 424 431 424 431 466 c 1,55,-1
 445 466 l 1,56,57
 445 420 445 420 415 391 c 128,-1,58
 385 362 385 362 338 362 c 0,35,36
EndSplineSet
EndChar

StartChar: Ugrave
Encoding: 217 217 153
Width: 693
GlyphClass: 2
Flags: W
LayerCount: 2
Fore
SplineSet
502 544 m 2,0,1
 502 600 502 600 484 626 c 128,-1,2
 466 652 466 652 416 652 c 0,3,4
 398 652 398 652 376 647 c 1,5,-1
 374 657 l 1,6,7
 392 663 392 663 419 663 c 0,8,9
 472 663 472 663 494 633.5 c 128,-1,10
 516 604 516 604 516 544 c 2,11,-1
 516 58 l 1,12,13
 445 2 445 2 367 -15 c 1,14,15
 234 -14 234 -14 187.5 46 c 128,-1,16
 141 106 141 106 141 250 c 0,17,18
 141 331 141 331 147 441.5 c 128,-1,19
 153 552 153 552 153 557 c 0,20,21
 153 603 153 603 135.5 627.5 c 128,-1,22
 118 652 118 652 69 652 c 0,23,24
 51 652 51 652 29 647 c 1,25,-1
 27 657 l 1,26,27
 45 663 45 663 72 663 c 0,28,29
 149 663 149 663 162 597 c 1,30,31
 174 663 174 663 252 663 c 0,32,33
 279 663 279 663 297 657 c 1,34,-1
 295 647 l 1,35,36
 273 652 273 652 255 652 c 0,37,38
 206 652 206 652 187.5 627.5 c 128,-1,39
 169 603 169 603 167 544 c 0,40,41
 155 260 155 260 155 250 c 0,42,43
 155 114 155 114 197.5 57 c 128,-1,44
 240 0 240 0 365 -3 c 1,45,46
 445 17 445 17 502 65 c 1,47,-1
 502 544 l 2,0,1
556 544 m 2,48,-1
 556 107 l 2,49,50
 556 51 556 51 574 25 c 128,-1,51
 592 -1 592 -1 642 -1 c 0,52,53
 660 -1 660 -1 682 4 c 1,54,-1
 684 -6 l 1,55,56
 666 -12 666 -12 639 -12 c 0,57,58
 586 -12 586 -12 564 17.5 c 128,-1,59
 542 47 542 47 542 107 c 2,60,-1
 542 544 l 2,61,62
 542 604 542 604 564 633.5 c 128,-1,63
 586 663 586 663 639 663 c 0,64,65
 666 663 666 663 684 657 c 1,66,-1
 682 647 l 1,67,68
 660 652 660 652 642 652 c 0,69,70
 592 652 592 652 574 626 c 128,-1,71
 556 600 556 600 556 544 c 2,48,-1
199 868 m 0,72,73
 202 868 202 868 207 865 c 2,74,-1
 378 742 l 1,75,-1
 373 734 l 1,76,-1
 188 854 l 1,77,78
 188 868 188 868 199 868 c 0,72,73
EndSplineSet
EndChar

StartChar: Uacute
Encoding: 218 218 154
Width: 693
GlyphClass: 2
Flags: W
LayerCount: 2
Fore
SplineSet
502 544 m 2,0,1
 502 600 502 600 484 626 c 128,-1,2
 466 652 466 652 416 652 c 0,3,4
 398 652 398 652 376 647 c 1,5,-1
 374 657 l 1,6,7
 392 663 392 663 419 663 c 0,8,9
 472 663 472 663 494 633.5 c 128,-1,10
 516 604 516 604 516 544 c 2,11,-1
 516 58 l 1,12,13
 445 2 445 2 367 -15 c 1,14,15
 234 -14 234 -14 187.5 46 c 128,-1,16
 141 106 141 106 141 250 c 0,17,18
 141 331 141 331 147 441.5 c 128,-1,19
 153 552 153 552 153 557 c 0,20,21
 153 603 153 603 135.5 627.5 c 128,-1,22
 118 652 118 652 69 652 c 0,23,24
 51 652 51 652 29 647 c 1,25,-1
 27 657 l 1,26,27
 45 663 45 663 72 663 c 0,28,29
 149 663 149 663 162 597 c 1,30,31
 174 663 174 663 252 663 c 0,32,33
 279 663 279 663 297 657 c 1,34,-1
 295 647 l 1,35,36
 273 652 273 652 255 652 c 0,37,38
 206 652 206 652 187.5 627.5 c 128,-1,39
 169 603 169 603 167 544 c 0,40,41
 155 260 155 260 155 250 c 0,42,43
 155 114 155 114 197.5 57 c 128,-1,44
 240 0 240 0 365 -3 c 1,45,46
 445 17 445 17 502 65 c 1,47,-1
 502 544 l 2,0,1
556 544 m 2,48,-1
 556 107 l 2,49,50
 556 51 556 51 574 25 c 128,-1,51
 592 -1 592 -1 642 -1 c 0,52,53
 660 -1 660 -1 682 4 c 1,54,-1
 684 -6 l 1,55,56
 666 -12 666 -12 639 -12 c 0,57,58
 586 -12 586 -12 564 17.5 c 128,-1,59
 542 47 542 47 542 107 c 2,60,-1
 542 544 l 2,61,62
 542 604 542 604 564 633.5 c 128,-1,63
 586 663 586 663 639 663 c 0,64,65
 666 663 666 663 684 657 c 1,66,-1
 682 647 l 1,67,68
 660 652 660 652 642 652 c 0,69,70
 592 652 592 652 574 626 c 128,-1,71
 556 600 556 600 556 544 c 2,48,-1
467 853 m 0,72,73
 478 853 478 853 478 839 c 1,74,-1
 293 719 l 1,75,-1
 288 727 l 1,76,-1
 459 850 l 2,77,78
 464 853 464 853 467 853 c 0,72,73
EndSplineSet
EndChar

StartChar: Ucircumflex
Encoding: 219 219 155
Width: 693
GlyphClass: 2
Flags: W
LayerCount: 2
Fore
SplineSet
502 544 m 2,0,1
 502 600 502 600 484 626 c 128,-1,2
 466 652 466 652 416 652 c 0,3,4
 398 652 398 652 376 647 c 1,5,-1
 374 657 l 1,6,7
 392 663 392 663 419 663 c 0,8,9
 472 663 472 663 494 633.5 c 128,-1,10
 516 604 516 604 516 544 c 2,11,-1
 516 58 l 1,12,13
 445 2 445 2 367 -15 c 1,14,15
 234 -14 234 -14 187.5 46 c 128,-1,16
 141 106 141 106 141 250 c 0,17,18
 141 331 141 331 147 441.5 c 128,-1,19
 153 552 153 552 153 557 c 0,20,21
 153 603 153 603 135.5 627.5 c 128,-1,22
 118 652 118 652 69 652 c 0,23,24
 51 652 51 652 29 647 c 1,25,-1
 27 657 l 1,26,27
 45 663 45 663 72 663 c 0,28,29
 149 663 149 663 162 597 c 1,30,31
 174 663 174 663 252 663 c 0,32,33
 279 663 279 663 297 657 c 1,34,-1
 295 647 l 1,35,36
 273 652 273 652 255 652 c 0,37,38
 206 652 206 652 187.5 627.5 c 128,-1,39
 169 603 169 603 167 544 c 0,40,41
 155 260 155 260 155 250 c 0,42,43
 155 114 155 114 197.5 57 c 128,-1,44
 240 0 240 0 365 -3 c 1,45,46
 445 17 445 17 502 65 c 1,47,-1
 502 544 l 2,0,1
556 544 m 2,48,-1
 556 107 l 2,49,50
 556 51 556 51 574 25 c 128,-1,51
 592 -1 592 -1 642 -1 c 0,52,53
 660 -1 660 -1 682 4 c 1,54,-1
 684 -6 l 1,55,56
 666 -12 666 -12 639 -12 c 0,57,58
 586 -12 586 -12 564 17.5 c 128,-1,59
 542 47 542 47 542 107 c 2,60,-1
 542 544 l 2,61,62
 542 604 542 604 564 633.5 c 128,-1,63
 586 663 586 663 639 663 c 0,64,65
 666 663 666 663 684 657 c 1,66,-1
 682 647 l 1,67,68
 660 652 660 652 642 652 c 0,69,70
 592 652 592 652 574 626 c 128,-1,71
 556 600 556 600 556 544 c 2,48,-1
333 868 m 128,-1,73
 338 868 338 868 342 864 c 2,74,-1
 460 740 l 1,75,-1
 453 734 l 1,76,-1
 333 846 l 1,77,-1
 213 734 l 1,78,-1
 206 740 l 1,79,-1
 324 864 l 2,80,72
 328 868 328 868 333 868 c 128,-1,73
EndSplineSet
EndChar

StartChar: Udieresis
Encoding: 220 220 156
Width: 693
GlyphClass: 2
Flags: W
LayerCount: 2
Fore
SplineSet
502 544 m 2,0,1
 502 600 502 600 484 626 c 128,-1,2
 466 652 466 652 416 652 c 0,3,4
 398 652 398 652 376 647 c 1,5,-1
 374 657 l 1,6,7
 392 663 392 663 419 663 c 0,8,9
 472 663 472 663 494 633.5 c 128,-1,10
 516 604 516 604 516 544 c 2,11,-1
 516 58 l 1,12,13
 445 2 445 2 367 -15 c 1,14,15
 234 -14 234 -14 187.5 46 c 128,-1,16
 141 106 141 106 141 250 c 0,17,18
 141 331 141 331 147 441.5 c 128,-1,19
 153 552 153 552 153 557 c 0,20,21
 153 603 153 603 135.5 627.5 c 128,-1,22
 118 652 118 652 69 652 c 0,23,24
 51 652 51 652 29 647 c 1,25,-1
 27 657 l 1,26,27
 45 663 45 663 72 663 c 0,28,29
 149 663 149 663 162 597 c 1,30,31
 174 663 174 663 252 663 c 0,32,33
 279 663 279 663 297 657 c 1,34,-1
 295 647 l 1,35,36
 273 652 273 652 255 652 c 0,37,38
 206 652 206 652 187.5 627.5 c 128,-1,39
 169 603 169 603 167 544 c 0,40,41
 155 260 155 260 155 250 c 0,42,43
 155 114 155 114 197.5 57 c 128,-1,44
 240 0 240 0 365 -3 c 1,45,46
 445 17 445 17 502 65 c 1,47,-1
 502 544 l 2,0,1
556 544 m 2,48,-1
 556 107 l 2,49,50
 556 51 556 51 574 25 c 128,-1,51
 592 -1 592 -1 642 -1 c 0,52,53
 660 -1 660 -1 682 4 c 1,54,-1
 684 -6 l 1,55,56
 666 -12 666 -12 639 -12 c 0,57,58
 586 -12 586 -12 564 17.5 c 128,-1,59
 542 47 542 47 542 107 c 2,60,-1
 542 544 l 2,61,62
 542 604 542 604 564 633.5 c 128,-1,63
 586 663 586 663 639 663 c 0,64,65
 666 663 666 663 684 657 c 1,66,-1
 682 647 l 1,67,68
 660 652 660 652 642 652 c 0,69,70
 592 652 592 652 574 626 c 128,-1,71
 556 600 556 600 556 544 c 2,48,-1
278 800 m 0,72,73
 278 791 278 791 272 784 c 128,-1,74
 266 777 266 777 256 777 c 128,-1,75
 246 777 246 777 240 784 c 128,-1,76
 234 791 234 791 234 800 c 0,77,78
 234 822 234 822 256 822 c 128,-1,79
 278 822 278 822 278 800 c 0,72,73
434 800 m 0,80,81
 434 791 434 791 428 784 c 128,-1,82
 422 777 422 777 412 777 c 128,-1,83
 402 777 402 777 396 784 c 128,-1,84
 390 791 390 791 390 800 c 0,85,86
 390 822 390 822 412 822 c 128,-1,87
 434 822 434 822 434 800 c 0,80,81
EndSplineSet
EndChar

StartChar: Yacute
Encoding: 221 221 157
Width: 629
GlyphClass: 2
Flags: W
LayerCount: 2
Fore
SplineSet
353 248 m 2,0,-1
 353 107 l 2,1,2
 353 47 353 47 331 17.5 c 128,-1,3
 309 -12 309 -12 256 -12 c 0,4,5
 229 -12 229 -12 211 -6 c 1,6,-1
 213 4 l 1,7,8
 235 -1 235 -1 253 -1 c 0,9,10
 303 -1 303 -1 321 25 c 128,-1,11
 339 51 339 51 339 107 c 2,12,-1
 339 248 l 2,13,14
 339 263 339 263 304.5 338.5 c 128,-1,15
 270 414 270 414 250 451.5 c 128,-1,16
 230 489 230 489 220 507.5 c 128,-1,17
 210 526 210 526 206.5 532.5 c 128,-1,18
 203 539 203 539 193.5 555.5 c 128,-1,19
 184 572 184 572 179 579 c 128,-1,20
 174 586 174 586 164.5 599 c 128,-1,21
 155 612 155 612 148.5 618 c 128,-1,22
 142 624 142 624 131.5 632.5 c 128,-1,23
 121 641 121 641 112 644 c 0,24,25
 88 654 88 654 69 654 c 0,26,27
 27 654 27 654 3 629.5 c 128,-1,28
 -21 605 -21 605 -21 567.5 c 128,-1,29
 -21 530 -21 530 -4 508 c 128,-1,30
 13 486 13 486 42 486 c 128,-1,31
 71 486 71 486 87.5 503 c 128,-1,32
 104 520 104 520 104 548 c 0,33,34
 104 558 104 558 101 568 c 1,35,-1
 112 572 l 1,36,37
 117 560 117 560 117 548 c 0,38,39
 117 515 117 515 97 494.5 c 128,-1,40
 77 474 77 474 42.5 474 c 128,-1,41
 8 474 8 474 -13.5 499.5 c 128,-1,42
 -35 525 -35 525 -35 567.5 c 128,-1,43
 -35 610 -35 610 -6.5 638 c 128,-1,44
 22 666 22 666 65 666 c 128,-1,45
 108 666 108 666 142.5 637.5 c 128,-1,46
 177 609 177 609 192 586 c 1,47,48
 219 541 219 541 251.5 478 c 128,-1,49
 284 415 284 415 318.5 340 c 128,-1,50
 353 265 353 265 353 248 c 2,0,-1
393 107 m 2,51,52
 393 51 393 51 411 25 c 128,-1,53
 429 -1 429 -1 479 -1 c 0,54,55
 497 -1 497 -1 519 4 c 1,56,-1
 521 -6 l 1,57,58
 503 -12 503 -12 476 -12 c 0,59,60
 423 -12 423 -12 401 17.5 c 128,-1,61
 379 47 379 47 379 107 c 2,62,-1
 379 255 l 2,63,64
 379 274 379 274 341.5 357.5 c 128,-1,65
 304 441 304 441 262 522.5 c 128,-1,66
 220 604 220 604 203.5 622 c 128,-1,67
 187 640 187 640 177 646 c 1,68,-1
 185 655 l 1,69,70
 212 641 212 641 246 578 c 0,71,72
 358 377 358 377 389 275 c 1,73,74
 451 399 451 399 485 489 c 128,-1,75
 519 579 519 579 519 601 c 0,76,77
 519 652 519 652 439 652 c 0,78,79
 421 652 421 652 399 647 c 1,80,-1
 397 656 l 1,81,82
 415 663 415 663 442 663 c 0,83,84
 519 663 519 663 530 613 c 1,85,86
 548 663 548 663 621 663 c 0,87,88
 648 663 648 663 666 656 c 1,89,-1
 664 647 l 1,90,91
 642 652 642 652 614 652 c 0,92,93
 550 652 550 652 534 595 c 0,94,95
 493 454 493 454 393 255 c 1,96,-1
 393 107 l 2,51,52
500 851 m 0,97,98
 511 851 511 851 511 837 c 1,99,-1
 326 717 l 1,100,-1
 321 725 l 1,101,-1
 492 848 l 2,102,103
 496 851 496 851 500 851 c 0,97,98
EndSplineSet
EndChar

StartChar: Thorn
Encoding: 222 222 158
Width: 551
GlyphClass: 2
Flags: W
LayerCount: 2
Fore
SplineSet
209 107 m 2,0,-1
 209 605 l 2,1,2
 209 665 209 665 231 694.5 c 128,-1,3
 253 724 253 724 306 724 c 0,4,5
 333 724 333 724 351 718 c 1,6,-1
 349 708 l 1,7,8
 327 713 327 713 309 713 c 0,9,10
 259 713 259 713 241 687 c 128,-1,11
 223 661 223 661 223 605 c 2,12,-1
 223 521 l 1,13,14
 347 528 347 528 361 528 c 0,15,16
 455 528 455 528 499.5 493.5 c 128,-1,17
 544 459 544 459 544 375.5 c 128,-1,18
 544 292 544 292 493 240 c 128,-1,19
 442 188 442 188 362.5 188 c 128,-1,20
 283 188 283 188 283 244 c 0,21,22
 283 267 283 267 299.5 281.5 c 128,-1,23
 316 296 316 296 340 298 c 1,24,-1
 342 288 l 1,25,26
 322 286 322 286 309.5 274.5 c 128,-1,27
 297 263 297 263 297 244 c 0,28,29
 297 199 297 199 367 199 c 128,-1,30
 437 199 437 199 483.5 248 c 128,-1,31
 530 297 530 297 530 375 c 128,-1,32
 530 453 530 453 489 484.5 c 128,-1,33
 448 516 448 516 362 516 c 0,34,35
 337 516 337 516 223 509 c 1,36,-1
 223 107 l 2,37,38
 223 51 223 51 241 25 c 128,-1,39
 259 -1 259 -1 309 -1 c 0,40,41
 327 -1 327 -1 349 4 c 1,42,-1
 351 -6 l 1,43,44
 333 -12 333 -12 306 -12 c 0,45,46
 253 -12 253 -12 231 17.5 c 128,-1,47
 209 47 209 47 209 107 c 2,0,-1
169 107 m 2,48,-1
 169 638 l 1,49,-1
 138 640 l 2,50,51
 134 640 134 640 130 640 c 0,52,53
 82 640 82 640 48 617 c 128,-1,54
 14 594 14 594 14 547 c 0,55,56
 14 528 14 528 20 514 c 1,57,-1
 12 508 l 1,58,59
 1 520 1 520 1 549.5 c 128,-1,60
 1 579 1 579 22 606 c 128,-1,61
 43 633 43 633 76 642 c 0,62,63
 77 642 77 642 99 645 c 1,64,-1
 99 647 l 1,65,-1
 76 646 l 1,66,67
 -20 658 -20 658 -80 700.5 c 128,-1,68
 -140 743 -140 743 -140 823 c 1,69,-1
 -128 824 l 1,70,71
 -128 778 -128 778 -105 744.5 c 128,-1,72
 -82 711 -82 711 -42 692 c 0,73,74
 32 658 32 658 138 652 c 1,75,-1
 183 649 l 1,76,-1
 183 107 l 2,77,78
 183 47 183 47 161 17.5 c 128,-1,79
 139 -12 139 -12 86 -12 c 0,80,81
 59 -12 59 -12 41 -6 c 1,82,-1
 43 4 l 1,83,84
 65 -1 65 -1 83 -1 c 0,85,86
 133 -1 133 -1 151 25 c 128,-1,87
 169 51 169 51 169 107 c 2,48,-1
EndSplineSet
EndChar

StartChar: germandbls
Encoding: 223 223 159
Width: 527
GlyphClass: 2
Flags: W
LayerCount: 2
Fore
SplineSet
41 459 m 1,0,-1
 41 470 l 1,1,-1
 140 470 l 1,2,3
 140 541 140 541 161 607.5 c 128,-1,4
 182 674 182 674 226 711 c 1,5,6
 402 711 402 711 402 610 c 0,7,8
 402 517 402 517 287 445 c 1,9,10
 289 413 289 413 315.5 372 c 128,-1,11
 342 331 342 331 373.5 298 c 128,-1,12
 405 265 405 265 430.5 223 c 128,-1,13
 456 181 456 181 456 137.5 c 128,-1,14
 456 94 456 94 428.5 51.5 c 128,-1,15
 401 9 401 9 354 -15 c 1,16,17
 298 -15 298 -15 241 7 c 1,18,-1
 245 16 l 1,19,20
 298 -4 298 -4 352 -4 c 1,21,22
 394 18 394 18 418.5 58.5 c 128,-1,23
 443 99 443 99 443 139 c 128,-1,24
 443 179 443 179 416.5 220.5 c 128,-1,25
 390 262 390 262 358.5 295.5 c 128,-1,26
 327 329 327 329 300.5 372 c 128,-1,27
 274 415 274 415 274 450 c 1,28,29
 389 520 389 520 389 610 c 128,-1,30
 389 700 389 700 229 700 c 1,31,32
 153 631 153 631 153 470 c 2,33,-1
 153 459 l 1,34,-1
 160 110 l 2,35,36
 160 103 160 103 160 97 c 0,37,38
 160 42 160 42 144 13.5 c 128,-1,39
 128 -15 128 -15 74 -15 c 0,40,41
 41 -15 41 -15 26 -3 c 1,42,-1
 32 4 l 1,43,44
 45 -4 45 -4 71 -4 c 0,45,46
 120 -4 120 -4 133.5 21.5 c 128,-1,47
 147 47 147 47 147 96 c 0,48,49
 147 103 147 103 147 110 c 2,50,-1
 140 459 l 1,51,-1
 41 459 l 1,0,-1
EndSplineSet
EndChar

StartChar: agrave
Encoding: 224 224 160
Width: 526
GlyphClass: 2
Flags: W
LayerCount: 2
Fore
SplineSet
383 418 m 2,0,-1
 383 132 l 2,1,2
 383 -1 383 -1 469 -1 c 0,3,4
 495 -1 495 -1 508 7 c 1,5,-1
 514 0 l 1,6,7
 499 -12 499 -12 466 -12 c 0,8,9
 370 -12 370 -12 370 132 c 2,10,-1
 370 154 l 1,11,12
 336 97 336 97 280.5 51 c 128,-1,13
 225 5 225 5 176 -15 c 1,14,15
 123 13 123 13 97 71 c 128,-1,16
 71 129 71 129 71 206 c 128,-1,17
 71 283 71 283 106.5 360 c 128,-1,18
 142 437 142 437 208 485 c 1,19,20
 297 485 297 485 371 443 c 1,21,22
 376 493 376 493 404 528 c 1,23,-1
 413 523 l 1,24,25
 383 475 383 475 383 418 c 2,0,-1
117.5 353 m 128,-1,27
 85 280 85 280 85 207.5 c 128,-1,28
 85 135 85 135 108 79.5 c 128,-1,29
 131 24 131 24 178 -1 c 1,30,31
 224 17 224 17 282.5 67.5 c 128,-1,32
 341 118 341 118 370 174 c 1,33,-1
 370 431 l 1,34,35
 296 474 296 474 211 474 c 1,36,26
 150 426 150 426 117.5 353 c 128,-1,27
121 694 m 0,37,38
 126 694 126 694 130 690 c 2,39,-1
 277 539 l 1,40,-1
 271 532 l 1,41,-1
 110 683 l 1,42,43
 110 694 110 694 121 694 c 0,37,38
EndSplineSet
EndChar

StartChar: aacute
Encoding: 225 225 161
Width: 526
GlyphClass: 2
Flags: W
LayerCount: 2
Fore
SplineSet
383 418 m 2,0,-1
 383 132 l 2,1,2
 383 -1 383 -1 469 -1 c 0,3,4
 495 -1 495 -1 508 7 c 1,5,-1
 514 0 l 1,6,7
 499 -12 499 -12 466 -12 c 0,8,9
 370 -12 370 -12 370 132 c 2,10,-1
 370 154 l 1,11,12
 336 97 336 97 280.5 51 c 128,-1,13
 225 5 225 5 176 -15 c 1,14,15
 123 13 123 13 97 71 c 128,-1,16
 71 129 71 129 71 206 c 128,-1,17
 71 283 71 283 106.5 360 c 128,-1,18
 142 437 142 437 208 485 c 1,19,20
 297 485 297 485 371 443 c 1,21,22
 376 493 376 493 404 528 c 1,23,-1
 413 523 l 1,24,25
 383 475 383 475 383 418 c 2,0,-1
117.5 353 m 128,-1,27
 85 280 85 280 85 207.5 c 128,-1,28
 85 135 85 135 108 79.5 c 128,-1,29
 131 24 131 24 178 -1 c 1,30,31
 224 17 224 17 282.5 67.5 c 128,-1,32
 341 118 341 118 370 174 c 1,33,-1
 370 431 l 1,34,35
 296 474 296 474 211 474 c 1,36,26
 150 426 150 426 117.5 353 c 128,-1,27
403 694 m 0,37,38
 414 694 414 694 414 683 c 1,39,-1
 253 532 l 1,40,-1
 247 539 l 1,41,-1
 394 690 l 2,42,43
 398 694 398 694 403 694 c 0,37,38
EndSplineSet
EndChar

StartChar: acircumflex
Encoding: 226 226 162
Width: 526
GlyphClass: 2
Flags: W
LayerCount: 2
Fore
SplineSet
383 418 m 2,0,-1
 383 132 l 2,1,2
 383 -1 383 -1 469 -1 c 0,3,4
 495 -1 495 -1 508 7 c 1,5,-1
 514 0 l 1,6,7
 499 -12 499 -12 466 -12 c 0,8,9
 370 -12 370 -12 370 132 c 2,10,-1
 370 154 l 1,11,12
 336 97 336 97 280.5 51 c 128,-1,13
 225 5 225 5 176 -15 c 1,14,15
 123 13 123 13 97 71 c 128,-1,16
 71 129 71 129 71 206 c 128,-1,17
 71 283 71 283 106.5 360 c 128,-1,18
 142 437 142 437 208 485 c 1,19,20
 297 485 297 485 371 443 c 1,21,22
 376 493 376 493 404 528 c 1,23,-1
 413 523 l 1,24,25
 383 475 383 475 383 418 c 2,0,-1
117.5 353 m 128,-1,27
 85 280 85 280 85 207.5 c 128,-1,28
 85 135 85 135 108 79.5 c 128,-1,29
 131 24 131 24 178 -1 c 1,30,31
 224 17 224 17 282.5 67.5 c 128,-1,32
 341 118 341 118 370 174 c 1,33,-1
 370 431 l 1,34,35
 296 474 296 474 211 474 c 1,36,26
 150 426 150 426 117.5 353 c 128,-1,27
262 694 m 128,-1,38
 267 694 267 694 271 690 c 2,39,-1
 389 538 l 1,40,-1
 382 532 l 1,41,-1
 262 672 l 1,42,-1
 142 532 l 1,43,-1
 135 538 l 1,44,-1
 253 690 l 2,45,37
 257 694 257 694 262 694 c 128,-1,38
EndSplineSet
EndChar

StartChar: atilde
Encoding: 227 227 163
Width: 526
GlyphClass: 2
Flags: W
LayerCount: 2
Fore
SplineSet
383 418 m 2,0,-1
 383 132 l 2,1,2
 383 -1 383 -1 469 -1 c 0,3,4
 495 -1 495 -1 508 7 c 1,5,-1
 514 0 l 1,6,7
 499 -12 499 -12 466 -12 c 0,8,9
 370 -12 370 -12 370 132 c 2,10,-1
 370 154 l 1,11,12
 336 97 336 97 280.5 51 c 128,-1,13
 225 5 225 5 176 -15 c 1,14,15
 123 13 123 13 97 71 c 128,-1,16
 71 129 71 129 71 206 c 128,-1,17
 71 283 71 283 106.5 360 c 128,-1,18
 142 437 142 437 208 485 c 1,19,20
 297 485 297 485 371 443 c 1,21,22
 376 493 376 493 404 528 c 1,23,-1
 413 523 l 1,24,25
 383 475 383 475 383 418 c 2,0,-1
117.5 353 m 128,-1,27
 85 280 85 280 85 207.5 c 128,-1,28
 85 135 85 135 108 79.5 c 128,-1,29
 131 24 131 24 178 -1 c 1,30,31
 224 17 224 17 282.5 67.5 c 128,-1,32
 341 118 341 118 370 174 c 1,33,-1
 370 431 l 1,34,35
 296 474 296 474 211 474 c 1,36,26
 150 426 150 426 117.5 353 c 128,-1,27
135 592 m 1,37,-1
 126 598 l 1,38,39
 154 633 154 633 183 644 c 1,40,41
 211 644 211 644 262 621.5 c 128,-1,42
 313 599 313 599 340 598 c 1,43,44
 369 612 369 612 390 638 c 1,45,-1
 399 632 l 1,46,47
 371 597 371 597 342 586 c 1,48,49
 314 586 314 586 263 608.5 c 128,-1,50
 212 631 212 631 185 632 c 1,51,52
 156 618 156 618 135 592 c 1,37,-1
EndSplineSet
EndChar

StartChar: adieresis
Encoding: 228 228 164
Width: 526
GlyphClass: 2
Flags: W
LayerCount: 2
Fore
SplineSet
383 418 m 2,0,-1
 383 132 l 2,1,2
 383 -1 383 -1 469 -1 c 0,3,4
 495 -1 495 -1 508 7 c 1,5,-1
 514 0 l 1,6,7
 499 -12 499 -12 466 -12 c 0,8,9
 370 -12 370 -12 370 132 c 2,10,-1
 370 154 l 1,11,12
 336 97 336 97 280.5 51 c 128,-1,13
 225 5 225 5 176 -15 c 1,14,15
 123 13 123 13 97 71 c 128,-1,16
 71 129 71 129 71 206 c 128,-1,17
 71 283 71 283 106.5 360 c 128,-1,18
 142 437 142 437 208 485 c 1,19,20
 297 485 297 485 371 443 c 1,21,22
 376 493 376 493 404 528 c 1,23,-1
 413 523 l 1,24,25
 383 475 383 475 383 418 c 2,0,-1
117.5 353 m 128,-1,27
 85 280 85 280 85 207.5 c 128,-1,28
 85 135 85 135 108 79.5 c 128,-1,29
 131 24 131 24 178 -1 c 1,30,31
 224 17 224 17 282.5 67.5 c 128,-1,32
 341 118 341 118 370 174 c 1,33,-1
 370 431 l 1,34,35
 296 474 296 474 211 474 c 1,36,26
 150 426 150 426 117.5 353 c 128,-1,27
206 620 m 0,37,38
 206 611 206 611 200 604 c 128,-1,39
 194 597 194 597 184 597 c 128,-1,40
 174 597 174 597 168 604 c 128,-1,41
 162 611 162 611 162 620 c 0,42,43
 162 642 162 642 184 642 c 128,-1,44
 206 642 206 642 206 620 c 0,37,38
362 620 m 0,45,46
 362 611 362 611 356 604 c 128,-1,47
 350 597 350 597 340 597 c 128,-1,48
 330 597 330 597 324 604 c 128,-1,49
 318 611 318 611 318 620 c 0,50,51
 318 642 318 642 340 642 c 128,-1,52
 362 642 362 642 362 620 c 0,45,46
EndSplineSet
EndChar

